<svg id="Layer_1" data-name="Layer 1" xmlns="http://www.w3.org/2000/svg" xmlns:xlink="http://www.w3.org/1999/xlink" viewBox="0 0 450 450"><defs><style>.cls-1{fill:#625f70;}.cls-2{fill:#575266;}.cls-3{fill:#fcecd9;}.cls-4{fill:#f2d6c2;}.cls-5{fill:#f6e1cf;}.cls-6{fill:#dfdfdc;}.cls-7{fill:#eaccbb;}.cls-8{fill:#f78d8d;}.cls-9{fill:url(#linear-gradient);}.cls-10{fill:url(#linear-gradient-2);}.cls-11{fill:#f49f90;}.cls-12{fill:url(#linear-gradient-3);}</style><linearGradient id="linear-gradient" x1="215.04" y1="110.47" x2="340.89" y2="110.47" gradientUnits="userSpaceOnUse"><stop offset="0.13" stop-color="#ed6e6e" stop-opacity="0"/><stop offset="0.19" stop-color="#ed6e6e" stop-opacity="0.14"/><stop offset="0.33" stop-color="#ed6e6e" stop-opacity="0.39"/><stop offset="0.46" stop-color="#ed6e6e" stop-opacity="0.61"/><stop offset="0.58" stop-color="#ed6e6e" stop-opacity="0.78"/><stop offset="0.68" stop-color="#ed6e6e" stop-opacity="0.9"/><stop offset="0.78" stop-color="#ed6e6e" stop-opacity="0.97"/><stop offset="0.85" stop-color="#ed6e6e"/></linearGradient><linearGradient id="linear-gradient-2" x1="91.77" y1="168.57" x2="367.24" y2="168.57" gradientUnits="userSpaceOnUse"><stop offset="0.09" stop-color="#ed6e6e" stop-opacity="0"/><stop offset="0.17" stop-color="#ed6e6e" stop-opacity="0.09"/><stop offset="0.75" stop-color="#ed6e6e" stop-opacity="0.74"/><stop offset="1" stop-color="#ed6e6e"/></linearGradient><linearGradient id="linear-gradient-3" x1="30.33" y1="-119.18" x2="301.69" y2="-119.18" gradientTransform="matrix(1, 0.05, -0.05, 1, 58.3, 293.5)" gradientUnits="userSpaceOnUse"><stop offset="0" stop-color="#dd5b5b" stop-opacity="0"/><stop offset="0.08" stop-color="#dd5b5b" stop-opacity="0.16"/><stop offset="0.2" stop-color="#dd5b5b" stop-opacity="0.38"/><stop offset="0.33" stop-color="#dd5b5b" stop-opacity="0.57"/><stop offset="0.46" stop-color="#dd5b5b" stop-opacity="0.72"/><stop offset="0.59" stop-color="#dd5b5b" stop-opacity="0.85"/><stop offset="0.72" stop-color="#dd5b5b" stop-opacity="0.93"/><stop offset="0.86" stop-color="#dd5b5b" stop-opacity="0.98"/><stop offset="1" stop-color="#dd5b5b"/></linearGradient></defs><title>cheech</title><path class="cls-1" d="M133.68,135a108.94,108.94,0,0,1,59.59-54.57,140.34,140.34,0,0,1,49.46-8.53c71,0,97.87,75.8,97.87,75.8l1.42,7.08C345.65,173,341,191,347,208.51c2.61,7.56,10.8,21.22,17,31a162.61,162.61,0,0,1,14.68,29.36c.25.65.46,1.22.62,1.69,7.22,20.48,6.73,35.35-.78,53.36-12.71,30.5-50.13,62.7-150.2,62.7,0,0-91.15,2.88-143.93-51.81-40.13-41.59-6.47-103.15,12-130.26A293.94,293.94,0,0,0,117.63,168Z"/><path class="cls-2" d="M225.76,389.21a256.06,256.06,0,0,1-50.13-5.48c-27.16-5.65-65.36-18.42-93.07-47.14-18.08-18.74-23.68-43.28-16.63-72.93,5.71-24,18.55-46.19,28.32-60.55a292.52,292.52,0,0,0,21.07-36.26l16-33a111,111,0,0,1,61-55.84,143.47,143.47,0,0,1,50.35-8.69c29.82,0,56.63,13.43,77.54,38.83A142,142,0,0,1,343,146.85l.1.35,1.42,7.08c1.64,8.22,1.64,16.36,1.64,24.24,0,10.12,0,19.68,3.26,29.16,2.51,7.28,10.49,20.59,16.74,30.48A165.62,165.62,0,0,1,381.07,268c.25.67.47,1.26.64,1.74,7.31,20.75,7.08,36.22-.83,55.19-7.73,18.55-22.38,33.38-43.55,44.09-26.48,13.39-63.14,20.18-109,20.19C228.12,389.19,227.22,389.21,225.76,389.21ZM133.68,135l2.3,1.12-16,33A297.62,297.62,0,0,1,98.48,206c-9.52,14-22,35.58-27.57,58.86-6.62,27.84-1.46,50.79,15.33,68.19,26.81,27.78,64,40.18,90.43,45.69a245.26,245.26,0,0,0,51.57,5.34h.08c55.82,0,126.78-10.6,147.84-61.12,7.36-17.67,7.57-32.11.72-51.52-.16-.45-.36-1-.6-1.63a160.46,160.46,0,0,0-14.45-28.89c-6.4-10.12-14.59-23.8-17.26-31.55C341,199.06,341,188.61,341,178.52c0-7.63,0-15.51-1.54-23.23l-1.38-6.89a140.38,140.38,0,0,0-21.92-37.09,107.18,107.18,0,0,0-29.58-25.38,87.91,87.91,0,0,0-43.9-11.46,138.38,138.38,0,0,0-48.56,8.37A105.88,105.88,0,0,0,136,136.12Z"/><path class="cls-3" d="M158.47,166.36s-12.16,2-20.95,8.73c-9.18,7-15.13,19-21.06,36.72a67.29,67.29,0,0,1-3.83,9.13c-4.81,9.47-14.79,34.53-7.66,69.2a78.82,78.82,0,0,0,26.68,45,65.71,65.71,0,0,0,8.82,6.19,90.37,90.37,0,0,1,13.9,9.77c6.48,5.62,17.7,11,30.32,13.12,19.19,3.2,35.25-2.83,42.24-6.72,4.15-2.31,8.68-4.42,13.43-4.39,37.09.24,80.59-16.39,90.19-66.29a287.21,287.21,0,0,0,10.16-70.71,38.7,38.7,0,0,0-28.41-38C273.69,167.47,202.78,151.9,158.47,166.36Z"/><path class="cls-4" d="M321.55,304.49a86.84,86.84,0,0,0,9-17.67s14.46-47.46,9-100.43c0,0-117.7-40.69-181-20l-17.78,2.75-5.12,8.23-6.93,8.22s32.82-8.43,49.31,4.19c4.34,3.32,11.47,3.72,15.95.57,12-8.47,35.84-13.72,70.57-2.1a25.88,25.88,0,0,1,14,10.87c2.88,4.7,4.66,10.78,1.26,17.07a16.78,16.78,0,0,0,2.92,20c7.48,7.31,14.76,15.54,12.8,33.36a29.33,29.33,0,0,1-1.92,7.64h0c9.7,6.75,16,10.2,25.18,22.45Z"/><path class="cls-5" d="M160.09,353.63a11.48,11.48,0,0,1,1.39-17.9,30.66,30.66,0,0,1,19.54-5c17,1,25.63,9.88,28.43,13.45a1.67,1.67,0,0,1-.41,2.43h0a1.67,1.67,0,0,1-1.9,0c-3-2.23-13.45-9.06-26.44-9.06-3.88,0-11.3.83-14.15,2.76l-.14.1a7.76,7.76,0,0,0-.49,12.39c9.13,7.53,28.59,11.07,28.59,11.07-3.06.25-6.33.38-9.81.38a40.11,40.11,0,0,1-18.66-5Z"/><path class="cls-2" d="M195.63,367.68a69,69,0,0,1-11.35-.94c-12-2-24.14-7.26-31.58-13.71a87.3,87.3,0,0,0-13.51-9.49,68.37,68.37,0,0,1-9.17-6.44,81.61,81.61,0,0,1-27.56-46.46c-7.32-35.57,3.07-61.41,7.88-70.87A65,65,0,0,0,114,211c6.78-20.26,13.14-31.25,21.94-37.95s20.18-8.87,21.88-9.18c45-14.58,116.49,1.12,155.13,11.8a41.22,41.22,0,0,1,30.29,40.48A293.88,293.88,0,0,1,333,287.43C328.48,311,316.39,329,297.12,340.94c-15.53,9.63-35.71,14.85-56.77,14.72h-.08c-4.22,0-8.47,2.06-12.08,4.07A69.85,69.85,0,0,1,195.63,367.68ZM158.9,168.88c-.12,0-11.67,2-19.83,8.24-7.91,6-13.76,16.3-20.19,35.5a70.08,70.08,0,0,1-4,9.48c-4.57,9-14.43,33.53-7.43,67.52a76.48,76.48,0,0,0,25.8,43.54,63.35,63.35,0,0,0,8.47,6,92.32,92.32,0,0,1,14.29,10c6.77,5.87,17.9,10.67,29.07,12.53a64.93,64.93,0,0,0,40.57-6.44c4.19-2.34,9.19-4.72,14.58-4.72h.9c19.84,0,38.72-4.95,53.25-14,18-11.19,29.36-28.1,33.62-50.25l.06-.26a287.43,287.43,0,0,0,10-70,36.1,36.1,0,0,0-26.53-35.46C273.48,170.07,203,154.53,159.26,168.79Z"/><path class="cls-5" d="M121.73,232.82a17.41,17.41,0,1,0,33-7.71Z"/><path class="cls-5" d="M247.05,236.39a18.65,18.65,0,1,1-35.38-8.26Z"/><path class="cls-4" d="M193.38,199.93a49.9,49.9,0,0,0,4.89,12.57,14,14,0,0,0,11.85,7.05,42.4,42.4,0,0,0,23.69-6.61l4.53-6.76s-18.62,11.41-30.55,6.4c-6.61-2.78-10.72-8.55-13.08-13.15A.72.72,0,0,0,193.38,199.93Z"/><path class="cls-4" d="M177.37,199.43a.76.76,0,0,1,1.39.57,43.25,43.25,0,0,1-4.29,10.46,13,13,0,0,1-10.93,6.32,39.93,39.93,0,0,1-21.84-5.93l-4.18-6.06s17.17,10.23,28.16,5.74C171.44,208.17,175.14,203.42,177.37,199.43Z"/><path class="cls-2" d="M121.73,230.37l.15-.68a4.63,4.63,0,0,1,3.5-3.54c5.76-1.31,19-3.27,28.8-1.64a1.68,1.68,0,0,1,1.41,1.66h0a1.67,1.67,0,0,1-1.45,1.66c-4.08.56-16,2.54-25.61,7.67a4.67,4.67,0,0,1-4.49,0h0A4.72,4.72,0,0,1,121.73,230.37Z"/><path class="cls-2" d="M247.39,233.88l-.16-.74a5,5,0,0,0-3.82-3.86c-6.27-1.43-20.65-3.57-31.37-1.79a1.83,1.83,0,0,0-1.54,1.81h0a1.82,1.82,0,0,0,1.58,1.81c4.45.61,17.44,2.76,27.9,8.36a5.09,5.09,0,0,0,4.9,0h0A5.15,5.15,0,0,0,247.39,233.88Z"/><path class="cls-1" d="M237.78,315.64c12.36-1.39,19.89-14.42,9.53-32.53-.16-.29-.27-.61-.41-.92-7-14.81-31.92-17.45-31.92-17.45s-11.95-.67-20-4.5c-.58-.27-1.6-.71-2.42-1.05a2.05,2.05,0,0,0-2.2.4c-.59.55-1.3,1.23-1.73,1.67a8.57,8.57,0,0,0-2.08,3.79,10.28,10.28,0,0,0,4.14,11c2.93,2,7.2,2.84,11.78,4.89a23.69,23.69,0,0,1,10.72,10.9c1.55,3.6,2.35,16.28,8.7,21C225.28,315.42,233.74,316.1,237.78,315.64Z"/><path class="cls-2" d="M235,318.33c-4.6,0-11.25-.83-14.7-3.4-5.37-4-7.21-12.33-8.43-17.84a31.61,31.61,0,0,0-1.09-4.2,21.07,21.07,0,0,0-9.41-9.58c-1.73-.78-3.43-1.37-5.08-1.94a28.82,28.82,0,0,1-7.11-3.19,12.85,12.85,0,0,1-5.15-13.81,11.13,11.13,0,0,1,2.71-4.89c.38-.4,1-1,1.82-1.76a4.62,4.62,0,0,1,4.94-.89c1.2.5,2,.86,2.53,1.1,7.51,3.57,18.95,4.25,19.06,4.26h.12c1.08.11,26.46,3,34,18.91.07.16.14.31.2.47a2.67,2.67,0,0,0,.12.27c5.67,9.91,6.78,19.35,3.11,26.58a18.2,18.2,0,0,1-14.57,9.77h0A27.91,27.91,0,0,1,235,318.33Zm-43.19-56.66c-.63.6-1.11,1.06-1.39,1.36A6.08,6.08,0,0,0,189,265.7a7.72,7.72,0,0,0,3.13,8.28,25.08,25.08,0,0,0,5.86,2.55c1.67.58,3.56,1.24,5.49,2.1a26.07,26.07,0,0,1,12,12.22A31.46,31.46,0,0,1,216.9,296c1.05,4.77,2.65,12,6.49,14.84,2.62,1.95,10.24,2.71,14.1,2.28h0a13.17,13.17,0,0,0,10.58-7c2.86-5.64,1.8-13.36-3-21.73a7.11,7.11,0,0,1-.4-.85l-.11-.25c-6.13-13-28.59-15.85-29.83-16s-12.72-.86-20.89-4.74C193.59,262.42,193,262.16,191.85,261.67Z"/><path class="cls-1" d="M122.1,315.36c-12.36-1.39-19.89-14.42-9.53-32.53.16-.29.27-.61.41-.92,7-14.81,31.92-17.45,31.92-17.45s11.95-.67,20-4.5c.58-.27,1.6-.71,2.42-1.05a2.05,2.05,0,0,1,2.2.4c.59.55,1.3,1.23,1.73,1.67a8.57,8.57,0,0,1,2.08,3.79,10.28,10.28,0,0,1-4.14,11c-2.93,2-7.2,2.84-11.78,4.89a23.69,23.69,0,0,0-10.72,10.9c-1.55,3.6-2.35,16.28-8.7,21C134.6,315.14,126.14,315.82,122.1,315.36Z"/><path class="cls-2" d="M124.84,318a27.91,27.91,0,0,1-3-.15,18.2,18.2,0,0,1-14.57-9.77c-3.67-7.23-2.56-16.67,3.11-26.58a2.76,2.76,0,0,0,.11-.26c.07-.16.13-.32.21-.48,7.51-15.93,32.89-18.79,34-18.9h.12c.11,0,11.55-.69,19.06-4.26.65-.31,1.73-.77,2.53-1.1a4.62,4.62,0,0,1,4.94.89c.82.77,1.44,1.37,1.82,1.76a11.14,11.14,0,0,1,2.71,4.9,12.85,12.85,0,0,1-5.15,13.81,28.84,28.84,0,0,1-7.11,3.19c-1.65.57-3.35,1.16-5.08,1.94a21.07,21.07,0,0,0-9.41,9.58,31.55,31.55,0,0,0-1.09,4.2c-1.22,5.51-3.06,13.84-8.43,17.84C136.09,317.22,129.44,318,124.84,318Zm20.28-51c-1.22.14-23.69,3-29.82,16l-.11.25a7,7,0,0,1-.4.85c-4.79,8.36-5.85,16.08-3,21.72a13.17,13.17,0,0,0,10.58,7h0c3.86.44,11.49-.33,14.11-2.28,3.84-2.86,5.43-10.07,6.49-14.84a31.54,31.54,0,0,1,1.39-5.13,26.07,26.07,0,0,1,12-12.22c1.94-.87,3.83-1.52,5.49-2.1a25.09,25.09,0,0,0,5.86-2.55,7.72,7.72,0,0,0,3.13-8.28,6.08,6.08,0,0,0-1.46-2.68c-.28-.29-.76-.76-1.39-1.36-.91.38-1.62.69-2,.88C157.84,266.15,146.27,266.94,145.12,267Z"/><path class="cls-2" d="M352.18,282c-5.79,5.78-13.64,6.34-21.24,3.47a.76.76,0,0,1-.44-1h0a.75.75,0,0,1,.93-.48c5.87,1.94,12.91-1.1,17.31-5.51a16.07,16.07,0,0,0-11.36-27.42v-4.88A20.94,20.94,0,0,1,352.18,282Z"/><path class="cls-6" d="M331.44,284c5.87,1.94,12.91-1.1,17.31-5.51a16.07,16.07,0,0,0-11.36-27.42Z"/><path class="cls-7" d="M331.44,284c5.87,1.94,12.91-1.1,17.31-5.51a16.07,16.07,0,0,0-11.36-27.42Z"/><path class="cls-8" d="M234.83,63.35c85.52,0,108.05,88.5,108.05,88.5l1.48,7.67-5.5-2.62a303.84,303.84,0,0,0-212.25-18.8h0S139,63.35,234.83,63.35Z"/><path class="cls-2" d="M347.83,164l-10.07-4.8A301.92,301.92,0,0,0,127.3,140.56l-3.24.9v-3.36c0-.16,3.17-19.69,18.73-39a96,96,0,0,1,33.59-26.39c16.54-7.92,36.2-11.93,58.45-11.93,20,0,38.22,4.77,54.26,14.18A114.07,114.07,0,0,1,323,106.08a143.68,143.68,0,0,1,22.37,45.14l0,.15ZM207.47,124.57a307.74,307.74,0,0,1,132.5,30l.92.44-.5-2.61A141.58,141.58,0,0,0,318.77,109a108.89,108.89,0,0,0-32.35-29.65c-15.22-8.91-32.57-13.42-51.58-13.42-21.41,0-40.28,3.82-56.09,11.36a90.56,90.56,0,0,0-48.65,57.25A305.84,305.84,0,0,1,207.47,124.57Z"/><path class="cls-9" d="M340.89,155l-.5-2.61A141.59,141.59,0,0,0,318.77,109a108.89,108.89,0,0,0-32.35-29.65c-15.22-8.91-32.57-13.42-51.58-13.42l-1.92,0c-11.66,16.23-18.36,35.85-17.84,55.89l.07,2.86A310.75,310.75,0,0,1,340,154.59Z"/><path class="cls-1" d="M316.48,182.55s2.29,46.21-11.57,72.28a6.59,6.59,0,0,0,1.18,7.77c5.73,5.69,16.74,17.13,22.47,26.51a4,4,0,0,0,7.08-.4c6.95-15.38,15.71-55.24,0-99.12Z"/><path class="cls-2" d="M332,293.6a6.58,6.58,0,0,1-5.63-3.16c-5.55-9.08-16.22-20.21-22.09-26a9.09,9.09,0,0,1-1.63-10.79c13.38-25.15,11.3-70.49,11.28-70.95l-.19-3.86,23.94,8.78.4,1.13A152.45,152.45,0,0,1,346.68,250c-1.4,22.07-7,36-8.73,39.77a6.52,6.52,0,0,1-5.55,3.84ZM319.15,186.25c.23,11.77-.14,47.5-12,69.77a4,4,0,0,0,.72,4.75c6,6,17,17.45,22.85,27a1.47,1.47,0,0,0,1.36.71,1.39,1.39,0,0,0,1.21-.83c6.64-14.7,15.16-53.54.36-96.08Z"/><path class="cls-2" d="M251.49,217.53l4.6,2.43c1.83,1,4-.33,3.71-2.17l-.26-1.52a18.23,18.23,0,0,0-7-11.4,14.55,14.55,0,0,0-6.77-3c-7.73-1-29,9.69-37.08,9.74a.82.82,0,0,0-.86.92c.34,2,1.52,6.35,5.39,6.87C218.21,220.12,240.51,212.17,251.49,217.53Z"/><path class="cls-2" d="M129,213.25,124.71,215a2.22,2.22,0,0,1-3-2.65l.41-1.47a17.93,17.93,0,0,1,7.51-10.36,11.74,11.74,0,0,1,6.27-2c6.89,0,24.2,13.5,31.27,14.64a.82.82,0,0,1,.64,1c-.53,1.92-2.09,6.08-5.53,6.08C157.81,220.29,139.25,209.41,129,213.25Z"/><path class="cls-8" d="M101.33,189.24s-10.12-7.17-9.54-19.85,7.26-32.54,22-40.51,65.29-20.38,123.45-11,98.89,28.87,116.27,47.91c12.3,13.48,16,39.56,12.39,50.05A10,10,0,0,1,356,222.6h0a12.75,12.75,0,0,1-8.68-4c-11.3-12-53-48.73-141.1-52.78-43.83-2-73.38,5.17-88.26,10.2a31.51,31.51,0,0,0-16.67,13.21Z"/><path class="cls-10" d="M101.33,189.24s-10.12-7.17-9.54-19.85,7.26-32.54,22-40.51,65.29-20.38,123.45-11,98.89,28.87,116.27,47.91c12.3,13.48,16,39.56,12.39,50.05A10,10,0,0,1,356,222.6h0a12.75,12.75,0,0,1-8.68-4c-11.3-12-53-48.73-141.1-52.78-43.83-2-73.38,5.17-88.26,10.2a31.51,31.51,0,0,0-16.67,13.21Z"/><path class="cls-2" d="M356.49,225.17h-.57a15.24,15.24,0,0,1-10.43-4.79c-10.56-11.18-51.83-48-139.36-52-44.1-2-73.64,5.44-87.32,10.07A29,29,0,0,0,103.5,190.6l-1.43,2.31-2.22-1.57c-.46-.33-11.25-8.14-10.61-22.05a62.44,62.44,0,0,1,5.94-23c4.28-9,10.31-15.8,17.43-19.64,9.09-4.9,27.27-9.72,46.33-12.29a272.77,272.77,0,0,1,78.74,1c53.83,8.69,97.85,26.9,117.75,48.72,13,14.3,16.77,41.35,12.92,52.61A12.6,12.6,0,0,1,356.49,225.17Zm-165-62.23q7.14,0,14.87.34C244.48,165,278.25,173,306.74,187c23,11.29,36.5,23.58,42.47,29.9a10.14,10.14,0,0,0,6.94,3.19,7.43,7.43,0,0,0,7.34-5c3.38-9.87-.19-34.71-11.86-47.5-8.77-9.61-23.28-18.93-42-27-20.53-8.81-45.71-15.78-72.83-20.16-58.71-9.48-108.24,3.39-121.83,10.71-14.24,7.68-20.17,27.16-20.69,38.38a21.29,21.29,0,0,0,6.5,15.91,34.18,34.18,0,0,1,16.33-11.82C129.59,169.41,154.72,162.93,191.51,162.93Z"/><path class="cls-2" d="M177,285.34a28.49,28.49,0,0,0-18.34,17,15,15,0,0,0,1.8,14.3c2.51,3.4,9.13,7,17.07,7,18.14,0,23.7-8.19,22.08-17.31C198.1,297.64,186.55,285.34,177,285.34Z"/><path class="cls-11" d="M192.13,307.91a3.34,3.34,0,0,1,4.25,4c-1.39,5.31-6.92,9.32-18.61,9.32-6.74,0-12.36-3-14.49-5.91a12.17,12.17,0,0,1-1.71-3.24,3.34,3.34,0,0,1,4.21-4.22h0a43,43,0,0,0,26.08.14Z"/><path class="cls-2" d="M177.77,323.15c-7.62,0-13.65-3.47-16-6.69a14.09,14.09,0,0,1-2-3.75,5.17,5.17,0,0,1,1.21-5.34,5.26,5.26,0,0,1,5.41-1.34,40.83,40.83,0,0,0,24.92.13l.26-.08a5.28,5.28,0,0,1,5.22,1.22,5.16,5.16,0,0,1,1.46,5.1C195.79,321.75,184.37,323.15,177.77,323.15Zm-13-13.54a1.48,1.48,0,0,0-1,.44,1.33,1.33,0,0,0-.32,1.4,10.26,10.26,0,0,0,1.44,2.73c1.84,2.49,7,5.14,12.94,5.14,9.47,0,15.42-2.8,16.75-7.88a1.36,1.36,0,0,0-.39-1.35,1.42,1.42,0,0,0-1.42-.34l-.26.08a44.64,44.64,0,0,1-27.25-.14A1.46,1.46,0,0,0,164.74,309.61Z"/><path class="cls-12" d="M100.84,185.44a34.18,34.18,0,0,1,16.34-11.83c14-4.74,44.26-12.4,89.2-10.34C244.48,165,278.25,173,306.74,187c23,11.29,36.5,23.58,42.47,29.9a10.15,10.15,0,0,0,6.94,3.19,7.45,7.45,0,0,0,7.34-5,17.51,17.51,0,0,0,.48-1.72c-9.45-11.68-54.71-59.8-161.87-64.72-66.67-3.06-98.67,13.29-107.62,18.93-.06.68-.11,1.34-.14,2A21.16,21.16,0,0,0,100.84,185.44Z"/></svg>