<svg id="Layer_1" data-name="Layer 1" xmlns="http://www.w3.org/2000/svg" xmlns:xlink="http://www.w3.org/1999/xlink" viewBox="0 0 450 450"><defs><style>.cls-1{fill:#625f70;}.cls-2{fill:#575266;}.cls-3{fill:#eaccbb;}.cls-4{fill:#fcecd9;}.cls-5{fill:#f2d6c2;}.cls-6{fill:#f6e1cf;}.cls-7{fill:#edb2a4;}.cls-8{fill:#fff1d9;}.cls-9{fill:#f78d8d;}.cls-10{fill:url(#linear-gradient);}.cls-11{fill:url(#linear-gradient-2);}.cls-12{fill:url(#linear-gradient-3);}.cls-13{fill:url(#linear-gradient-4);}</style><linearGradient id="linear-gradient" x1="102.67" y1="138.2" x2="339.23" y2="138.2" gradientUnits="userSpaceOnUse"><stop offset="0.09" stop-color="#ed6e6e" stop-opacity="0"/><stop offset="0.17" stop-color="#ed6e6e" stop-opacity="0.09"/><stop offset="0.75" stop-color="#ed6e6e" stop-opacity="0.74"/><stop offset="1" stop-color="#ed6e6e"/></linearGradient><linearGradient id="linear-gradient-2" x1="105.53" y1="159.57" x2="335.34" y2="159.57" gradientUnits="userSpaceOnUse"><stop offset="0" stop-color="#dd5b5b" stop-opacity="0"/><stop offset="0.08" stop-color="#dd5b5b" stop-opacity="0.16"/><stop offset="0.2" stop-color="#dd5b5b" stop-opacity="0.38"/><stop offset="0.33" stop-color="#dd5b5b" stop-opacity="0.57"/><stop offset="0.46" stop-color="#dd5b5b" stop-opacity="0.72"/><stop offset="0.59" stop-color="#dd5b5b" stop-opacity="0.85"/><stop offset="0.72" stop-color="#dd5b5b" stop-opacity="0.93"/><stop offset="0.86" stop-color="#dd5b5b" stop-opacity="0.98"/><stop offset="1" stop-color="#dd5b5b"/></linearGradient><linearGradient id="linear-gradient-3" x1="116.3" y1="195.81" x2="166.95" y2="218.11" gradientUnits="userSpaceOnUse"><stop offset="0" stop-color="#fff" stop-opacity="0.75"/><stop offset="0.02" stop-color="#fff" stop-opacity="0.66"/><stop offset="0.06" stop-color="#fff" stop-opacity="0.51"/><stop offset="0.1" stop-color="#fff" stop-opacity="0.39"/><stop offset="0.15" stop-color="#fff" stop-opacity="0.28"/><stop offset="0.2" stop-color="#fff" stop-opacity="0.2"/><stop offset="0.25" stop-color="#fff" stop-opacity="0.14"/><stop offset="0.32" stop-color="#fff" stop-opacity="0.11"/><stop offset="0.43" stop-color="#fff" stop-opacity="0.1"/><stop offset="0.47" stop-color="#fff" stop-opacity="0.13"/><stop offset="0.53" stop-color="#fff" stop-opacity="0.23"/><stop offset="0.61" stop-color="#fff" stop-opacity="0.38"/><stop offset="0.67" stop-color="#fff" stop-opacity="0.5"/><stop offset="0.95" stop-color="#fff" stop-opacity="0.5"/><stop offset="1" stop-color="#fff" stop-opacity="0.5"/></linearGradient><linearGradient id="linear-gradient-4" x1="199.12" y1="194.28" x2="246.14" y2="214.78" xlink:href="#linear-gradient-3"/></defs><title>chong</title><path class="cls-1" d="M319.32,138.05s-2.52,36.6,6,59c9,23.74,28.53,42.49,62.65,66,0,0-27.51,92.46-185.15,92.46-146.22,0-141.1-120.9-141.1-120.9s43.5-25.59,64-96.59l10.24-39.66s8.26-41.58,46.67-41.58c0,0,17.46.16,25.94,8.64,0,0,20.47-17.27,52.46-10.87S319.32,92.63,319.32,138.05Z"/><path class="cls-2" d="M202.77,358.11c-48.65,0-86-13.23-111-39.32-17.93-18.7-25.85-40.59-29.33-55.65-3.78-16.32-3.33-28.11-3.31-28.6l.06-1.39,1.2-.71c.1-.06,10.82-6.48,23.85-21.35,12-13.71,28.54-37.63,38.94-73.72l10.21-39.56a67.53,67.53,0,0,1,9.29-21.62c9.48-14.35,23.27-21.94,39.87-21.94.73,0,16.61.24,26.07,7.88,5.78-4.11,25-15.63,52.82-10.07,16.68,3.34,31.86,13.31,42.74,28.1,11.57,15.72,17.69,35.74,17.69,57.89v.18c0,.36-2.38,36.31,5.8,57.94S353.17,236,389.38,261l1.53,1.05-.53,1.78c-.29,1-7.4,24.1-34.23,47.43-15.68,13.63-34.89,24.49-57.09,32.27C271.41,353.2,239,358.11,202.77,358.11Zm-138.56-122c0,7.77,1.62,48.32,31.29,79.23,24,25,60.1,37.69,107.27,37.69,35.67,0,67.49-4.81,94.59-14.3,21.59-7.56,40.23-18.09,55.42-31.3,21.6-18.79,29.93-37.62,32.08-43.3C348.8,239,331.36,220.4,322.88,198s-6.29-57.52-6.12-60c0-21-5.79-40-16.7-54.77-10.13-13.76-24.2-23-39.62-26.12C230,51,210.33,67.23,210.14,67.4l-1.8,1.52-1.66-1.66c-7.62-7.62-24-7.88-24.15-7.89-15,0-27,6.61-35.58,19.64a62.83,62.83,0,0,0-8.56,19.88l0,.14-10.25,39.73c-10.71,37.14-27.77,61.77-40.2,75.91C76.83,227.26,67.5,233.91,64.22,236.07Z"/><path class="cls-2" d="M326.88,243.45c-5.79,5.78-13.64,6.34-21.24,3.47a.76.76,0,0,1-.44-1h0a.75.75,0,0,1,.93-.48c5.87,1.94,12.91-1.1,17.31-5.51a16.07,16.07,0,0,0-11.36-27.42v-4.88a20.94,20.94,0,0,1,14.79,35.77Z"/><path class="cls-3" d="M306.13,245.49c5.87,1.94,12.91-1.1,17.31-5.51a16.07,16.07,0,0,0-11.36-27.42Z"/><path class="cls-4" d="M137.92,132.29l-20.34,64.55a58.85,58.85,0,0,0-2.32,24.45c1,8.3-2.62,20-.39,33.22,3.76,22.36,14.62,49.12,23,71.3l43.18,21.68,80.6-15.93L311.59,267V228.56l-17.27-96.27L191.65,115.68Z"/><path class="cls-5" d="M261.69,331.57,311.59,267V228.56l-17.27-96.27L191.65,115.68l-53.73,16.61-11.63,36.92S156.51,154,182.55,154s64.29,3.48,80.14,15.17a83.67,83.67,0,0,1,5.18,28.23s15.82,11.62,14.09,31.44c-1.34,15.36-13.42,22.55-23.16,25a23.91,23.91,0,0,0-12.95,8.28l-.62.78a23.2,23.2,0,0,0-5.13,14.94c.15,8.71-.28,22.27-3.6,32.66Z"/><path class="cls-2" d="M180.73,350.18l-44.85-22.52-.35-.93q-1.41-3.7-2.89-7.56c-7.92-20.67-16.91-44.09-20.29-64.22-1.36-8.07-.66-15.44,0-21.94.42-4.42.78-8.23.41-11.41a61,61,0,0,1,2.42-25.52l20.74-65.83,55.59-17.19.59.1,104.46,16.9,17.63,98.27v39.51l-51,66.05ZM140,324l41.5,20.84,78.8-15.57L309,266.09V228.79l-16.91-94.26L191.83,118.3l-51.88,16L120,197.61A56,56,0,0,0,117.8,221c.43,3.71,0,8-.4,12.48-.59,6.19-1.25,13.2,0,20.61,3.3,19.62,12.18,42.79,20,63.23Z"/><path class="cls-5" d="M175.5,156.18A.76.76,0,0,1,177,156a43.25,43.25,0,0,1,1.06,11.26A13,13,0,0,1,171.32,178a39.93,39.93,0,0,1-22.09,4.91l-6.52-3.43s20,1.07,27.6-8C174.31,166.68,175.38,160.75,175.5,156.18Z"/><path class="cls-5" d="M187.68,156.18a.76.76,0,0,0-1.49-.14,43.25,43.25,0,0,0-1.06,11.26A13,13,0,0,0,191.86,178a39.93,39.93,0,0,0,22.09,4.91l6.52-3.43s-20,1.07-27.6-8C188.87,166.68,187.8,160.75,187.68,156.18Z"/><path class="cls-6" d="M145.29,175.18a37.3,37.3,0,1,0,37.3,37.3A37.34,37.34,0,0,0,145.29,175.18Z"/><path class="cls-6" d="M231.9,175.26a37.3,37.3,0,1,0,37.3,37.3A37.34,37.34,0,0,0,231.9,175.26Z"/><path class="cls-7" d="M202.18,267a19.63,19.63,0,0,1-39.26,0l13.87-10.57h8.13Z"/><path class="cls-2" d="M182.55,289.16A22.22,22.22,0,0,1,160.36,267V265.7l15.57-11.86h9.72l19.09,11.7V267A22.22,22.22,0,0,1,182.55,289.16Zm-17-21a17.07,17.07,0,0,0,34,.16L184.2,259h-6.55Z"/><path class="cls-1" d="M126.28,369.85c-23.78-20.71-24.59-50.63-22.47-82.1a634.45,634.45,0,0,1,9.54-74.9,116.09,116.09,0,0,1,3.6-14.08l.63-1.93a64.8,64.8,0,0,0-2.32,24.45c1.32,17.4,2,29.72,6.94,47.73a8.37,8.37,0,0,0,12.4,5h0s-.64,24.52,17.27,31.45c19.39,7.5,30.64-4.89,30.64-4.89s12.22,13.34,29.7,6.17c12.47-5.12,16.42-27.14,16.42-27.14,6.4,19.68,23.86,21.14,31.49,18.94A27.08,27.08,0,0,0,275,287.35c27.88-42,24-75.09,24-75.09,0-17.91-16-58.21-16-58.21l24.31,7.68,9.09,48.67A170.83,170.83,0,0,1,319.29,245c-.33,17.7.38,45-1.23,66.62a101.19,101.19,0,0,1-18.17,51A80.2,80.2,0,0,1,288.13,376c-18.93,16.93-47.24,19.28-84.4,20.76a110,110,0,0,1-77.45-26.93Z"/><path class="cls-2" d="M199.24,399.43a112.4,112.4,0,0,1-74.63-27.65h0c-25.29-22-25.4-53.68-23.34-84.2a641.79,641.79,0,0,1,9.58-75.2A119.25,119.25,0,0,1,114.52,198l.63-1.93,4.88,1.56c-2.16,6.87-2.89,14.55-2.21,23.49l.23,3.08c1.19,15.95,2.05,27.47,6.63,44.16a5.81,5.81,0,0,0,8.61,3.45l4-2.43-.12,4.68c0,.22-.35,22.81,15.64,29,17.55,6.79,27.72-4.11,27.83-4.22l1.89-2.08,1.9,2.07c.45.48,11.28,11.91,26.84,5.53,5.61-2.3,9.33-8.89,11.46-14a61.38,61.38,0,0,0,3.41-11.21l1.81-10,3.15,9.67c6.18,19,23,18.83,28.34,17.27a24.52,24.52,0,0,0,13.49-10.12c27-40.76,23.6-73.06,23.56-73.38l0-.3c0-17.22-15.65-56.87-15.81-57.27l-2-5,30.91,9.76,9.37,50.18A173.75,173.75,0,0,1,321.85,245c-.1,5.46-.1,11.91-.11,18.73,0,15.48,0,33-1.13,48A103.72,103.72,0,0,1,302,364.11a82.63,82.63,0,0,1-12.14,13.82c-19.53,17.46-48,19.89-86,21.41Q201.54,399.43,199.24,399.43ZM128,367.92a107.43,107.43,0,0,0,75.67,26.3c37-1.48,64.54-3.78,82.79-20.11a77.55,77.55,0,0,0,11.38-13,98.59,98.59,0,0,0,17.7-49.75c1.11-14.81,1.11-32.26,1.12-47.65,0-6.85,0-13.32.11-18.83a168.7,168.7,0,0,0-2.83-34.06l-8.81-47.16-17.78-5.62c4.28,11.42,14.2,39.41,14.26,54,.3,2.84,3,35.37-24.4,76.65A29.64,29.64,0,0,1,260.84,301a28.06,28.06,0,0,1-31.58-13.63c-2.37,7.36-7.23,18.12-16.07,21.74-14.82,6.08-26.32-1.45-30.67-5.07a29.13,29.13,0,0,1-18.4,6.43A36.33,36.33,0,0,1,151,307.82c-8.09-3.13-13.93-10-16.88-20a50.7,50.7,0,0,1-1.88-10.25,11,11,0,0,1-12.45-7.89c-4.32-15.76-5.45-27.46-6.51-41.36-3.91,24-5.87,45.11-6.85,59.58-2,29.24-1.93,59.51,21.59,80Z"/><path class="cls-1" d="M177.3,252.33c2.63,7.35-1.77,14.18-8.53,18.07-19.13,11-44.65,9-44.65,9s13.69-26.16,35.11-35.64C166.36,240.64,174.66,245,177.3,252.33Z"/><path class="cls-2" d="M129.08,282.15c-3,0-4.88-.14-5.16-.16l-3.87-.3,1.8-3.44c.58-1.1,14.35-27.06,36.34-36.79a15.05,15.05,0,0,1,12.14,0,17.2,17.2,0,0,1,9.37,10c2.81,7.85-1,16.15-9.66,21.15C155.5,281,137.71,282.15,129.08,282.15Zm-.59-5.14h.27c8,0,25.17-1,38.74-8.82,5.12-2.95,9.75-8.44,7.4-15a12.07,12.07,0,0,0-6.58-7,10,10,0,0,0-8.05-.05C144.56,253.09,133,269.66,128.49,277Z"/><path class="cls-5" d="M246.93,212.72a18.65,18.65,0,1,1-35.38-8.26Z"/><path class="cls-5" d="M121.25,210.24A18.65,18.65,0,1,0,156.62,202Z"/><path class="cls-1" d="M183.32,252.33c-2.63,7.35,2.83,14.56,10.85,18.9,22.7,12.3,52.05,11.69,52.05,11.69S229,255.49,203.72,244.63C195.3,241,186,245,183.32,252.33Z"/><path class="cls-2" d="M245.36,285.49c-5.29,0-31.37-.61-52.4-12-10.14-5.49-14.86-14.14-12-22a16.22,16.22,0,0,1,8.89-9.23,18.87,18.87,0,0,1,14.92,0c25.7,11,42.95,38.13,43.67,39.28l2.41,3.83-4.52.09Zm-48.19-39.65a13.34,13.34,0,0,0-5.32,1.09,11.1,11.1,0,0,0-6.12,6.26c-1.46,4.08.19,10.66,9.66,15.79,16.41,8.89,36.7,10.85,45.87,11.27-5.78-7.9-20.06-25.32-38.56-33.27A14,14,0,0,0,197.17,245.84Z"/><path class="cls-1" d="M197.51,173.29h0a21.51,21.51,0,0,0-2.51,14.9h0a5.26,5.26,0,0,0,4.35,4.19,319,319,0,0,0,39.11,3.78,5.9,5.9,0,0,0,5.31-3.09h0a9.55,9.55,0,0,0,.9-6.75l-.09-.37a5.88,5.88,0,0,0-2.94-3.83c-5.18-2.78-18.74-9.07-39-11.41A5.23,5.23,0,0,0,197.51,173.29Z"/><path class="cls-1" d="M166.27,173.29h0a21.51,21.51,0,0,1,2.51,14.9h0a5.26,5.26,0,0,1-4.35,4.19,319,319,0,0,1-39.11,3.78,5.9,5.9,0,0,1-5.31-3.09h0a9.55,9.55,0,0,1-.9-6.75l.09-.37a5.88,5.88,0,0,1,2.94-3.83c5.18-2.78,18.74-9.07,39-11.41A5.23,5.23,0,0,1,166.27,173.29Z"/><path class="cls-2" d="M212.33,201.75l.48-.59a5,5,0,0,1,5.16-1.68c6.23,1.6,20,6.28,28.71,12.77a1.83,1.83,0,0,1,.54,2.31h0a1.82,1.82,0,0,1-2.23.89c-4.23-1.49-16.78-5.52-28.63-5.34a5.09,5.09,0,0,1-4.35-2.25h0A5.15,5.15,0,0,1,212.33,201.75Z"/><path class="cls-2" d="M155.84,199.28l-.48-.59A5,5,0,0,0,150.2,197c-6.23,1.6-20,6.28-28.71,12.77a1.83,1.83,0,0,0-.54,2.31h0a1.82,1.82,0,0,0,2.23.89c4.23-1.49,16.78-5.52,28.63-5.34a5.09,5.09,0,0,0,4.35-2.25h0A5.15,5.15,0,0,0,155.84,199.28Z"/><path class="cls-8" d="M142.71,242.9a35.46,35.46,0,1,1,35.46-35.46A35.5,35.5,0,0,1,142.71,242.9Zm0-67.08a31.62,31.62,0,1,0,31.62,31.62A31.65,31.65,0,0,0,142.71,175.82Z"/><path class="cls-8" d="M229.3,242.9a35.46,35.46,0,1,1,35.46-35.46A35.5,35.5,0,0,1,229.3,242.9Zm0-67.08a31.62,31.62,0,1,0,31.62,31.62A31.65,31.65,0,0,0,229.3,175.82Z"/><path class="cls-8" d="M198.73,201.82l-3-.76a44.56,44.56,0,0,0-22.6.12l-1-3.71a48.37,48.37,0,0,1,24.55-.13l3,.76Z"/><path class="cls-8" d="M320.32,211.28a1.92,1.92,0,0,1-.36,0c-.38-.07-38.47-7.28-57.42-8.82a1.92,1.92,0,1,1,.31-3.83c19.16,1.56,57.44,8.8,57.83,8.88a1.92,1.92,0,0,1-.36,3.81Z"/><path class="cls-9" d="M111.58,172s-8.92-7.87-8.92-22.78,4.92-38.59,17.22-48.74S174.81,73.06,224.82,81s85.53,28.56,101.11,50c11,15.16,15.19,45.57,12.53,58.08-1.06,5-4.39,8.43-8.17,8.43h0a9.61,9.61,0,0,1-7.57-4.21c-10.12-13.43-47.12-54.35-122.49-54.35-37.48,0-62.43,10-74.93,16.73-5.81,3.12-10.66,8.91-13.71,16.4Z"/><path class="cls-10" d="M111.58,172s-8.92-7.87-8.92-22.78,4.92-38.59,17.22-48.74S174.81,73.06,224.82,81s85.53,28.56,101.11,50c11,15.16,15.19,45.57,12.53,58.08-1.06,5-4.39,8.43-8.17,8.43h0a9.61,9.61,0,0,1-7.57-4.21c-10.12-13.43-47.12-54.35-122.49-54.35-37.48,0-62.43,10-74.93,16.73-5.81,3.12-10.66,8.91-13.71,16.4Z"/><path class="cls-2" d="M330.29,200a12.05,12.05,0,0,1-9.61-5.23c-9.42-12.51-46-53.33-120.45-53.33-37.52,0-62.29,10.29-73.72,16.42-5.28,2.83-9.73,8.2-12.55,15.11l-1.36,3.34-2.7-2.39c-.4-.35-9.78-8.81-9.78-24.7a96.05,96.05,0,0,1,4.11-26.9c2.28-7.46,6.57-17.64,14-23.8,6.07-5,19.59-12.12,39.33-17a171.62,171.62,0,0,1,67.63-3.05c23.76,3.75,46,10.72,64.24,20.17,16.9,8.74,30.22,19.4,38.54,30.83,11.55,15.89,15.76,46.94,13,60.12C339.63,195.8,335.34,200,330.29,200ZM200.22,136.33c32.76,0,62,7.57,87,22.5,20.17,12,32.15,25.76,37.5,32.87a7.09,7.09,0,0,0,5.52,3.19c2.54,0,4.87-2.63,5.67-6.41,2.55-12-1.5-41.47-12.1-56-7.85-10.79-20.56-20.92-36.75-29.3-17.79-9.2-39.47-16-62.69-19.66-50.18-7.92-91.68,9.72-102.91,19-6.55,5.4-16.29,22.31-16.29,46.76a30.47,30.47,0,0,0,5.69,18.13,32.85,32.85,0,0,1,13.16-14C135.93,147,161.59,136.33,200.22,136.33Z"/><path class="cls-11" d="M335.34,189.9c-11-16-51.84-65.2-139.32-65.2-55.51,0-82.26,19.82-90.48,27.42a29.34,29.34,0,0,0,5.37,14.76,33.08,33.08,0,0,1,13.19-14c11.85-6.36,37.5-17,76.13-17,32.75,0,62,7.57,87,22.5,20.2,12.06,32.21,25.81,37.57,32.93a7,7,0,0,0,5.46,3.13C332.38,194.44,334.33,192.64,335.34,189.9Z"/><path class="cls-12" d="M142.71,175.82a31.62,31.62,0,1,0,31.62,31.62A31.65,31.65,0,0,0,142.71,175.82Z"/><path class="cls-13" d="M229.3,175.82a31.62,31.62,0,1,0,31.62,31.62A31.65,31.65,0,0,0,229.3,175.82Z"/></svg>