<svg id="Layer_1" data-name="Layer 1" xmlns="http://www.w3.org/2000/svg" xmlns:xlink="http://www.w3.org/1999/xlink" viewBox="0 0 450 450"><defs><style>.cls-1{fill:#a5928b;}.cls-2{fill:#575266;}.cls-3{fill:url(#linear-gradient);}.cls-4{fill:#5b423e;opacity:0.2;}.cls-5{fill:url(#linear-gradient-2);}.cls-6{fill:#fcecd9;}.cls-7{fill:#f2d6c2;}.cls-8{fill:#e5c2aa;}.cls-9{fill:none;}.cls-10{fill:#ffc6c0;}.cls-11{fill:#f49f98;}.cls-12{fill:#625f70;}.cls-13{fill:#f78d8d;}.cls-14{fill:#66707f;}.cls-15{fill:url(#linear-gradient-3);}.cls-16{fill:url(#linear-gradient-4);}.cls-17{fill:url(#linear-gradient-5);}.cls-18{fill:url(#linear-gradient-6);}</style><linearGradient id="linear-gradient" x1="226.62" y1="416.19" x2="226.62" y2="234.8" gradientUnits="userSpaceOnUse"><stop offset="0.07" stop-color="#5b423e" stop-opacity="0"/><stop offset="0.24" stop-color="#5b423e" stop-opacity="0.1"/><stop offset="0.51" stop-color="#5b423e" stop-opacity="0.37"/><stop offset="0.86" stop-color="#5b423e" stop-opacity="0.8"/><stop offset="1" stop-color="#5b423e"/></linearGradient><linearGradient id="linear-gradient-2" x1="67.86" y1="192.67" x2="228.38" y2="192.67" xlink:href="#linear-gradient"/><linearGradient id="linear-gradient-3" x1="142.26" y1="299.9" x2="258.98" y2="299.9" gradientUnits="userSpaceOnUse"><stop offset="0" stop-color="#a5928b" stop-opacity="0"/><stop offset="0.02" stop-color="#ac9e99" stop-opacity="0.09"/><stop offset="0.06" stop-color="#b7b1b0" stop-opacity="0.22"/><stop offset="0.1" stop-color="#c0bfc1" stop-opacity="0.32"/><stop offset="0.14" stop-color="#c4c7cb" stop-opacity="0.38"/><stop offset="0.19" stop-color="#c6cace" stop-opacity="0.4"/><stop offset="0.53" stop-color="#a5928b" stop-opacity="0"/><stop offset="0.56" stop-color="#a99993" stop-opacity="0.04"/><stop offset="0.62" stop-color="#b4aba9" stop-opacity="0.17"/><stop offset="0.7" stop-color="#c5c9cc" stop-opacity="0.36"/><stop offset="0.7" stop-color="#c6cace" stop-opacity="0.37"/><stop offset="0.79" stop-color="#c5c8cb" stop-opacity="0.35"/><stop offset="0.85" stop-color="#c0c1c3" stop-opacity="0.31"/><stop offset="0.91" stop-color="#b9b4b4" stop-opacity="0.23"/><stop offset="0.96" stop-color="#afa3a0" stop-opacity="0.11"/><stop offset="1" stop-color="#a5928b" stop-opacity="0"/></linearGradient><linearGradient id="linear-gradient-4" x1="255.38" y1="291.19" x2="192.08" y2="155.22" gradientTransform="translate(90.79 -73.41) rotate(-1.56)" xlink:href="#linear-gradient"/><linearGradient id="linear-gradient-5" x1="127.45" y1="181.92" x2="177.42" y2="204.48" gradientUnits="userSpaceOnUse"><stop offset="0" stop-color="#575266" stop-opacity="0"/><stop offset="0.11" stop-color="#7d7b87" stop-opacity="0.5"/><stop offset="0.36" stop-color="#575266" stop-opacity="0"/><stop offset="0.37" stop-color="#575266" stop-opacity="0.1"/><stop offset="0.43" stop-color="#575266" stop-opacity="0.38"/><stop offset="0.49" stop-color="#575266" stop-opacity="0.61"/><stop offset="0.56" stop-color="#575266" stop-opacity="0.78"/><stop offset="0.64" stop-color="#575266" stop-opacity="0.91"/><stop offset="0.75" stop-color="#575266" stop-opacity="0.98"/><stop offset="1" stop-color="#575266"/></linearGradient><linearGradient id="linear-gradient-6" x1="224.82" y1="182.17" x2="292.52" y2="213.6" xlink:href="#linear-gradient-5"/></defs><title>dude</title><path class="cls-1" d="M67.92,273.37c-1.21-44.52,19.24-65.06,19.24-65.06,19.67-30.2,22.34-35.56,32.67-54.76,6.76-12.58,15.87-30.46,18-44.59h0l90.55-30.51,33.93-7.37,53.61,9.68c64.55,61.12,71.54,139.42,69,184.88l-.38,10.52A118.34,118.34,0,0,1,307,383h0a233.74,233.74,0,0,1-160.41.06l-.87-.32A118.34,118.34,0,0,1,67.92,273.37h0"/><path class="cls-2" d="M226.67,399.78a236.32,236.32,0,0,1-81-14.3l-.87-.32A120.9,120.9,0,0,1,65.36,273.43c-1.18-43.27,17.51-64.32,19.79-66.72,18.4-28.27,21.79-34.56,30.78-51.31l1.65-3.06c7.2-13.39,15.73-30.47,17.73-43.76l.23-1.54L227.84,76l34.43-7.48,54.87,9.9.55.52A218.67,218.67,0,0,1,378,178.36c9.92,34.34,10.62,66.5,9.46,87.42l-.38,10.47a120.9,120.9,0,0,1-79.29,109.17A236.35,236.35,0,0,1,226.67,399.78ZM140.1,110.9c-2.5,13.79-10.9,30.61-18,43.86l-1.64,3.06c-9.09,16.92-12.49,23.26-31.13,51.89l-.14.22-.19.19c-.19.2-19.66,20.44-18.49,63.19v0a115.78,115.78,0,0,0,76.08,107l.87.32a231.49,231.49,0,0,0,158.66-.06A115.78,115.78,0,0,0,382,276.07l.38-10.52c1.14-20.58.46-52.12-9.26-85.77a213.6,213.6,0,0,0-58.41-96.64l-52.36-9.45-33.3,7.24Z"/><path class="cls-3" d="M67.92,273.37c-1.21-44.52,19.24-65.06,19.24-65.06,19.67-30.2,22.34-35.56,32.67-54.76,6.76-12.58,15.87-30.46,18-44.59h0l90.55-30.51,33.93-7.37,53.61,9.68c64.55,61.12,71.54,139.42,69,184.88l-.38,10.52A118.34,118.34,0,0,1,307,383h0a233.74,233.74,0,0,1-160.41.06l-.87-.32A118.34,118.34,0,0,1,67.92,273.37h0"/><path class="cls-4" d="M329,301a75.15,75.15,0,0,0,20.42-30.85c3.18-9.25,5-20.34,1.74-31.18-.91-3-2.43-8.2-4.22-14.3a265.85,265.85,0,0,0-47.51-91.05h0s-24-18.89-58-18.74S198.56,126,195.78,129c-2.09,2.25-9.12,9.43-17.19,24.69-9.82,18.58-12.68,23.08-25.7,43.12,0,0-23.7,19.73-22.68,57.29.48,17.57,9.74,34.71,15.75,40,0,0,2.15,2.11,5.59,5.45a296.72,296.72,0,0,0,14,65.72,152.22,152.22,0,0,0,28.07,2.85c23.06.21,24.7,1.81,43.47-.18,11.61-7.37,13.08-9.77,20.13-21.46C274.82,338.32,307.58,320.63,329,301Z"/><path class="cls-1" d="M228.38,78.46,137.83,109h0c-2.13,14.12-11.25,32-18,44.59-10.32,19.2-13,24.56-32.67,54.76,0,0-20.45,20.54-19.24,65.06.3,11.13-.05,22.37,6.3,36.36,0,0-11.46-53.17,49.5-82.06S228.38,78.46,228.38,78.46Z"/><path class="cls-2" d="M81.74,332.5l-9.86-21.71c-6-13.19-6.23-23.94-6.45-34.33,0-1,0-2-.07-3-1.18-43.28,17.51-64.34,19.79-66.74,18.4-28.27,21.79-34.56,30.78-51.31l1.65-3.06c7.2-13.39,15.73-30.47,17.73-43.76l.23-1.54,97.07-32.7-1.81,5a515.21,515.21,0,0,1-29.64,64.13c-24.88,45.19-50.56,74.3-76.34,86.52-24.59,11.65-40.14,28.56-46.24,50.25-4.53,16.11-1.88,28.84-1.85,29ZM140.1,110.9c-2.5,13.79-10.9,30.61-18,43.86l-1.64,3.06c-9.09,16.92-12.49,23.26-31.13,51.89l-.14.22-.19.19c-.19.2-19.66,20.44-18.49,63.19,0,1,0,2,.07,3a131.46,131.46,0,0,0,.81,13.88,76.47,76.47,0,0,1,2.29-11.39c4.48-15.94,16.62-38.15,49-53.49,24.43-11.57,50-40.72,74-84.3A523.14,523.14,0,0,0,224,82.62Z"/><path class="cls-5" d="M228.38,78.46,137.83,109h0c-2.13,14.12-11.25,32-18,44.59-9.23,17.17-12.35,23.27-27,46-2.68,4.15-5.53,8.19-8.48,12.16-5.54,7.45-17.4,27.5-16.47,61.71a70.87,70.87,0,0,0,9.45,33.5s-14.62-50.32,46.34-79.21S228.38,78.46,228.38,78.46Z"/><path class="cls-6" d="M115.43,245.5c.48,17.57,9.74,34.71,15.75,40,0,0,47.79,46.77,53.73,49.73l41.65,8.24s48.78-15.49,87.7-51.12a75.15,75.15,0,0,0,20.42-30.85c3.18-9.25,5-20.34,1.74-31.18-.91-3-2.43-8.2-4.22-14.3A265.85,265.85,0,0,0,284.7,125h0s-24-18.89-58-18.74-50.23,11.34-53,14.34c-2.09,2.25-9.12,9.43-17.19,24.69-9.82,18.58-5.4,22.89-18.43,42.92C138.1,188.21,114.4,207.94,115.43,245.5Z"/><path class="cls-7" d="M252.72,333.57l-6.38-12.84-4.79-7.39,7.12-9.38c6.61-11.32,12-11.09,10.46-25.27-1.65-15.43-4.15-23.19-4.15-23.19,53.52,0,66-31.68,61.9-57.42-4.86-30.63-48.7-18.74-48.7-18.74h0c1.78-17.48-6.35-34.9-19.27-47.61a52.58,52.58,0,0,0-50.69-13h0l-.13,0a80.78,80.78,0,0,0-29.85,15.18l-.14.11,8.1-17.45L198.05,110c6.7-2.11,15.93-3.69,28.68-3.75,34-.15,58,18.74,58,18.74h0c21.6,27,51.64,48.75,61.41,81.9,1.8,6.1-10.59,20.4-9.68,23.45,7.75,26-13.39,53.46-13.39,53.46a209.77,209.77,0,0,1-34.35,28.6Z"/><path class="cls-8" d="M265.32,263.58A103.83,103.83,0,0,0,255,255.51a104.09,104.09,0,0,1,8.73,10c0,28.31-5,51-11,68.08,4.76-2.22,10-4.82,15.57-7.82C270.15,308.87,270,288,265.32,263.58Z"/><path class="cls-2" d="M226.71,346.14l-42.64-8.44-.31-.15c-6.11-3-49.2-45.13-54.33-50.15-6.64-5.92-16.07-23.69-16.56-41.83h0c-1-36.47,20.31-56.45,23.29-59.06,6.93-10.72,8.68-16.77,10.53-23.16a89.34,89.34,0,0,1,7.58-19.25c7.81-14.78,14.65-22.1,17.22-24.86l.35-.38c3.86-4.17,21.24-15,54.87-15.16h.41c34.28,0,58.15,18.5,59.15,19.29l.23.18.18.23a267.14,267.14,0,0,1,48,91.93c1.8,6.1,3.32,11.24,4.22,14.29,2.92,9.82,2.32,20.84-1.78,32.75A77.9,77.9,0,0,1,316,294.27c-38.88,35.6-88.16,51.51-88.65,51.67Zm-40.92-13.32,40.61,8c5.73-1.93,50.44-17.68,86.14-50.36a72.77,72.77,0,0,0,19.73-29.8c3.75-10.88,4.32-20.84,1.71-29.62-.91-3-2.43-8.2-4.23-14.3a262,262,0,0,0-46.85-89.93c-2.44-1.82-25-18-55.78-18h-.38c-14.05.06-27,2.11-37.34,5.94-8.45,3.12-12.83,6.53-13.8,7.58l-.37.39c-2.45,2.62-8.94,9.58-16.44,23.75a85,85,0,0,0-7.19,18.28c-2,6.83-3.85,13.29-11.36,24.84l-.21.32-.3.25c-.22.19-22.73,19.47-21.76,55.25.29,10.48,5.75,30.1,14.88,38.17l.1.09C151,301.33,180.83,329.84,185.79,332.82Z"/><path class="cls-7" d="M290.92,186.3v5.26a312.84,312.84,0,0,1,36,11l1.8-4.79A318.09,318.09,0,0,0,290.92,186.3Z"/><path class="cls-7" d="M140,189.93l-.3.25c-.17.14-12.53,10.75-18.56,30.76a31.08,31.08,0,0,0,7.76,6.81,32.45,32.45,0,0,0,19,4.61c17.94-1,39.31-8,46.58-33.48a52.37,52.37,0,0,1,14.35.37,44.89,44.89,0,0,0,5.47,13.45c6.67,10.67,17.92,17.15,33.45,19.25,20.88,2.83,37.18-1,48.45-11.26,9.79-8.94,11.95-19.45,11.94-20.72v-.17l0-.22s.14-1.47.3-3.39q0-.33,0-.66a10.31,10.31,0,0,0-7.61-10.18,397.31,397.31,0,0,0-85.71-13,13.79,13.79,0,0,0-8,12.71,65.73,65.73,0,0,0,.62,8.85,57.63,57.63,0,0,0-12.11-.32,73.28,73.28,0,0,0,1.06-8.1c.34-4.45-3.69-12-7.36-14.46-14.06.81-27.91,2.22-41.37,4.21a89.9,89.9,0,0,1-7.82,14.34Z"/><path class="cls-7" d="M193.91,154.37a.82.82,0,0,1,1.62-.16,47.07,47.07,0,0,1,1.16,12.25,14.12,14.12,0,0,1-7.33,11.62,43.46,43.46,0,0,1-24,5.34l-7.09-3.73s21.72,1.17,30-8.73C192.62,165.8,193.79,159.34,193.91,154.37Z"/><path class="cls-7" d="M207.17,154.37a.82.82,0,0,0-1.62-.16,47.07,47.07,0,0,0-1.16,12.25,14.12,14.12,0,0,0,7.33,11.62,43.46,43.46,0,0,0,24,5.34l7.09-3.73s-21.72,1.17-30-8.73C208.46,165.8,207.3,159.34,207.17,154.37Z"/><path class="cls-7" d="M205.94,237.17l-27.69,2.68-26.48,12.53S153,277,190.34,277,238,267.31,238,252.62Z"/><path class="cls-9" d="M164.28,271c-4.89,2.06-10.37,4.15-16.52,6.16,0,0,3,33.84,20.87,34.24,14.57.32,20.75-14.69,22.55-20.27a.38.38,0,0,1,.74.07c.68,5.86,4.32,21.79,23.93,21.25,24-.66,35-7.91,34.85-33.6a160.11,160.11,0,0,1-25.93-6.77c-7.4,3.19-18.43,5-34.42,5C178.26,277,170,274.46,164.28,271Z"/><path class="cls-7" d="M209.44,238.44l-.65.1L238,252.62c0,8.4-3.4,15.18-13.28,19.45a160.11,160.11,0,0,0,25.93,6.77c.11,25.69-10.83,32.94-34.85,33.6-19.61.54-23.26-15.39-23.93-21.25a.38.38,0,0,0-.74-.07c-1.79,5.58-8,20.59-22.55,20.27-17.89-.39-20.87-34.24-20.87-34.24,6.16-2,11.64-4.1,16.52-6.16a26.25,26.25,0,0,1-11.37-13.64,114.67,114.67,0,0,0-13.5,14.76l.21,7.73q.18,6.44.68,12.83c13.65,13.23,41.88,40.33,46.36,42.56l41.65,8.24s5.88-4.6,22.37-12.57c4.33-15.42,13.28-33.49,13.28-56C264,274.86,240.65,243.16,209.44,238.44Z"/><path class="cls-9" d="M168.1,254a29.2,29.2,0,0,0,13.09,8.83A172.9,172.9,0,0,1,164.28,271c5.7,3.49,14,6.07,26.06,6.07,16,0,27-1.79,34.42-5a112.2,112.2,0,0,1-19.61-8.95c12.6-3.35,16.58-11.07,16.58-11.07L207.31,241.9l-7-.51a32.21,32.21,0,0,1,8.46-2.85l-2.85-1.37-27.69,2.68-26.48,12.53a19.4,19.4,0,0,0,1.14,5c18-16.36,32.24-17.05,32.24-17.05Z"/><path class="cls-8" d="M207.31,241.9l14.41,10.15s-4,7.72-16.58,11.07a112.2,112.2,0,0,0,19.61,8.95c9.88-4.27,13.28-11,13.28-19.45l-29.26-14.08a32.21,32.21,0,0,0-8.46,2.85Z"/><path class="cls-8" d="M164.28,271a172.9,172.9,0,0,0,16.91-8.19A29.2,29.2,0,0,1,168.1,254l17-13.68s-14.26.69-32.24,17.05A26.25,26.25,0,0,0,164.28,271Z"/><path class="cls-10" d="M221.73,252.05s-6.5,12.8-29.59,12.6c-16.21-.14-24-10.7-24-10.7l17-13.68,22.17,1.62Z"/><path class="cls-2" d="M192.67,267.21h-.56c-17.29-.15-25.72-11.26-26.07-11.73l-1.47-2,19.75-15.85,23.88,1.75L225,251.24l-1,2C223.72,253.79,216.61,267.21,192.67,267.21Zm-20.85-13a29.33,29.33,0,0,0,20.34,7.85h.52c15.68,0,22.86-6.23,25.51-9.41l-11.76-8.29L186,242.9Z"/><path class="cls-11" d="M202.1,261.22c9.27-1.82,14-6.08,16.08-8.54l-11.76-8.29-10-.73c-.76.5-1.53,1-2.3,1.65,0,0-1.33-1-3-2l-5.1-.37-14.14,11.34A28.42,28.42,0,0,0,184.24,261a84,84,0,0,0,9.51-6.34A59.87,59.87,0,0,0,202.1,261.22Z"/><path class="cls-7" d="M341.52,199.79a17.79,17.79,0,1,1-28.42,20.28l3.44,2.81,7.38.94,11.86-11Z"/><path class="cls-2" d="M329.84,232.83c-8.1.22-14.08-4.87-17.44-12.25,0,0-.39-1,.13-1.26.68-.34,1.15.6,1.15.6,2.58,5.66,9.81,8.4,16,8.23a15.44,15.44,0,0,0,10.2-26.65l3.22-3.4a20.13,20.13,0,0,1-13.29,34.74Z"/><path class="cls-2" d="M345.25,140.19l.1.16Z"/><path class="cls-2" d="M322.12,192.36C247.88,164.49,176.71,170.8,140.89,177l-.88-5c36.33-6.33,108.53-12.73,183.9,15.56Z"/><path class="cls-12" d="M182.59,169.73h0a386.27,386.27,0,0,0-47.38,5.52c-16.95,3.08-24.93,23-14.57,36.75a28.38,28.38,0,0,0,7.86,7.15,29.79,29.79,0,0,0,17.31,4.22c13-.73,40.45-5.76,43.2-41.45A12.93,12.93,0,0,0,182.59,169.73Z"/><path class="cls-2" d="M144,226a31.92,31.92,0,0,1-16.81-4.65,31,31,0,0,1-8.57-7.79,25.42,25.42,0,0,1-3.35-24.72,25.77,25.77,0,0,1,19.51-16.09,387.57,387.57,0,0,1,47.69-5.56l.76,0,.66.38a15.57,15.57,0,0,1,7.7,14.6c-2.77,36-29.76,42.91-45.6,43.81Q145,226,144,226Zm37.94-53.65a382,382,0,0,0-46.25,5.44A20.69,20.69,0,0,0,120,190.69a20.34,20.34,0,0,0,2.67,19.78,25.93,25.93,0,0,0,7.16,6.51,27.07,27.07,0,0,0,15.82,3.85c17.31-1,38.44-8.56,40.79-39.09A10.43,10.43,0,0,0,181.93,172.33Z"/><path class="cls-13" d="M294.85,180.9a344.08,344.08,0,0,0-76-11.46h0a13.83,13.83,0,0,0-8.77,12.94c0,13.5,4.82,36.56,36.23,40.69,44.91,5.9,53.65-24.87,53.55-28.65,0,0,.12-1.2.26-2.79a11.54,11.54,0,0,0-5.29-10.74Z"/><path class="cls-2" d="M257.14,226.37a85.46,85.46,0,0,1-11.14-.76c-14.59-1.92-25.25-8-31.7-18-5.55-8.63-6.74-18.49-6.76-25.24a16.3,16.3,0,0,1,10.4-15.33l.5-.2.54,0a346.73,346.73,0,0,1,76.54,11.54l.38.1.33.21a14,14,0,0,1,6.46,13.12c-.11,1.3-.21,2.34-.25,2.69,0,2.93-2.72,12.53-11.49,20.44C284.86,220.47,274.32,226.37,257.14,226.37ZM219.34,172a11.21,11.21,0,0,0-6.67,10.36c0,6.07,1.06,14.89,5.94,22.48,5.59,8.69,15,14,28.06,15.68,17.51,2.3,31.19-.78,40.64-9.17,8.22-7.29,10-15.84,10-16.88v-.32s.12-1.19.26-2.76a9,9,0,0,0-3.81-8.15A341.61,341.61,0,0,0,219.34,172Z"/><path class="cls-14" d="M188.28,187.16a6.6,6.6,0,0,0,1.14-.16,52.06,52.06,0,0,1,19.63-.25,8.21,8.21,0,0,0,1.17.11"/><path class="cls-2" d="M188.39,189.71l-.22-5.11a4.11,4.11,0,0,0,.69-.1,54.64,54.64,0,0,1,20.59-.28,5.67,5.67,0,0,0,.8.08l-.08,5.12a10.67,10.67,0,0,1-1.53-.15,49.58,49.58,0,0,0-18.66.22A9.14,9.14,0,0,1,188.39,189.71Z"/><path class="cls-1" d="M218,364.4a79.25,79.25,0,0,0,41.93-55.13,219.22,219.22,0,0,0,3.77-38.63,14,14,0,0,0-3.38-9.37c-7.57-8.79-27-28.56-51.1-32.21a33.13,33.13,0,0,0-15.36,6.87s-6.92-5.8-9.57-6.31c0,0-20.87,3.27-42.92,27.9a20.45,20.45,0,0,0-5.17,14.2h0c.63,23.08,5.05,40.72,12.07,56.71a77.47,77.47,0,0,0,28.59,33.71h0A41.18,41.18,0,0,0,218,364.4Zm-2.38-61.34c-19.62.54-23.26-15.4-23.93-21.26a.38.38,0,0,0-.74-.07c-1.79,5.58-8,20.59-22.55,20.27-12.95-.28-18.08-18.08-19.93-27.9a7.31,7.31,0,0,1,4.71-8.26c27.25-9.71,40.36-20.51,40.36-20.51,14.31,13.55,38.46,20.24,50.17,22.82A8.21,8.21,0,0,1,250.1,277C248.1,296.6,237.08,302.47,215.59,303.06Z"/><path class="cls-15" d="M136.16,271.72s-.28,31.49,7.07,43.59l5,13.13a77.47,77.47,0,0,0,28.59,33.71h0A41.18,41.18,0,0,0,218,364.4h0a79.25,79.25,0,0,0,41.93-55.13h0a20.05,20.05,0,0,0-22.21-11.21l-27.43,5.62L190.68,289c-8.87,12.15-18.19,12.31-28.26,12.31,0,0-15.7-13.42-13.17-31.16l3.5-4.73c16.59-6.33,41.33-20.08,41.33-20.08l-2-9.33-8.93-5c-44.55,13.1-47,40.77-47,40.77m0,0"/><path class="cls-2" d="M199.36,371.39a43.77,43.77,0,0,1-23.95-7.11,79.82,79.82,0,0,1-29.53-34.82c-7.79-17.77-11.7-36.09-12.28-57.67a22.91,22.91,0,0,1,5.82-16c22.4-25,43.54-28.58,44.43-28.72l.44-.07.44.09c2.43.47,6.64,3.58,9.16,5.58a35.06,35.06,0,0,1,15-6.17l.33,0,.33,0c10.88,1.64,21.95,6.57,32.9,14.65a122.92,122.92,0,0,1,19.76,18.42,16.49,16.49,0,0,1,4,11.08,224,224,0,0,1-3.82,39.08,81.32,81.32,0,0,1-43.28,56.91h0A43.69,43.69,0,0,1,199.36,371.39ZM184.13,232.25c-3.29.71-21.69,5.53-40.89,27a17.81,17.81,0,0,0-4.52,12.43c.57,20.9,4.34,38.61,11.85,55.76A74.72,74.72,0,0,0,178.22,360a38.72,38.72,0,0,0,38.59,2.12,76.23,76.23,0,0,0,40.58-53.35,218.89,218.89,0,0,0,3.72-38.18,11.37,11.37,0,0,0-2.76-7.65c-7.06-8.2-25.95-27.61-49.18-31.29a31.54,31.54,0,0,0-13.76,6.29l-1.63,1.28-1.59-1.33A45.63,45.63,0,0,0,184.13,232.25Zm30.48,73.37c-15.24,0-21.43-9.35-23.94-16.65-3.52,6.94-10.39,15.86-22.37,15.58-6.28-.14-17.54-4.22-22.39-30a9.82,9.82,0,0,1,6.36-11.14c26.52-9.45,39.46-20,39.59-20.08l1.75-1.44,1.64,1.55c14.14,13.39,39,20,49,22.18a10.77,10.77,0,0,1,8.43,11.58c-2.32,22.79-16.46,27.83-37,28.39h-1ZM191.27,278.9h.3a2.92,2.92,0,0,1,2.63,2.59c.68,5.87,4.12,19.48,21.32,19h0c21.93-.6,30.31-6.83,32-23.8a5.65,5.65,0,0,0-4.44-6.06c-12.48-2.75-35.13-9.21-49.76-22C188.89,251.9,176,260.4,154,268.25a4.73,4.73,0,0,0-3.05,5.37c1.45,7.68,6,25.57,17.47,25.82,4.21.09,14.6-1.53,20.05-18.5A2.92,2.92,0,0,1,191.27,278.9Z"/><path class="cls-1" d="M234.93,106.58h0A30.62,30.62,0,0,0,230,77.1a23,23,0,0,0-1.89-2.15c-3-2.88-30.92-15.87-59-3.08s-32,40.45-32,40.45-8.81,25.13-13,33.18c0,0,13.77-36.53,39.94-28.78a122.66,122.66,0,0,0,17,3.68c15.4,2.21,33.87-3.81,47.79-10.75l6.14-3.06"/><path class="cls-2" d="M126.32,146.69l-4.66-2.09a61.46,61.46,0,0,1,2.76-6c4.09-9.68,9.47-24.87,10.18-26.88a58.68,58.68,0,0,1,33.45-42.15c29-13.2,57.83-.23,61.82,3.55A24.8,24.8,0,0,1,232,75.5a33.38,33.38,0,0,1,5.33,32l-.35,1-7.06,3.52c-8.46,4.22-30.21,13.74-49.29,11a124.31,124.31,0,0,1-17.36-3.76c-17.67-5.23-29.44,12.41-34.3,21.78C128,143.23,127.09,145.22,126.32,146.69ZM195.09,69a59.81,59.81,0,0,0-24.91,5.24c-26.5,12.06-30.51,38.22-30.55,38.48l0,.25-.08.24c-.14.39-1.45,4.13-3.26,9.06,8.58-8.21,18.33-11,28.47-8a120.73,120.73,0,0,0,16.63,3.6c17.66,2.54,38.25-6.5,46.28-10.51l5.2-2.59A28.25,28.25,0,0,0,228,78.7a19.77,19.77,0,0,0-1.65-1.89C224.35,74.9,211.36,69,195.09,69Z"/><path class="cls-1" d="M315.93,80.76c54.65,51.75,68,115.81,69.34,161.83a.18.18,0,0,1-.35.06c-1.14-3.4-5.1-13.22-15.37-22.94-12.69-12-32.31-10.55-32.31-10.55-17.16.47-27.13-28-30.57-40a110.71,110.71,0,0,0-9.3-22.77c-15.17-27.65-32.07-30.29-32.07-30.29Z"/><path class="cls-2" d="M385.08,245.34a2.72,2.72,0,0,1-2.58-1.87c-1.18-3.52-5-12.69-14.7-21.9-11.73-11.11-30.18-9.88-30.36-9.86h-.61c-18.61,0-29-29.18-32.61-41.81a108.35,108.35,0,0,0-9.08-22.24c-14.26-26-30.08-29-30.24-29l-6.15-1,5.1-3.58,52.34-36.58,1.51,1.43C373.34,131.6,386.55,197,387.82,242.52a2.72,2.72,0,0,1-2.25,2.77A2.81,2.81,0,0,1,385.08,245.34Zm-2.37-2.68h0Zm-43.3-36.12c5.82,0,21.07,1.06,31.91,11.32A66.63,66.63,0,0,1,382.13,231c-3.1-43.18-17.84-100.08-66.45-147l-44.76,31.28c6.51,2.9,18.07,10.49,28.7,29.86a113.49,113.49,0,0,1,9.51,23.29c1.53,5.34,4.85,15.57,9.88,24.05,5.62,9.47,11.71,14.21,18.11,14C337.38,206.58,338.19,206.54,339.41,206.54Z"/><path class="cls-16" d="M315.91,80.76c55.17,52.24,68.3,117,69.37,163.14,0,0-3.06-12.18-15.75-24.19s-32.31-10.55-32.31-10.55c-17.16.47-27.13-28-30.57-40a110.71,110.71,0,0,0-9.3-22.77c-15.17-27.65-32.07-30.29-32.07-30.29Z"/><path class="cls-1" d="M211.56,74.85c8.43-11.26,22.25-21.44,44.72-22,32.4-.88,57.77,24.58,57.77,24.58,19.55,18.51,32.15,38.32,44.14,58.45,0,0-.33-.56-1-1.53-16.43-24.9-47.9-33.32-74.28-19.39-14.89,7.86-36.42,14.6-58.71,5.87l-.92-.43a30.49,30.49,0,0,1-11.76-45.5Z"/><path class="cls-2" d="M356,137.15l0-.08c-.1-.16-.39-.64-.86-1.35a55.16,55.16,0,0,0-31.92-23.19,54,54,0,0,0-39,4.65c-14.79,7.81-37.36,15.18-60.83,6l-.15-.06-.92-.43a33,33,0,0,1-12.75-49.32l0,0c11.06-14.77,26.77-22.53,46.7-23.07,32.86-.89,58.21,23.89,59.63,25.31,19.93,18.88,32.92,39.45,44.51,58.9l.05.09ZM225.25,118.44c21.65,8.44,42.67,1.52,56.5-5.78a58.66,58.66,0,0,1,61,3.29A212.06,212.06,0,0,0,312.3,79.24l-.05-.05c-.25-.25-25-24.68-55.89-23.83-18.28.5-32.65,7.57-42.73,21A27.93,27.93,0,0,0,224.4,118Z"/><path class="cls-9" d="M190.8,257.11S178.49,272,149.88,287.84c0,0,9.32,32.67,27,29.67,14.37-2.44,17.6-18.35,18.3-24.17a.38.38,0,0,1,.74-.07c1.77,5.63,8.37,20.58,27.52,16.34,23.46-5.19,32.83-14.38,27.86-39.58C251.28,270,213.34,271.48,190.8,257.11Z"/><path class="cls-9" d="M336.43,230.35c-.91-3-2.43-8.2-4.22-14.3A265.85,265.85,0,0,0,284.7,125h0s-24-18.89-58-18.74-43,11.14-45.73,14.15c-2.09,2.25-9.12,9.43-17.19,24.69-9.82,18.58-12.68,23.08-25.7,43.12,0,0-23.7,19.73-22.68,57.29.48,17.57,9.74,34.71,15.75,40,0,0,5.28,5.17,12.55,12.18q-.7-2.83-1.33-5.69l-1.67-7.55c17.53-34.71,38.9-39.89,38.9-39.89,2.7,0,9.72,3.25,9.72,3.25a33.13,33.13,0,0,1,13.79-9.65c31.54-1.27,60.43,25.45,60.43,25.45,4.71,24.42,4.83,45.29,3,62.17,15-8.11,32.14-19.14,47.73-33.41a75.15,75.15,0,0,0,20.42-30.85C337.87,252.28,339.65,241.19,336.43,230.35Z"/><path class="cls-9" d="M189.35,247.83c.71-.82,1.43-1.57,2.15-2.26-.39.31-1.3,1-2.74,2Z"/><path class="cls-9" d="M145.74,267.81s.22,2.52.91,6.2a102,102,0,0,1,6.1-8.62C150.51,266.2,148.18,267,145.74,267.81Z"/><path class="cls-9" d="M150.5,287.5c3.1,7.53,8.12,14.38,16.11,14.55,14.57.32,20.75-14.69,22.55-20.27a.38.38,0,0,1,.74.07,27.64,27.64,0,0,0,5,13.21c.1-.64.18-1.22.25-1.72a.38.38,0,0,1,.74-.07,31.2,31.2,0,0,0,2.09,5c3.54,3,8.6,5,15.85,4.81,23.84-.65,34.79-7.81,34.84-33-8.95,0-38.88-.85-57.87-13C190.8,257.11,178.66,271.78,150.5,287.5Z"/><path class="cls-2" d="M195.15,293.34c-.06.5-.14,1.08-.25,1.72a19.75,19.75,0,0,0,3.08,3.23,31.2,31.2,0,0,1-2.09-5A.38.38,0,0,0,195.15,293.34Z"/><path class="cls-9" d="M189.15,281.78c-1.79,5.58-8,20.59-22.55,20.27-8-.17-13-7-16.11-14.55l-.62.35s9.32,32.67,27,29.67c13.13-2.23,17-15.71,18.06-22.45a27.64,27.64,0,0,1-5-13.21A.38.38,0,0,0,189.15,281.78Z"/><path class="cls-9" d="M184.9,335.26c-4-2-26.58-23.48-41.18-37.55q-.7-2.83-1.33-5.69l-1.67-7.55c1.94-3.83,3.92-7.31,5.92-10.45-.69-3.68-.91-6.2-.91-6.2,2.44-.8,4.77-1.61,7-2.42,14-17.68,26.88-20.82,26.88-20.82,2.23,0,7.39,2.21,9.13,3,1.43-1,2.34-1.69,2.74-2a32.28,32.28,0,0,1,11.63-7.39c20-.81,38.91,9.63,50.09,17.38-9.53-9.72-26.09-23.46-45.8-26.44A33.13,33.13,0,0,0,192.06,236s-6.28-4.52-8.93-5c0,0-22,1-45.74,31.81l.21,7.73c.86,31.45,10.58,43.49,21.23,73.06a14,14,0,0,0,6.43,7.51l.09,0A77.48,77.48,0,0,0,228.91,356h0a14,14,0,0,0,6.47-4.82c4.07-5.49,9,1,15.58-17.59a228,228,0,0,1-24.4,9.89Z"/><path class="cls-9" d="M213.83,303.1c-7.24.2-12.3-1.85-15.85-4.81,3.39,6.47,10.69,14.58,25.43,11.32,23.46-5.19,32.83-14.38,27.86-39.58,0,0-.94,0-2.61,0C248.62,295.29,237.67,302.45,213.83,303.1Z"/><path class="cls-17" d="M186.47,181.72a10.43,10.43,0,0,0-4.54-9.39,382.05,382.05,0,0,0-46.25,5.44A20.69,20.69,0,0,0,120,190.69a20.34,20.34,0,0,0,2.67,19.78,25.93,25.93,0,0,0,7.16,6.51,27.07,27.07,0,0,0,15.82,3.85C163,219.83,184.12,212.25,186.47,181.72Z"/><path class="cls-12" d="M297.59,191.41a9,9,0,0,0-3.81-8.15A341.56,341.56,0,0,0,219.34,172a11.21,11.21,0,0,0-6.67,10.36c0,6.07,1.06,14.89,5.94,22.48,5.59,8.69,15,14,28.06,15.68,17.51,2.3,31.19-.78,40.64-9.17,8.22-7.29,10-15.84,10-16.88v-.32S297.45,193,297.59,191.41Z"/><path class="cls-8" d="M269.86,271.9h0a3.13,3.13,0,0,1,.35-3.3,10.48,10.48,0,0,0,1.66-6.09c-.06-2.32-.81-5-2.56-6.28a3.7,3.7,0,0,1-1.59-2.89h0a1.26,1.26,0,0,1,1.69-1.22,11.19,11.19,0,0,1,1.92,20.23A1.05,1.05,0,0,1,269.86,271.9Z"/><path class="cls-18" d="M297.59,191.41a9,9,0,0,0-3.81-8.15A341.56,341.56,0,0,0,219.34,172a11.21,11.21,0,0,0-6.67,10.36c0,6.07,1.06,14.89,5.94,22.48,5.59,8.69,15,14,28.06,15.68,17.51,2.3,31.19-.78,40.64-9.17,8.22-7.29,10-15.84,10-16.88v-.32S297.45,193,297.59,191.41Z"/><path class="cls-9" d="M181.19,262.79a189.25,189.25,0,0,1-33.44,14.35s3,33.84,20.87,34.24c14.57.32,20.75-14.69,22.55-20.27a.38.38,0,0,1,.74.07c.68,5.86,4.32,21.79,23.93,21.25,24-.66,35-7.91,34.85-33.6,0,0-25.68-3.95-45.54-15.71a48.64,48.64,0,0,1-13,1.53A33.92,33.92,0,0,1,181.19,262.79Z"/><path class="cls-9" d="M181.19,262.79a33.92,33.92,0,0,0,11,1.86,48.64,48.64,0,0,0,13-1.53,64,64,0,0,1-11.4-8.42A93.76,93.76,0,0,1,181.19,262.79Z"/><path class="cls-9" d="M200.33,241.39l-15.18-1.11c2.65.51,8.93,5,8.93,5A35.18,35.18,0,0,1,200.33,241.39Z"/></svg>