<svg id="Layer_1" data-name="Layer 1" xmlns="http://www.w3.org/2000/svg" xmlns:xlink="http://www.w3.org/1999/xlink" viewBox="0 0 450 450"><defs><style>.cls-1{fill:#575266;}.cls-2{fill:#fcecd9;}.cls-3{fill:#f2d6c2;}.cls-4{fill:url(#linear-gradient);}.cls-5{fill:#625f70;}.cls-6{fill:#d2fff0;}</style><linearGradient id="linear-gradient" x1="306.92" y1="220.73" x2="306.92" y2="127.85" gradientUnits="userSpaceOnUse"><stop offset="0" stop-color="#625f70" stop-opacity="0"/><stop offset="1" stop-color="#625f70"/></linearGradient></defs><title>forrest_gump</title><path class="cls-1" d="M177.7,331.48c-8.46,0-14.63-4.69-17.24-7a2.21,2.21,0,0,1-.35-2.86l0-.05a2.24,2.24,0,0,1,2.79-.8,38,38,0,0,0,14.76,3.5,49.14,49.14,0,0,0,17.95-3.63,2.23,2.23,0,0,1,2.83,1l0,.05a2.21,2.21,0,0,1-.56,2.76A32.37,32.37,0,0,1,177.7,331.48Z"/><path class="cls-2" d="M328.3,123s5.75,80.64-1.18,141.9c-3.28,29-16.69,67.09-21.39,73.13-22.6,29.08-36,34.7-58.76,41.91-4.68,1.48-21.18,9.91-25.86,11-23.18,5.45-47.18,4.62-71.65-14.52-4.46-3.49-6.14-7.64-9.75-12.56C116.35,332,107.83,320,103.46,279.59c0,0-3.81-19.71,2.2-37.14a52.1,52.1,0,0,0,2.17-27.22l-.23-1.16a50,50,0,0,1-.85-13.32l3.58-57.83c1.16-16.38,8.38-31.25,23.31-38.08,1.88-.86,6.22-1.6,8.16-2.15,11.1-3.17,22.26-6.15,33.17-9.93l35.27-12.22Z"/><path class="cls-3" d="M246.9,364.52c-11.16,0-19.83-5.08-24.11-8.21a1.79,1.79,0,0,0-2.84,1.51A17.93,17.93,0,0,1,204.62,376l-1.17.17a72.4,72.4,0,0,1-41.63-6.31,22.33,22.33,0,0,1-12.42-16.54l-.11-.67a1.78,1.78,0,0,0-2.26-1.43c-8.59,2.57-14.26-1.93-19.61-6.24,3.14,5.26,7,10.94,11.83,17.54,12.44,17,29.85,28,49.47,30.42,17.32,2.09,34.54-3.42,45.54-6,5.9-1.39,9.08-5.26,14.35-7.2,18.58-6.83,36.73-16.22,57.63-43.11a20.51,20.51,0,0,0,1.86-3.22C268.78,371.78,246.9,364.52,246.9,364.52Z"/><path class="cls-1" d="M198,396.23c-18.37,0-34.62-5.89-50-17.91-3.41-2.67-5.33-5.66-7.37-8.82-.86-1.33-1.76-2.74-2.84-4.21-22.8-31.1-32.23-44-36.72-85.43-.13-.63-3.83-20.35,2.32-38.18a49.89,49.89,0,0,0,2.08-26l-.23-1.16a52.41,52.41,0,0,1-.89-14l3.58-57.81c1.34-18.94,10.35-33.56,24.72-40.13a34.89,34.89,0,0,1,6-1.68c1-.22,1.89-.42,2.52-.6l6.57-1.86c8.74-2.47,17.78-5,26.48-8L210.25,78,330.6,121.25l.11,1.57c.06.81,5.69,81.56-1.18,142.34-3.28,29-16.69,67.66-21.88,74.35-23.36,30-37.3,35.56-59.94,42.73-1.94.61-6.5,2.71-10.9,4.74-6.33,2.91-12.3,5.66-15.13,6.33A103.54,103.54,0,0,1,198,396.23ZM210.22,83.1,175.76,95c-8.83,3.06-17.94,5.63-26.75,8.11L142.47,105c-.7.2-1.71.43-2.8.67a34.64,34.64,0,0,0-5,1.35c-17.4,8-21.19,26-21.91,36.05l-3.58,57.81a47.66,47.66,0,0,0,.8,12.7l.23,1.16a54.73,54.73,0,0,1-2.25,28.49c-5.72,16.58-2.15,35.7-2.12,35.89,4.37,40.36,12.94,52.05,35.84,83.29,1.15,1.57,2.1,3,3,4.45,1.89,2.93,3.52,5.47,6.28,7.63,20.41,16,42.52,20.45,69.61,14.07,2.36-.55,8.66-3.45,14.22-6,5-2.28,9.23-4.25,11.46-5,21.72-6.88,35.11-12.18,57.58-41.08,4.21-5.42,17.58-42.59,20.89-71.92,6.29-55.68,2-128.35,1.27-139.89Z"/><path class="cls-3" d="M169.24,196.64a.76.76,0,0,1,1.47.27A43.25,43.25,0,0,1,168.64,208c-1.44,4.21-6.68,13.62-11.22,13.62-3.54,0-4.7-5.83-20.78-6.57L131.31,210s18.89,6.53,28.74-.1C165.21,206.41,167.88,201,169.24,196.64Z"/><path class="cls-4" d="M285.39,135.46l-.19,7.13c7.95,9.84,16.34,34.28,14.06,46.72h0a43.41,43.41,0,0,0-.08,15.17L302.71,225s11.23-9.39,25.93-6.76l-1-77.28Z"/><path class="cls-5" d="M156.29,105.79a68.64,68.64,0,0,1,12.42,5.75,51.57,51.57,0,0,0,23,6.76,106.29,106.29,0,0,0,19.83-1.89,116,116,0,0,0,26.12-7.81c10-4.31,24.38-10.1,34.79-5.51,4.62,2,10.07,5.73,12,9.18a26.84,26.84,0,0,1,1.6,3.4,28.73,28.73,0,0,1,1.78,11.06l-.28,13.53a161.48,161.48,0,0,1,41,9.07V121.27c0-23.11-8.48-32.38-22.61-41.37-17.92-11.41-47.25-24.75-90.49-23.65a238.43,238.43,0,0,0-45.5,5A87.59,87.59,0,0,0,132,80.61a52.49,52.49,0,0,0-16.75,32.46L113,130.19c9.75-35.36,42.23-24.76,42.23-24.76Z"/><path class="cls-1" d="M331.06,152.8l-3.25-1.2a160.59,160.59,0,0,0-40.35-8.92l-2.32-.14.33-15.85a26.22,26.22,0,0,0-1.61-10.13,24.83,24.83,0,0,0-1.46-3.1c-1.45-2.58-6-6-10.88-8.15-10-4.39-24.85,2.05-32.85,5.52a118.65,118.65,0,0,1-26.66,8,106.54,106.54,0,0,1-20.31,1.93c-11.65-.32-21.46-5.51-24.2-7.09a65.91,65.91,0,0,0-12-5.56l-1.06-.36c-.1,0-13-4.07-24.17,2-7.12,3.84-12.07,10.92-15.48,21.13l-4.2-1,2.24-17.12a54.86,54.86,0,0,1,17.54-34,89.93,89.93,0,0,1,39.16-20,240.72,240.72,0,0,1,45.95-5C250,53,280.9,61,307.33,77.85c15,9.56,23.73,19.74,23.73,43.41Zm-41-14.76a166.46,166.46,0,0,1,36.16,7.86V121.27c0-21.57-7.55-30.46-21.49-39.33-25.6-16.29-55.6-24.13-89.13-23.27a235.93,235.93,0,0,0-45,4.91,84.87,84.87,0,0,0-37,18.84,50,50,0,0,0-16,31l-.18,1.41A31.24,31.24,0,0,1,128,105.42c13.06-7,27.35-2.49,27.95-2.29l1.08.37a70.53,70.53,0,0,1,12.86,6c2.48,1.44,11.39,6.15,21.9,6.44A102.1,102.1,0,0,0,211.17,114a113.65,113.65,0,0,0,25.57-7.65c8.68-3.76,24.84-10.74,36.72-5.5,4.9,2.16,10.87,6.16,13.14,10.2a29.78,29.78,0,0,1,1.75,3.7,31,31,0,0,1,1.94,12Z"/><path class="cls-6" d="M224.63,241.17c-5.07-1.5-8-6.09-7-10.9l.42-1.43,2.48,2.05.74-2.93,16.3,4.11-.73,2.46A9.84,9.84,0,0,1,224.63,241.17Z"/><circle class="cls-1" cx="226.88" cy="232.76" r="3.34" transform="translate(-60.76 384.15) rotate(-73.49)"/><path class="cls-1" d="M250,237.78a1.77,1.77,0,0,1-2.14.47c-1.82-.58-5.29-3.66-8.23-4.45-7.68-2.07-17.3-2-26-1.59a1.8,1.8,0,0,1-1.66-2.64h0c.41-2.57.81-2.56,4.33-2.56,5.54,0,15.4-.27,23.38,2.42,2.64.89,9.35,6.06,9.35,6.06S250.72,236.74,250,237.78Z"/><path class="cls-6" d="M128.7,234.53l-.73-2.46,16.3-4.11.74,2.93,2.48-2.05.42,1.43c1,4.81-1.92,9.39-7,10.9A9.84,9.84,0,0,1,128.7,234.53Z"/><circle class="cls-1" cx="138.67" cy="232.76" r="3.34" transform="translate(-60.42 49) rotate(-16.51)"/><path class="cls-1" d="M115.5,237.78a1.77,1.77,0,0,0,2.14.47c1.82-.58,5.72-5.12,8.65-5.91,7.68-2.07,16.87-.53,25.55-.13a1.8,1.8,0,0,0,1.66-2.64h0a5.16,5.16,0,0,0-4.33-2.56c-5.63-.51-14.84-1.31-23,1-5.24,1.47-9.78,7.53-9.78,7.53S114.82,236.74,115.5,237.78Z"/><path class="cls-1" d="M201.67,314.63c-5.76-2.56-11.58-4.53-14-5.33a2.66,2.66,0,0,0-1.25-.09C175.89,311,174.69,311,174.24,311a37.35,37.35,0,0,1-8.79-1.81,2.51,2.51,0,0,0-.78-.12,25.92,25.92,0,0,0-8.08,2.31,2.21,2.21,0,0,1-3-1.4l-.06-.2a2.2,2.2,0,0,1,.45-2.08c1.54-1.76,5.2-5.5,10.21-5.86a9.38,9.38,0,0,1,3.4.41,31.69,31.69,0,0,0,6.76,1.5c.48,0,3.37-.38,10.87-1.66a9.66,9.66,0,0,1,4.7.34c2.87.93,6.17,3,13.93,8.35a2.26,2.26,0,0,1,1,2.09h0A2.22,2.22,0,0,1,201.67,314.63Z"/><path class="cls-1" d="M177.7,329.66c-8.46,0-14.63-4.69-17.24-7a2.21,2.21,0,0,1-.35-2.86l0-.05a2.24,2.24,0,0,1,2.79-.8,38,38,0,0,0,14.76,3.5,49.14,49.14,0,0,0,17.95-3.63,2.23,2.23,0,0,1,2.83,1l0,.05a2.21,2.21,0,0,1-.56,2.76A32.37,32.37,0,0,1,177.7,329.66Z"/><path class="cls-3" d="M146,322.76a3.56,3.56,0,0,1-5.26,2.67c-3.76-2.19-5.78-6.32-6.32-11.17a2.49,2.49,0,0,1,2.49-2.74h0a2.56,2.56,0,0,1,2.44,2A8.38,8.38,0,0,0,144,319.1a3.54,3.54,0,0,1,2,3.67Z"/><path class="cls-3" d="M195.15,351.29a2,2,0,0,1-2.31-.38c-2.57-2.56-8.86-6.85-13.58-6.85a13,13,0,0,0-9.17,4.19,2.06,2.06,0,0,1-1.85.61l-.45-.08a2.08,2.08,0,0,1-1.55-2.91c1.58-3.39,5.31-9.05,13-9.05,8,0,14.15,7.65,16.74,11.42a2.08,2.08,0,0,1-.85,3.06Z"/><path class="cls-3" d="M186.67,183.57a40.15,40.15,0,0,1-19.5-5l-1-.54a36,36,0,0,0-28.3-1.84L132.53,178a1.13,1.13,0,0,1-1.42-.66h0a1.13,1.13,0,0,1,.43-1.35l.6-.39a36.29,36.29,0,0,1,35.43-2.6q1.07.51,2.08,1.07a35.08,35.08,0,0,0,32.23.93l3.66-1.76a40.09,40.09,0,0,1,15-3.93,31.6,31.6,0,0,1,21.14,6.65h0a1.12,1.12,0,0,1,.28,1.46h0a1.12,1.12,0,0,1-1.35.48l-6.57-2.38c-8.7-2.9-18-1.66-26.29,2.32l-3.66,1.76A40.14,40.14,0,0,1,186.67,183.57Z"/><path class="cls-3" d="M210.62,322.76a3.56,3.56,0,0,0,5.26,2.67c3.76-2.19,5.78-6.32,6.32-11.17a2.49,2.49,0,0,0-2.49-2.74h0a2.56,2.56,0,0,0-2.44,2,8.38,8.38,0,0,1-4.61,5.54,3.54,3.54,0,0,0-2,3.67Z"/><path class="cls-2" d="M311.76,221.45a23.32,23.32,0,1,1-.51,38.81"/><path class="cls-1" d="M328.21,266.48a25.78,25.78,0,0,1-16-2.83,2.44,2.44,0,0,1-.85-3.52h0a2.38,2.38,0,0,1,3.09-.77,20.9,20.9,0,1,0,.49-37,2.38,2.38,0,0,1-3.08-.85h0a2.44,2.44,0,0,1,1-3.5,25.74,25.74,0,1,1,15.41,48.42Z"/><path class="cls-3" d="M189.58,196.64a.76.76,0,0,0-1.47.27A43.25,43.25,0,0,0,190.18,208c1.44,4.21,6.68,13.62,11.22,13.62,3.54,0,4.7-5.83,20.78-6.57L227.5,210s-18.89,6.53-28.74-.1C193.61,206.41,190.94,201,189.58,196.64Z"/><path class="cls-1" d="M196.79,216.49h0c0-2.62,2.32-3.72,4.62-5,7.24-4,23.88-7.92,32.55-7.36,13.9.91,26.59,14.62,23.57,20.36-2.77,5.26-4.78.48-17.9-4.56a52.32,52.32,0,0,0-11.5-2.9c-6.28-.89-16.17.21-26.13,4.42C199.39,222.58,196.79,219.34,196.79,216.49Z"/><path class="cls-1" d="M161,216.49h0c0-2.62-2.32-3.72-4.62-5-7.24-4-23.88-7.92-32.55-7.36-13.9.91-26.59,14.62-23.57,20.36,2.77,5.26,4.78.48,17.9-4.56a52.32,52.32,0,0,1,11.5-2.9c6.28-.89,16.17.21,26.13,4.42C158.44,222.58,161,219.34,161,216.49Z"/></svg>