<svg id="Layer_1" data-name="Layer 1" xmlns="http://www.w3.org/2000/svg" xmlns:xlink="http://www.w3.org/1999/xlink" viewBox="0 0 450 450"><defs><style>.cls-1{fill:#f99;}.cls-2{fill:#575266;}.cls-3{fill:#fcecd9;}.cls-4{fill:#f6e1cf;}.cls-5{fill:#c8b7ac;}.cls-6{fill:#4b5366;}.cls-7{fill:#dbc5b6;}.cls-8{fill:#cceff2;}.cls-9{fill:#e0d0c2;}.cls-10{fill:url(#linear-gradient);}.cls-11{fill:#625f70;}.cls-12{fill:#ff8080;}.cls-13{fill:url(#linear-gradient-2);}.cls-14{fill:#6a6875;}.cls-15{fill:url(#linear-gradient-3);}</style><linearGradient id="linear-gradient" x1="187.52" y1="-47.37" x2="200.56" y2="-59.74" gradientTransform="translate(-48.9 142.13) rotate(3.72)" gradientUnits="userSpaceOnUse"><stop offset="0.07" stop-color="#f95f5f" stop-opacity="0"/><stop offset="0.09" stop-color="#f95f5f" stop-opacity="0.02"/><stop offset="0.43" stop-color="#f95f5f" stop-opacity="0.44"/><stop offset="0.71" stop-color="#f95f5f" stop-opacity="0.74"/><stop offset="0.9" stop-color="#f95f5f" stop-opacity="0.93"/><stop offset="1" stop-color="#f95f5f"/></linearGradient><linearGradient id="linear-gradient-2" x1="345.75" y1="-11.08" x2="367.6" y2="1.19" gradientTransform="translate(-48.9 142.13) rotate(3.72)" gradientUnits="userSpaceOnUse"><stop offset="0.3" stop-color="#f95f5f" stop-opacity="0"/><stop offset="0.31" stop-color="#f95f5f" stop-opacity="0.02"/><stop offset="0.57" stop-color="#f95f5f" stop-opacity="0.44"/><stop offset="0.78" stop-color="#f95f5f" stop-opacity="0.74"/><stop offset="0.93" stop-color="#f95f5f" stop-opacity="0.93"/><stop offset="1" stop-color="#f95f5f"/></linearGradient><linearGradient id="linear-gradient-3" x1="255.21" y1="-52.73" x2="302.2" y2="-52.73" gradientTransform="translate(-48.9 142.13) rotate(3.72)" gradientUnits="userSpaceOnUse"><stop offset="0.35" stop-color="#575266" stop-opacity="0"/><stop offset="0.38" stop-color="#575266" stop-opacity="0.07"/><stop offset="0.49" stop-color="#575266" stop-opacity="0.4"/><stop offset="0.62" stop-color="#575266" stop-opacity="0.67"/><stop offset="0.74" stop-color="#575266" stop-opacity="0.85"/><stop offset="0.87" stop-color="#575266" stop-opacity="0.96"/><stop offset="1" stop-color="#575266"/></linearGradient></defs><title>jesse</title><path class="cls-1" d="M115.43,168.7l-14.64-24.29a21,21,0,0,1-2.12-16.79c3.58-12,13.06-31.7,37.56-38.71a19.15,19.15,0,0,1,15.34,2.16l19.8,12.27Z"/><path class="cls-2" d="M115.07,173.06,98.6,145.73a23.57,23.57,0,0,1-2.38-18.84c3.54-11.91,13.36-33,39.31-40.44a21.73,21.73,0,0,1,17.39,2.44l22.34,13.84Zm26.37-82.32a16.34,16.34,0,0,0-4.5.63c-23.61,6.76-32.57,26.07-35.81,37A18.44,18.44,0,0,0,103,143.09l12.81,21.25,51.69-60.4-17.27-10.7A16.7,16.7,0,0,0,141.43,90.74Z"/><path class="cls-3" d="M254.39,365a67.14,67.14,0,0,0,35.81-36.42c13.41-32.9,34.25-91,36-138.07,2.53-69.8-97.06-94.72-107.78-94.79,0,0-80.13-4.58-102.48,60.75,0,0-4.45,13.13-9.39,29.67a127,127,0,0,0-4,53.53q.21,1.5.39,3.09c1.36,11.79.74,28.23.43,36.67-2.16,59.11,30.73,75.07,39.17,88.85a26.69,26.69,0,0,0,3.66,4.6,37.32,37.32,0,0,0,24.56,11l24.37,1.45a27.85,27.85,0,0,0,10.63-1.82Z"/><path class="cls-4" d="M303.18,135.1c-28.78-30-78.13-41.66-84.81-41.7h-.13a134.6,134.6,0,0,0-42.11,5.81c-29.38,9.08-48.83,27-57.8,53.21,0,.12-4.49,13.27-9.35,29.57a122.42,122.42,0,0,0-5.08,36.9l0,0a25.11,25.11,0,0,1,2.59-1.37C114,214,124.35,213,124.35,213a146.88,146.88,0,0,1,27.12,2.16,12.58,12.58,0,0,1,10,15.33,7.43,7.43,0,0,1-1.34,2.92c-2.91,3.46-7.59,5.44-12.28,6.58a90.38,90.38,0,0,0-13.33-.68c-11.89,0-21.52,8.09-21.52,15.3,0,11.89,9.88,19.13,21.52,12.87,11.42-6.14,26,3,26-16.07a10.68,10.68,0,0,0-1.26-5.31,4.51,4.51,0,0,1,1.83-6.13l0,0a13,13,0,0,0,6.73-10.68,39.79,39.79,0,0,0-.41-7.68,3.33,3.33,0,0,1,.5-2.28h0a3.35,3.35,0,0,1,5.76.2,6.49,6.49,0,0,1,.79,3.81,38.1,38.1,0,0,0-.19,5.95A13,13,0,0,0,181,239.92l.07,0a7,7,0,0,1,3.22,8.64,11.39,11.39,0,0,0-.74,4.22c0,19,8.42,7.36,26.64,17.35,11.59,6.36,20.88-2.26,20.88-14.15a8.42,8.42,0,0,0-.06-.95c5.72,2,11.68,3.68,16.82,6.36a25.08,25.08,0,0,1,13.3,21.5c.39,12.53.61,42.88-15.14,68.81a18.85,18.85,0,0,1-4.76,5.23l-14.48,11,26.68-10.17a64.11,64.11,0,0,0,29.81-25.88l13.27-31.62.5-1.18c21.45-58.4,25.94-95.58,26.59-113.53C324.27,166.9,317.4,149.94,303.18,135.1ZM155.25,203.54l-11.44,1.64a34.65,34.65,0,0,1-21.38-3.82h0s-9.06-6.78-2.44-21.11c9-19.39,51.69-9.42,51.69-9.42,15.56.52,33.55-5.47,51.94-1.49C244.1,173.77,245.72,190,245.72,190c1.16,8.27-2.77,12.87-7,15.41a19.52,19.52,0,0,1-12.6,2.51l-35.39-4.62A131,131,0,0,0,155.25,203.54ZM230,250.4a3.84,3.84,0,0,0-.48.44c-3.18-5.43-10.92-10.12-20-10.12-3.14,0-6.43,0-9.58.26-6.21-.76-13.86-2.71-18-7.59a7,7,0,0,1-1.24-2.57,11,11,0,0,1,8.63-13.66,147.37,147.37,0,0,1,35.08-1.73,29.24,29.24,0,0,1,23.59,14.78S251.64,249.67,230,250.4Z"/><path class="cls-2" d="M195.83,387.89H195l-24.37-1.45a39.76,39.76,0,0,1-26.25-11.8,29.27,29.27,0,0,1-4-5c-1.74-2.85-4.8-6-8.35-9.61-6.54-6.7-14.68-15-21.09-27.72C103.34,317.29,100,300,100.78,279.3V279c.31-8.57.9-24.53-.43-36q-.18-1.55-.38-3a128.72,128.72,0,0,1,4.08-54.61c4.89-16.4,9.37-29.63,9.41-29.76,9.42-27.52,30.61-47.06,61.29-56.5a137.43,137.43,0,0,1,43.7-6c8.23.11,58.49,12.07,88.41,43.28,15.22,15.87,22.57,34.1,21.84,54.16-.75,20.6-6.44,66-36.15,138.95a69.28,69.28,0,0,1-37.17,37.81l-.09,0-48.65,18.55A30.25,30.25,0,0,1,195.83,387.89Zm-.62-5.13a25.12,25.12,0,0,0,9.61-1.65l48.61-18.53a64.2,64.2,0,0,0,34.4-35c29.41-72.17,35-116.94,35.77-137.2.68-18.63-6.2-35.6-20.42-50.43-28.78-30-78.13-41.66-84.81-41.7h-.13A134.61,134.61,0,0,0,176.12,104c-29.38,9.08-48.83,27-57.8,53.21,0,.12-4.49,13.27-9.35,29.57a123.63,123.63,0,0,0-3.91,52.45q.21,1.53.4,3.14c1.37,11.84.78,28.05.46,36.76v.3c-1.63,44.75,17.25,64.1,29.75,76.9,3.76,3.85,7,7.18,9,10.51a24.16,24.16,0,0,0,3.31,4.15,34.65,34.65,0,0,0,22.88,10.26Z"/><path class="cls-5" d="M281.32,336.39l5-5.38a64.14,64.14,0,0,1-32.87,31.57l-48.61,18.53a25.1,25.1,0,0,1-9.61,1.65l-24.32-1.45A34.65,34.65,0,0,1,148,371.05a24.16,24.16,0,0,1-3.31-4.15c-2-3.34-5.29-6.66-9-10.51-11.16-11.44-27.42-28.1-29.6-63.44l4,20.18s16.55,30.05,32.57,39.93a19.07,19.07,0,0,1,8.19,10.1,9.19,9.19,0,0,0,4.87,5.56c4.75,2.28,11.84,3.94,22.84,4.29,13.71.44,22.82-.26,26.69-4.8a7.41,7.41,0,0,0,1.93-7.16,1.65,1.65,0,0,1,2.23-1.95h0c12.89,3.46,26.47.82,39.32-2.77h0a70.24,70.24,0,0,0,16.64-7.07h0A70.24,70.24,0,0,0,281.32,336.39Z"/><path class="cls-2" d="M157.11,319.64l3.39-1.82a4.91,4.91,0,0,1,1.8-.55l15-1.58a4.82,4.82,0,0,1,4.62,2.1l2.69,4.42c1.7,2.8-1,6-4.58,5.55l-10.45-1.38a5.25,5.25,0,0,0-.94,0l-8.73.43a5,5,0,0,1-3.7-1.34h0A3.53,3.53,0,0,1,157.11,319.64Z"/><polygon class="cls-6" points="204.55 126.34 204.55 126.34 204.55 126.34 204.55 126.34"/><path class="cls-7" d="M287.83,327.57q.85-2.08,1.67-4.14l.47-1.17,1.25-3.15.4-1q.78-2,1.54-4l.28-.73,1.24-3.25.43-1.14,1.2-3.2.26-.7q.7-1.9,1.38-3.78l.34-.95,1-2.9.37-1q.65-1.84,1.28-3.66v0q.63-1.81,1.23-3.59l.34-1,.92-2.76.29-.87q.57-1.74,1.13-3.44l.2-.63.9-2.82.31-1,.87-2.78.18-.58q.5-1.64,1-3.25l.25-.82.74-2.49.26-.88q.46-1.58.9-3.13v0q.44-1.53.85-3l.24-.86.64-2.35.2-.73q.4-1.48.78-2.92l.14-.53.61-2.38.21-.82q.3-1.2.59-2.37l.11-.45q.34-1.38.66-2.74l.16-.68.49-2.09.17-.73c.2-.88.4-1.76.59-2.62v0c.19-.86.37-1.7.55-2.54l.15-.69.41-2,.12-.59q.25-1.22.49-2.42l.08-.42q.2-1,.38-2l.12-.65q.19-1,.37-2l.06-.33q.21-1.14.4-2.24l.09-.53.29-1.72.09-.56c.12-.72.23-1.43.34-2.12l-2.15,7.56h-.05c-9.29,38.94-42.18,75.47-59.9,92.9A103.62,103.62,0,0,1,246,351.74a18.85,18.85,0,0,1-4.76,5.23l-11.76,14.75,24-9.14A64.19,64.19,0,0,0,287.83,327.57Z"/><path class="cls-2" d="M223.33,248.15h0a1.08,1.08,0,0,0,.21-1.44l-.52-.78a11.57,11.57,0,0,0-6.12-4.57,32.09,32.09,0,0,0-12.05-1.44L188,242.86a1.42,1.42,0,0,0-1.26,1.59h0a1.55,1.55,0,0,0,1.64,1.17l17-.59c4.52-.32,9-.09,12.92,1.86l3.52,1.5A1.52,1.52,0,0,0,223.33,248.15Z"/><path class="cls-2" d="M116.8,247.51h0a1.08,1.08,0,0,1-.21-1.44l.52-.78a11.57,11.57,0,0,1,6.12-4.57,32.09,32.09,0,0,1,12.05-1.44l16.86,2.94a1.42,1.42,0,0,1,1.26,1.59h0a1.55,1.55,0,0,1-1.64,1.17l-17-.59c-4.52-.32-9-.09-12.92,1.86l-3.52,1.5A1.52,1.52,0,0,1,116.8,247.51Z"/><path class="cls-8" d="M198.59,255.5l.1-2.2,14.38,1.25-.22,2.58,2.59-1-.06,1.28c-.53,4.19-4.2,7.08-8.74,6.87A8.45,8.45,0,0,1,198.59,255.5Z"/><circle class="cls-2" cx="207.18" cy="256.88" r="3.48" transform="translate(-58.97 452) rotate(-87.36)"/><path class="cls-2" d="M218.88,256.53h0a1.66,1.66,0,0,0-.7-1.83h0A51.27,51.27,0,0,0,207.25,252l-5.15-.69c-3.36-.44-6,.84-7.37,4.7a1,1,0,0,0,.33,1.11l0,0a1,1,0,0,0,1.15,0c1.37-1,3.53-1,5.18-.75l15.7,1.39A1.66,1.66,0,0,0,218.88,256.53Z"/><path class="cls-8" d="M126.66,253.44l-.11-2.2,14.44-.12,0,2.59,2.49-1.21.06,1.28c-.12,4.22-3.51,7.45-8.05,7.67A8.45,8.45,0,0,1,126.66,253.44Z"/><circle class="cls-2" cx="135.34" cy="253.99" r="3.48" transform="translate(-12.28 6.94) rotate(-2.81)"/><path class="cls-2" d="M147,252.53h0a1.66,1.66,0,0,0-.87-1.75h0a51.27,51.27,0,0,0-11.15-1.67l-5.19-.2c-3.39-.12-5.9,1.4-6.89,5.38a1,1,0,0,0,.43,1.07l.05,0a1,1,0,0,0,1.15-.12c1.28-1.08,3.42-1.3,5.09-1.24l15.76-.11A1.66,1.66,0,0,0,147,252.53Z"/><path class="cls-9" d="M246,351.74a103.62,103.62,0,0,0,12.81-34.68l-.92.9A44.77,44.77,0,0,1,230.7,330.5l-2.46.2a13.81,13.81,0,0,1-12-5.45l-8.72-11.52c-3.93-5.19-12.46-9.79-19-10.21h0a12.27,12.27,0,0,0-9.1-1.16l-4.8,1.26a12.23,12.23,0,0,1-9.21-1.36,12.27,12.27,0,0,0-9.72-1.08h0a31.68,31.68,0,0,0-15.26,10.3l-2.24,2.76a7,7,0,0,1-10.06.78c-1.81-1.63-4-3.61-6.66-5.85a22.94,22.94,0,0,1-7.68-15.92c-1.3-13-5-27.11-7.51-35.59.09,6.62-.09,13.16-.26,18.22V276l0,.92v.27l0,.81v.23l0,.93v.3c-1.63,44.75,17.25,64.1,29.75,76.9,3.76,3.85,7,7.18,9,10.51a24.17,24.17,0,0,0,3.31,4.15,34.66,34.66,0,0,0,22.88,10.26l24.32,1.45a25.11,25.11,0,0,0,9.61-1.65l24.64-9.39L241.23,357A18.85,18.85,0,0,0,246,351.74Zm-35.53-13.31c-8.16,1.85-22.61,5.39-39.66,6.07,0,0-12.6,2.5-26.82-14.64a8.84,8.84,0,0,1,.66-12c3.55-3.45,18.26-6.69,18.26-6.69A37.88,37.88,0,0,1,184,313.4l1.54.63,2.71,1a51.2,51.2,0,0,1,19.27,12.31l4.79,4.88A3.73,3.73,0,0,1,210.46,338.43Z"/><path class="cls-10" d="M150.16,93.34a16.59,16.59,0,0,0-7.66-2.45,16.28,16.28,0,0,0-5.54.59,51.21,51.21,0,0,0-12.18,5.23A31.43,31.43,0,0,1,151,123L167.31,104Z"/><path class="cls-2" d="M107,151.9l-4.66-2.12c23.29-51.22,55.46-56.15,56.81-56.34l.69,5.07L159.49,96l.35,2.53c-.08,0-7.74,1.18-18,8.27C132.3,113.37,118.52,126.54,107,151.9Z"/><path class="cls-11" d="M317.38,235.08C232,111,112.69,169.47,112.69,169.47c1.81-5.83,3-9.43,3-9.43,22.58-68.91,102.72-64.36,102.72-64.36,10.72,0,110.25,25.94,107.47,99.49-.32,8.48-2.95,24.8-4.67,35.38a27.15,27.15,0,0,1-1,4.12h0A1.58,1.58,0,0,1,317.38,235.08Z"/><path class="cls-2" d="M318.67,238.32a4.1,4.1,0,0,1-3.39-1.79h0c-19.23-28-41.8-48.73-67.06-61.77A148.18,148.18,0,0,0,183,158.3c-39.42-.86-68.86,13.32-69.15,13.46l-5.32,2.61,1.75-5.66c1.79-5.78,3-9.42,3-9.46,9.5-29,30.75-49.62,61.47-59.66a131.31,131.31,0,0,1,43.77-6.47c7.87.09,56.36,12,86.43,43.27,16.43,17.11,24.34,36.91,23.52,58.87-.31,8.17-2.59,22.71-4.7,35.7a29.76,29.76,0,0,1-1.1,4.51,4.11,4.11,0,0,1-3.34,2.8A4.22,4.22,0,0,1,318.67,238.32Zm.82-4.69h0ZM179.4,153.14c1.22,0,2.44,0,3.68,0a153.25,153.25,0,0,1,67.48,17c25.51,13.16,48.29,33.92,67.75,61.71.14-.59.26-1.18.36-1.78,1.51-9.27,4.31-26.54,4.64-35.07.77-20.52-6.66-39.07-22.09-55.13-28.94-30.12-76.47-41.68-82.83-41.7h-.14a128.4,128.4,0,0,0-42.11,6.27,96,96,0,0,0-33.29,18.41,84,84,0,0,0-24.75,37.93s-.49,1.5-1.3,4.06A172.94,172.94,0,0,1,179.4,153.14Z"/><path class="cls-2" d="M323.62,191a122.54,122.54,0,0,0-38.84-43.07c-14-9.63-30.55-16.88-49-21.56-45.59-11.54-89.61-4.09-98.36,1.62l-2.8-4.28c10.57-6.9,56.29-14,102.41-2.3,19.07,4.83,36.12,12.33,50.67,22.3a127.6,127.6,0,0,1,40.44,44.85Z"/><path class="cls-12" d="M278.38,102.88h0a33.45,33.45,0,0,0-12.09,14.68l-2.52,6a37.48,37.48,0,0,0,2.37,34c5,8.28,15.38,19.2,30.1,26.75,18.76,9.62,42,3.19,52.28-15.23a28.25,28.25,0,0,0,3.45-9.74c2.1-15-9.91-44.07-40.21-58.8A33.49,33.49,0,0,0,278.38,102.88Z"/><path class="cls-2" d="M314.57,191.32a42.65,42.65,0,0,1-19.49-4.73c-19.3-9.9-28.7-23.71-31.12-27.7a40.13,40.13,0,0,1-2.54-36.36l2.52-6a36,36,0,0,1,48.94-18.33c32.08,15.59,43.81,45.89,41.63,61.45a30.79,30.79,0,0,1-3.75,10.63,40.59,40.59,0,0,1-24.48,19.35A42.46,42.46,0,0,1,314.57,191.32ZM279.82,105a30.82,30.82,0,0,0-11.16,13.56l-2.52,6a35,35,0,0,0,2.21,31.71c4.63,7.63,14.7,18.42,29.08,25.8a37.37,37.37,0,0,0,27.46,2.72,35.51,35.51,0,0,0,21.42-16.92,25.74,25.74,0,0,0,3.15-8.85c2-14.64-10.3-42.29-38.8-56.14A31,31,0,0,0,279.82,105Z"/><path class="cls-13" d="M297.47,181.92a37.26,37.26,0,0,0,27.37,2.71,35.39,35.39,0,0,0,21.35-16.86,25.78,25.78,0,0,0,3.11-8.62l-59.81-3.89.17,6.86a8.33,8.33,0,0,1-8.69,8.53h0A80.74,80.74,0,0,0,297.47,181.92Z"/><path class="cls-1" d="M271.28,109.34c.19-.68,4.43-4.65,7.11-6.46h0a33.49,33.49,0,0,1,33.38-2.35c30.31,14.73,42.31,43.79,40.21,58.8a18.51,18.51,0,0,1-1.24,4.51A20.68,20.68,0,0,1,335,176.12a68.46,68.46,0,0,1-21,.18C292,173.23,263.63,136.83,271.28,109.34Z"/><path class="cls-2" d="M324.17,179.58a76,76,0,0,1-10.52-.75c-11.77-1.65-25.6-12.21-35.23-26.9s-13.16-30.51-9.61-43.27h0c.6-2.14,7.06-7.16,8.14-7.9a36.15,36.15,0,0,1,35.93-2.53c32.08,15.59,43.81,45.89,41.63,61.45a21.15,21.15,0,0,1-1.41,5.13,23.38,23.38,0,0,1-17.67,13.83A66.64,66.64,0,0,1,324.17,179.58ZM279.75,105a16.61,16.61,0,0,0-7.18,13.48c-.12,9.55,3.38,20.29,10.13,30.6,8.72,13.31,21.45,23.21,31.66,24.64a66.29,66.29,0,0,0,20.21-.16,18.23,18.23,0,0,0,13.8-10.74,16.06,16.06,0,0,0,1.07-3.88c2-14.64-10.3-42.29-38.8-56.14A31,31,0,0,0,279.82,105Zm-6,5h0Z"/><path class="cls-14" d="M164,84.73s-11.76,38.74,40.5,41.61c13.32.73,23.94-.71,32.36-3.27,19-5.78,28.45-26.67,19.26-44a2.1,2.1,0,0,0-2-1.11Z"/><path class="cls-2" d="M211.29,129.09q-3.37,0-6.88-.19c-18.58-1-31.53-6.59-38.49-16.54C157,99.62,161.4,84.62,161.6,84l.51-1.68L254,75.42a4.65,4.65,0,0,1,4.46,2.46,32.57,32.57,0,0,1,1.33,27.87,34.62,34.62,0,0,1-22.1,19.77A90.89,90.89,0,0,1,211.29,129.09ZM166.11,87.15c-.76,3.9-1.89,13.89,4,22.32,6,8.58,17.65,13.4,34.55,14.33,11.83.65,22.42-.41,31.48-3.17A29.52,29.52,0,0,0,255,103.79a27.1,27.1,0,0,0-1-23.24Z"/><ellipse class="cls-14" cx="209.76" cy="84.27" rx="47.7" ry="19.57" transform="matrix(1, -0.02, 0.02, 1, -1.86, 4.79)"/><path class="cls-2" d="M208.23,106.42c-11.88,0-23-1.81-31.64-5.16-10-3.89-15.56-9.52-15.7-15.85s5.18-12.21,15-16.55c9.09-4,21.2-6.41,34.08-6.71S235,63.67,244.3,67.28c10,3.89,15.56,9.51,15.71,15.85s-5.18,12.21-15,16.55c-9.09,4-21.2,6.41-34.08,6.71Q209.58,106.42,208.23,106.42Zm4.44-39.19q-1.3,0-2.61,0c-12.24.28-23.67,2.51-32.18,6.28-7.69,3.41-12,7.69-12,11.75s4.63,8.14,12.47,11.19c8.67,3.37,20.19,5.08,32.43,4.79S234.5,98.76,243,95c7.69-3.41,12-7.69,12-11.75s-4.64-8.14-12.47-11.19C234.45,68.92,223.94,67.23,212.68,67.23Z"/><path class="cls-15" d="M244.87,99.78c-9.13,4-21.25,6.36-34.16,6.71A14.73,14.73,0,0,1,208,123.81a88.5,88.5,0,0,0,28.1-3.29,29.41,29.41,0,0,0,18.79-16.77A27.23,27.23,0,0,0,257,91.39C254.43,94.53,250.34,97.39,244.87,99.78Z"/></svg>