<svg id="Layer_1" data-name="Layer 1" xmlns="http://www.w3.org/2000/svg" xmlns:xlink="http://www.w3.org/1999/xlink" viewBox="0 0 450 450"><defs><style>.cls-1,.cls-8{fill:#625f70;}.cls-12,.cls-2{fill:#575266;}.cls-3{fill:url(#linear-gradient);}.cls-4{fill:url(#linear-gradient-2);}.cls-5{fill:#a57c6f;}.cls-6{fill:#ba9688;}.cls-7{fill:#9e7b80;}.cls-8{stroke:#575266;stroke-miterlimit:10;stroke-width:2.25px;}.cls-9{fill:#e26464;}.cls-10{fill:none;}.cls-11{opacity:0.75;fill:url(#radial-gradient);}.cls-12{opacity:0.1;}</style><linearGradient id="linear-gradient" x1="-9386.19" y1="234.78" x2="-9386.19" y2="350.25" gradientTransform="matrix(-1, 0, 0, 1, -9229.67, 0)" gradientUnits="userSpaceOnUse"><stop offset="0" stop-color="#575266" stop-opacity="0"/><stop offset="0.26" stop-color="#575266" stop-opacity="0.37"/><stop offset="0.55" stop-color="#575266" stop-opacity="0.71"/><stop offset="0.79" stop-color="#575266" stop-opacity="0.92"/><stop offset="0.94" stop-color="#575266"/></linearGradient><linearGradient id="linear-gradient-2" x1="272.64" y1="223.26" x2="347.49" y2="285.63" gradientUnits="userSpaceOnUse"><stop offset="0" stop-color="#575266" stop-opacity="0"/><stop offset="0.22" stop-color="#575266" stop-opacity="0.19"/><stop offset="0.68" stop-color="#575266" stop-opacity="0.69"/><stop offset="0.94" stop-color="#575266"/></linearGradient><radialGradient id="radial-gradient" cx="198.48" cy="126.18" r="83.08" gradientUnits="userSpaceOnUse"><stop offset="0" stop-color="#88869b"/><stop offset="0.15" stop-color="#88869b" stop-opacity="0.88"/><stop offset="0.45" stop-color="#88869b" stop-opacity="0.58"/><stop offset="0.87" stop-color="#88869b" stop-opacity="0.1"/><stop offset="0.91" stop-color="#88869b" stop-opacity="0.06"/><stop offset="0.98" stop-color="#88869b" stop-opacity="0"/></radialGradient></defs><title>jules</title><circle class="cls-1" cx="225" cy="205.38" r="144.73"/><path class="cls-2" d="M225,352.67a147.29,147.29,0,1,1,104.15-43.14A146.33,146.33,0,0,1,225,352.67Zm0-289.46a142.17,142.17,0,1,0,100.53,41.64A141.24,141.24,0,0,0,225,63.21Z"/><path class="cls-3" d="M226.25,350.11A144.73,144.73,0,0,1,138.51,90.28a100,100,0,0,0,93,136.49Z"/><path class="cls-4" d="M225,350.11A144.73,144.73,0,0,0,312.74,90.28a100,100,0,0,1-93,136.49Z"/><path class="cls-5" d="M303.14,253.5a17.24,17.24,0,1,1,1.39,25.63"/><path class="cls-2" d="M315.33,285.49a19.85,19.85,0,0,1-12.4-4.36l3.21-4a14.52,14.52,0,0,0,9.19,3.23,14.68,14.68,0,1,0-10.38-25.06l-3.62-3.62a19.8,19.8,0,1,1,14,33.8Z"/><path class="cls-6" d="M133.41,272c-1.35-18.11-2.15-31,2.34-40.46a21,21,0,0,1,27-10.19l10.35,4.3a65.47,65.47,0,0,0,41.82,2.86l46.47-12.25a38.9,38.9,0,0,1,23.78,1.27h0c16.19,6.18,22.12,21.6,24.9,39.59,0,0,4.73,71.56-60.16,119.73a57.17,57.17,0,0,1-73.57-4.68C157.12,353.68,137.19,322.64,133.41,272Z"/><path class="cls-5" d="M139.7,293.14h0a31.11,31.11,0,0,1,12.81,20.94l2.18,15.09,5,26.89-15.57-26-7.25-28.55Z"/><path class="cls-5" d="M307.54,257.36c-3.26-21-10.44-32.57-23.26-37.47a36.13,36.13,0,0,0-22.21-1.19l-46.47,12.25a68.41,68.41,0,0,1-43.46-3l-10.35-4.3a18.71,18.71,0,0,0-7.2-1.45,18.21,18.21,0,0,0-16.52,10.37,34.17,34.17,0,0,0-2.88,11.79c5.87-3.51,11.9-7.63,19.7-7.35,10.61.39,22.43,6.08,22.43,6.08a62.64,62.64,0,0,0,36.25,4l17.14-3.21c9.59-5.62,15.5-9.88,25.34-4.29a10.32,10.32,0,0,1,8.19,10.55,22.08,22.08,0,0,1-1.39,8.21,5,5,0,0,0,2.44,6.39,20.55,20.55,0,0,1,4.87,29.2h0a21.7,21.7,0,0,0-3.49,7.13L265.58,305a21.7,21.7,0,0,0,1.25,15l6.89,14.71,7.84,6a145.41,145.41,0,0,0,20.33-42.58C308.35,275.88,307.62,258.82,307.54,257.36Z"/><path class="cls-2" d="M215.93,390.6q-1.9,0-3.8-.12A59.81,59.81,0,0,1,174.59,374a133,133,0,0,1-27.81-38.75c-8.81-18.39-14.17-39.62-15.92-63.09-1.45-19.45-2.1-31.87,2.58-41.75a23.47,23.47,0,0,1,30.31-11.46l10.35,4.3A63.27,63.27,0,0,0,214.29,226l46.47-12.25a41.22,41.22,0,0,1,25.34,1.35c18.93,7.22,24.11,26,26.51,41.59l0,.22c0,.75,1.13,18.62-5.84,42.68a150.13,150.13,0,0,1-55.35,79.27A59.65,59.65,0,0,1,215.93,390.6ZM154.59,222.23a18.21,18.21,0,0,0-16.52,10.37c-4.13,8.71-3.49,20.56-2.1,39.17,1.7,22.83,6.89,43.44,15.43,61.26a127.88,127.88,0,0,0,26.74,37.27,54.41,54.41,0,0,0,70.27,4.47,145,145,0,0,0,53.48-76.59c6.46-22.3,5.73-39.36,5.66-40.82-3.26-21-10.44-32.57-23.26-37.47a36.13,36.13,0,0,0-22.21-1.19l-46.47,12.25a68.41,68.41,0,0,1-43.46-3l-10.35-4.3A18.72,18.72,0,0,0,154.59,222.23Z"/><path class="cls-5" d="M213.61,332.32A15.81,15.81,0,0,1,211,319.94a10.19,10.19,0,0,1,2.6-4.93c1.06-1.15,2.45-2.7,3.75-4.28,4.34-5.24,5-15.93,5-15.93l-38-10.9-10.56,15.35,8.33,54.36s-5.5-31.64,31.42-21.3"/><path class="cls-7" d="M182.17,300.61h0a16,16,0,0,0,10.34,11.07h0a16,16,0,0,0,11.28-.39l1.56-.65A16,16,0,0,0,215,298.42h0a12.55,12.55,0,0,0-9-14.08l-10.35-2.93L186,289A11.12,11.12,0,0,0,182.17,300.61Z"/><path class="cls-2" d="M197.65,315.08a18.56,18.56,0,0,1-17.94-13.82h0A13.68,13.68,0,0,1,184.44,287l10.67-8.45,11.61,3.28a15.11,15.11,0,0,1,10.81,16.95A18.44,18.44,0,0,1,206.34,313l-1.56.65A18.55,18.55,0,0,1,197.65,315.08Zm-13-15.13a13.44,13.44,0,0,0,18.16,9l1.56-.65a13.35,13.35,0,0,0,8.1-10.27,10,10,0,0,0-7.15-11.21l-9.09-2.57-8.62,6.82a8.56,8.56,0,0,0-3,8.9Z"/><path class="cls-2" d="M214.95,390.2q-2.9,0-5.82-.28c-19.37-1.88-34.34-17.63-34.82-36.64a32.47,32.47,0,0,1,1.06-9.35c3.35-12.33,16-20,28.14-17.08a22.1,22.1,0,0,1,10.11,5.47,1.29,1.29,0,0,1-.19,2h0a3.5,3.5,0,0,1-3.15.31,50.5,50.5,0,0,0-6.69-2.17c-9.5-2.28-20,5-22.64,14.73-.66,2.41-1.59,4.42-1.52,7.24.42,16.43,13.4,28.76,30.2,30.39a54.4,54.4,0,0,0,37.75-10.46l3.05,4.11A59.45,59.45,0,0,1,214.95,390.2Z"/><path class="cls-8" d="M190.77,273.7h0A32.47,32.47,0,0,0,170,292.43h0a102.71,102.71,0,0,0-7.3,29.34l-3.84,39.81a26.06,26.06,0,0,0,4.31,17l.8,1.19a13.05,13.05,0,0,0,17.56,3.91h0a13.05,13.05,0,0,0,6.1-13.6l-8.25-43.87a47.44,47.44,0,0,1,5.52-32.46h0a14.72,14.72,0,0,1,8.17-6.64h0a14.71,14.71,0,0,1,10.58.55l.38.17a52.6,52.6,0,0,1,30.56,41.54,336.88,336.88,0,0,1,2.33,48,14.25,14.25,0,0,0,7.27,12.69h0a14.27,14.27,0,0,0,17.38-2.63l1.43-1.51a14.27,14.27,0,0,0,3.11-14.48c-3.53-10.17-9.83-28.21-15.86-44.78a92.87,92.87,0,0,0-47.2-52h0A17.17,17.17,0,0,0,190.77,273.7Z"/><path class="cls-2" d="M180.38,247.81a3.58,3.58,0,0,1-3-.41,70.16,70.16,0,0,0-18.63-7.9,10.43,10.43,0,0,0-7.9,1.16c-2.31,1.41-4.65,2.74-6.17,4.8a1.29,1.29,0,0,1-1.7.32h0a1.31,1.31,0,0,1-.59-1.47c1-3.6,3.54-7.76,7.19-9.19s6.36-2.22,10.39-1.22c9,2.24,17.49,9,20.84,12a1.15,1.15,0,0,1-.42,2Z"/><path class="cls-2" d="M152.85,308.91a23.13,23.13,0,0,0-1.08-6.2c-1.2-3.41-3.13-5.88-6.07-9.11a25.3,25.3,0,0,1-5.29-8.89,92.46,92.46,0,0,1-4.94-30.53c.11-13.53,1.48-19.2,2.6-21.58l-4.62-2.19c-2,4.13-3,12.12-3.1,23.73a97.57,97.57,0,0,0,5.15,32c1.37,4.06,1,5.8,3.86,9,3.35,3.67,6.38,6.37,8.62,12.13l.88,2.09a2.7,2.7,0,0,0,3.18,1.56h0S153,310.8,152.85,308.91Z"/><path class="cls-8" d="M263.25,330.65l15,34a7.12,7.12,0,0,0,6.51,4.24h0a7.12,7.12,0,0,0,5.6-2.73l11.51-14.68A99.42,99.42,0,0,0,323,283.86c-1.41-22.06-8.33-47-29.61-61.87,0,0,18.72,17.87,12.32,47.83-5,23.58-29.89,44.45-40.24,52.27A7.11,7.11,0,0,0,263.25,330.65Z"/><path class="cls-8" d="M132.35,256.74s-7.54,63.26,7.77,93.09l0,0a4.49,4.49,0,0,0,.73.58,7.12,7.12,0,0,0,10.86-4.82l.47-2.69c-10.59-15.73-18-56-20.21-70.83Z"/><path class="cls-2" d="M221.56,248.42l-2.16-.36a4.24,4.24,0,0,1-2.61-1.53l0,0a1.17,1.17,0,0,1,.9-1.91H220a14.57,14.57,0,0,0,11.53-5.48,19.22,19.22,0,0,1,5.42-4.78,18.32,18.32,0,0,1,18.73.36l3.49,2.12a1.7,1.7,0,0,1,.18,2.78h0a12.41,12.41,0,0,1-6,0L251,239c-4.93-1.76-9-1.22-12.8,2.43A23.19,23.19,0,0,1,221.56,248.42Z"/><circle class="cls-9" cx="242.59" cy="294.56" r="4.33" transform="translate(-92.54 477.05) rotate(-79.1)"/><circle class="cls-9" cx="278.38" cy="259.98" r="1.73" transform="translate(-29.56 484.15) rotate(-79.1)"/><circle class="cls-9" cx="272.57" cy="293.14" r="3.37" transform="translate(-66.84 505.33) rotate(-79.1)"/><circle class="cls-9" cx="280.54" cy="274.81" r="2.16" transform="translate(-42.38 498.31) rotate(-79.1)"/><circle class="cls-9" cx="255.38" cy="313.81" r="4.95" transform="translate(-101.08 505.22) rotate(-79.1)"/><path class="cls-10" d="M252.81,63.33a83,83,0,1,1-135.57,45.44A144.71,144.71,0,1,0,252.81,63.33Z"/><path class="cls-11" d="M198.48,209.26A83.08,83.08,0,0,0,252.81,63.33a144.87,144.87,0,0,0-135.57,45.44,83.12,83.12,0,0,0,81.24,100.48Z"/><path class="cls-12" d="M203.43,284.39l-.38-.17a14.72,14.72,0,0,0-18.76,6.09h0a47.44,47.44,0,0,0-5.52,32.46L187,366.62a13,13,0,0,1-1.8,9.39,57.22,57.22,0,0,0,6.7,3.55l.1-.07a11.85,11.85,0,0,0,4.33-12.82l-11.27-38.9a43.05,43.05,0,0,1,2.16-29.8h0a13.35,13.35,0,0,1,6.8-6.71h0a13.35,13.35,0,0,1,9.61-.42c1,.34,2.14.73,3.35,1.16a43.41,43.41,0,0,1,23.08,19.5A52.45,52.45,0,0,0,203.43,284.39Z"/><circle class="cls-9" cx="225.68" cy="342.35" r="4.33" transform="translate(-153.18 499.2) rotate(-79.1)"/><circle class="cls-9" cx="210.69" cy="360.77" r="2.16" transform="translate(-183.42 499.41) rotate(-79.1)"/><path class="cls-2" d="M149,258s-1.08,1.27-2.15.42c-.92-.73-.18-2-.18-2s8.61-14.31,28.66-4.57a2.6,2.6,0,0,1,1.16,3.59h0a2.54,2.54,0,0,1-3.29,1.09,26.42,26.42,0,0,0-17.5-2C150.86,255.57,149,258,149,258Z"/><path class="cls-5" d="M152.84,259.12l.06,0c4.82,3.44,6.72,3.76,11,2.95l7.7-2a1.28,1.28,0,0,1,1.53.84h0a1.3,1.3,0,0,1-.4,1.39,21.3,21.3,0,0,1-12,4.71,20.35,20.35,0,0,1-9.63-2.92,3.73,3.73,0,0,1-1.64-2.16h0a2.41,2.41,0,0,1,.58-2.33h0A2.41,2.41,0,0,1,152.84,259.12Z"/><path class="cls-2" d="M166.85,253.6a5.48,5.48,0,1,1-10.94.56c-.16-3,2.67-3.91,5.69-4.07S166.69,250.58,166.85,253.6Z"/><path class="cls-2" d="M251.25,259.13s1,1.36,2.11.6c1-.65.35-1.94.35-1.94-.08-.15-7.35-15-28.16-7a2.6,2.6,0,0,0-1.46,3.48h0a2.54,2.54,0,0,0,3.18,1.37,26.42,26.42,0,0,1,17.61-.51C249.61,256.56,251.24,259.11,251.25,259.13Z"/><path class="cls-5" d="M247.33,259.92l-.06,0c-5.1,3-7,3.17-11.26,2l-7.5-2.62a1.28,1.28,0,0,0-1.6.7h0a1.3,1.3,0,0,0,.28,1.42,21.3,21.3,0,0,0,11.52,5.72,20.35,20.35,0,0,0,9.84-2.08,3.73,3.73,0,0,0,1.82-2h0a2.41,2.41,0,0,0-.37-2.37h0A2.41,2.41,0,0,0,247.33,259.92Z"/><path class="cls-2" d="M233.85,253.22a5.48,5.48,0,0,0,10.85,1.5c.42-3-2.33-4.13-5.32-4.54S234.27,250.23,233.85,253.22Z"/></svg>