<svg id="Layer_1" data-name="Layer 1" xmlns="http://www.w3.org/2000/svg" xmlns:xlink="http://www.w3.org/1999/xlink" viewBox="0 0 450 450"><defs><style>.cls-1{fill:#756a6a;}.cls-2{fill:#575266;}.cls-3{fill:#6b6262;}.cls-4{fill:#fcecd9;}.cls-5{fill:#f6e1cf;}.cls-6{fill:url(#linear-gradient);}.cls-7{fill:url(#linear-gradient-2);}.cls-8{fill:#d2ffff;}.cls-9{fill:url(#linear-gradient-3);}.cls-10{fill:url(#linear-gradient-4);}.cls-11{fill:#f78d8d;}.cls-12{fill:url(#linear-gradient-5);}.cls-13{fill:url(#linear-gradient-6);}.cls-14{fill:#e0bb9d;}.cls-15{fill:#efefef;}.cls-16{fill:#ffe7b6;}</style><linearGradient id="linear-gradient" x1="300.77" y1="299.01" x2="240.94" y2="330.44" gradientUnits="userSpaceOnUse"><stop offset="0" stop-color="#756a6a" stop-opacity="0"/><stop offset="1" stop-color="#756a6a"/></linearGradient><linearGradient id="linear-gradient-2" x1="115.89" y1="311.19" x2="158.72" y2="311.19" xlink:href="#linear-gradient"/><linearGradient id="linear-gradient-3" x1="203.16" y1="293.33" x2="203.16" y2="352.03" xlink:href="#linear-gradient"/><linearGradient id="linear-gradient-4" x1="192.85" y1="302.9" x2="192.85" y2="255.25" xlink:href="#linear-gradient"/><linearGradient id="linear-gradient-5" x1="101.69" y1="146.56" x2="338.26" y2="146.56" gradientUnits="userSpaceOnUse"><stop offset="0.09" stop-color="#ed6e6e" stop-opacity="0"/><stop offset="0.17" stop-color="#ed6e6e" stop-opacity="0.09"/><stop offset="0.75" stop-color="#ed6e6e" stop-opacity="0.74"/><stop offset="1" stop-color="#ed6e6e"/></linearGradient><linearGradient id="linear-gradient-6" x1="104.56" y1="167.93" x2="334.36" y2="167.93" gradientUnits="userSpaceOnUse"><stop offset="0" stop-color="#dd5b5b" stop-opacity="0"/><stop offset="0.08" stop-color="#dd5b5b" stop-opacity="0.16"/><stop offset="0.2" stop-color="#dd5b5b" stop-opacity="0.38"/><stop offset="0.33" stop-color="#dd5b5b" stop-opacity="0.57"/><stop offset="0.46" stop-color="#dd5b5b" stop-opacity="0.72"/><stop offset="0.59" stop-color="#dd5b5b" stop-opacity="0.85"/><stop offset="0.72" stop-color="#dd5b5b" stop-opacity="0.93"/><stop offset="0.86" stop-color="#dd5b5b" stop-opacity="0.98"/><stop offset="1" stop-color="#dd5b5b"/></linearGradient></defs><title>lt_dan</title><path class="cls-1" d="M110.63,182.79l-10.22,9.55c-5,4.27-6.21,16.91-6.81,23.46l-4.07,23A25.19,25.19,0,0,1,84.8,251.3L66.21,276.81a25.19,25.19,0,0,0,.46,30.29h0A25.19,25.19,0,0,1,72,322.55v36.72a25.19,25.19,0,0,0,27.35,25.09l23.37-2A68.2,68.2,0,0,1,167,394h0a68.2,68.2,0,0,0,60.65,8.18l64-22a68.2,68.2,0,0,1,27.22-3.52L357,379.5a25.19,25.19,0,0,0,26.32-19.08L387.85,342a25.19,25.19,0,0,0-2.69-18.72L362.21,283.9a53.16,53.16,0,0,1-7.12-30.25h0a53.16,53.16,0,0,0-12.37-37.7l-5.27-6.26A53.16,53.16,0,0,1,325,175.46V139.83a24.77,24.77,0,0,0-.58-5.37c-3.45-15.6-30.91-90.31-100.93-90.31-84.86,0-97.35,51.39-98.28,67.4,0,.77-.09,1.54-.2,2.31l-5.76,40.85C118.38,160.8,115.32,178.79,110.63,182.79Z"/><path class="cls-2" d="M205.57,408.27A70.86,70.86,0,0,1,165.64,396a66,66,0,0,0-42.75-11.23l-23.36,2a27.6,27.6,0,0,1-30-27.5V322.54a22.88,22.88,0,0,0-4.79-14,27.73,27.73,0,0,1-.51-33.19l18.59-25.5a22.78,22.78,0,0,0,4.28-11.34l4.1-23.17c.93-10.25,2.52-20.53,7.63-24.88l10.22-9.55c3.15-2.68,6.24-15.66,7.78-26.58l5.76-40.85c.1-.7.13-1.4.18-2.11.42-7.13,6.78-69.68,100.7-69.68,67.63,0,98,68.29,103.29,92.21a27.37,27.37,0,0,1,.63,5.89v35.63a50.82,50.82,0,0,0,11.91,32.67l5.27,6.26a55.33,55.33,0,0,1,12.93,39.42,50.55,50.55,0,0,0,6.8,28.87l22.95,39.38a27.47,27.47,0,0,1,2.95,20.51L385.65,361a27.49,27.49,0,0,1-28.84,20.92l-38.14-2.83a65.45,65.45,0,0,0-26.26,3.39l-64,22A70.35,70.35,0,0,1,205.57,408.27Zm-77.09-28.58A70.82,70.82,0,0,1,168.36,392a66.07,66.07,0,0,0,58.5,7.9l64-22A70.13,70.13,0,0,1,319,374.26l38.14,2.83A22.72,22.72,0,0,0,381,359.84l4.55-18.42a22.66,22.66,0,0,0-2.43-16.92l-22.95-39.38a55.41,55.41,0,0,1-7.44-31.63,50.5,50.5,0,0,0-11.8-36l-5.27-6.26a55.67,55.67,0,0,1-13-35.78V139.83A22.52,22.52,0,0,0,322,135c-.2-.88-23-88.42-98.57-88.42-35.66,0-62.18,9.06-78.85,26.93a63.32,63.32,0,0,0-17,38.2c0,.84-.1,1.67-.21,2.5L121.63,155c-.81,5.73-3.86,24.74-9.39,29.54l-10.18,9.51C97.67,197.85,96.5,210.58,96,216l-4.1,23.17a27.33,27.33,0,0,1-5.16,13.54l-18.59,25.5a22.88,22.88,0,0,0,.42,27.38,27.74,27.74,0,0,1,5.8,16.93v36.73A22.77,22.77,0,0,0,99.11,382l23.36-2C124.47,379.77,126.48,379.69,128.48,379.69Z"/><path class="cls-3" d="M133,249,217.33,360.5c-17.21.17-35.12-2.68-51.65-7C119.2,341.23,89,296.4,95.87,248.83a155.31,155.31,0,0,1,20.08-56.57Z"/><path class="cls-3" d="M234.14,350.66l84.38-111.55,4.15,4.82C329.43,251.79,340,261.1,347,271.8c11.84,18.1,10.91,36.58-.85,45.61C328.2,331.2,278.83,351.11,234.14,350.66Z"/><path class="cls-1" d="M324.4,134.46c-3.45-15.6-30.91-90.31-100.93-90.31l-15.77.64s-25.33,16.75-25.33,74.77Z"/><path class="cls-2" d="M327.49,137.22,180,121.74v-2.18c0-58.65,25.34-76.08,26.42-76.79l.56-.37,16.44-.67h0c30.21,0,56.94,13.91,77.42,40.24,16,20.53,24,43,26,52ZM184.8,117.39l136.38,14.31A149.11,149.11,0,0,0,297,84.94c-19.81-25.46-44.54-38.37-73.51-38.37l-14.92.61C205.17,49.86,185.37,67.72,184.8,117.39Z"/><path class="cls-3" d="M186.6,73.69C138.16,77,130.25,97.1,130.25,97.1l-2.8,14.35L180,119.33C180,99.85,182.81,84.95,186.6,73.69Z"/><path class="cls-3" d="M321.18,131.69a132.88,132.88,0,0,0-6.51-17.21c-21-19.21-57.59-41.26-114.2-41.26-3,0-5.81.07-8.55.18-3.85,10.62-6.89,25-7.11,44Z"/><path class="cls-4" d="M130.39,137.29a585.24,585.24,0,0,1-21.33,74.12,50.75,50.75,0,0,0-2.56,23.8,516.11,516.11,0,0,0,11,59.29A58.55,58.55,0,0,0,140.6,328c11.91,8.32,28.34,17.37,44.2,18,23.67,1,57.49,5.22,100.66-22.2A85.94,85.94,0,0,0,325,251.25c0-23.9-2.87-56.31-13.66-94.24C311.32,157,251.68,126.41,130.39,137.29Z"/><path class="cls-5" d="M118.4,302.46l43.37-5.25a7.48,7.48,0,0,0,7.22-7.48v3.74a7.48,7.48,0,0,0-7.22-7.48l-47.25-1.65-1,0Z"/><path class="cls-5" d="M264.93,287.2l-11.07,39.87-.76,10a150.18,150.18,0,0,0,31.05-15.24,83,83,0,0,0,38.41-70.54c0-8.17-.35-16.43-1-24.75l-23.78-39.34-25.51-2.77,15.26,34.34a42.23,42.23,0,0,1-10.25,48.46h0A42.23,42.23,0,0,0,264.93,287.2Z"/><path class="cls-6" d="M235.25,344.35c15-2.87,31.74-8.8,50.2-20.53a84.83,84.83,0,0,0,31-35,86.79,86.79,0,0,0,6.5-18.86s-28.47,50.92-71.84,56.54Z"/><path class="cls-7" d="M119.82,291.55S139.38,320,150,321.28l8.73,16c-4.43-2.45-14.42-6.71-18.13-9.3a58.55,58.55,0,0,1-23.11-33.5l-1.6-9.43Z"/><path class="cls-2" d="M207.57,349.25c-6.11,0-11.78-.28-17-.55-2-.1-4-.2-5.84-.27-16.76-.68-34-10.4-45.48-18.44a61,61,0,0,1-24.07-34.89,514.1,514.1,0,0,1-11-59.58,53.44,53.44,0,0,1,2.68-24.93A588,588,0,0,0,128,136.81l.36-1.76,1.79-.16c120.59-10.82,181.64,19.66,182.24,20l.93.48.29,1c9.15,32.17,13.78,64.1,13.75,94.91a87.86,87.86,0,0,1-40.65,74.62C255.37,345.79,228.88,349.25,207.57,349.25ZM132.39,139.54a600.76,600.76,0,0,1-21.05,72.69,48.55,48.55,0,0,0-2.43,22.67,509,509,0,0,0,10.92,59A56.11,56.11,0,0,0,142,326c11,7.67,27.32,16.94,42.91,17.57,1.9.08,3.86.17,5.89.28,22.91,1.14,54.3,2.72,93.37-22.09a83,83,0,0,0,38.41-70.54c0-30-4.44-61.15-13.27-92.53C301.32,155,242.25,130,132.39,139.54Z"/><path class="cls-5" d="M146.47,285c-4-14.43-.66-22.94,3.23-27.7a12.54,12.54,0,0,1,12.63-4L177.91,257a32.29,32.29,0,0,0,12,.54l22.74-3.27a19.13,19.13,0,0,1,20.94,13.12l7.21,22.6a3.91,3.91,0,0,1-1.09,4.07h0a3.91,3.91,0,0,1-6-.93L227.9,283a18.5,18.5,0,0,0-14.45-9.18l-27.35-2.33a18.5,18.5,0,0,0-4.42.15l-16.86-.77A14.84,14.84,0,0,0,152,277.17Z"/><path class="cls-5" d="M131.1,180.7s16.82-17.19,59.13-17.19,66.91,5.86,88.86,31.81l-.92-53.57H134.93Z"/><path class="cls-5" d="M128.43,216l3.64,4.81A17.47,17.47,0,0,0,146,227.74h0A17.47,17.47,0,0,0,160.48,220l2.34-3.48-1.44-1.12a26.31,26.31,0,0,0-33,.57Z"/><path class="cls-8" d="M135.87,214.79l-.73-2.46,4.83-3.9,11.47-.22.74,2.93,2.48-2.05.42,1.43c1,4.81-1.92,9.39-7,10.9A9.84,9.84,0,0,1,135.87,214.79Z"/><circle class="cls-2" cx="145.22" cy="212.9" r="3.67" transform="translate(-54.51 50.04) rotate(-16.51)"/><path class="cls-2" d="M162.82,216.56a2.06,2.06,0,0,1-2.35.07,42.5,42.5,0,0,0-7.56-3.86,21.18,21.18,0,0,0-17.71.91l-4.34,2.62a2,2,0,0,1-2.43-.29h0a2,2,0,0,1,.11-2.94l2.05-1.73a39.5,39.5,0,0,1,5-3.12c6.51-2.95,12.54-2.58,19.15.06a32.67,32.67,0,0,1,8.23,5,2.08,2.08,0,0,1-.11,3.3Z"/><path class="cls-1" d="M170.91,207.67a3.41,3.41,0,0,1-4.78,1.27c-4.87-3.05-11.36-5.8-16.05-7.93a18.22,18.22,0,0,0-16.39.74L127.88,205a3.72,3.72,0,0,1-4.36-.53h0a3.72,3.72,0,0,1-.16-5.28l2.8-2.94a19.49,19.49,0,0,1,8.44-5.34,27.85,27.85,0,0,1,19.48,1.28c5.59,2.54,11.06,7.14,16,11.16a3.42,3.42,0,0,1,.83,4.31Z"/><path class="cls-1" d="M262.13,209.35l-6-3.08a34.83,34.83,0,0,1-4.32-2.65c-5.45-3.91-12.22-7.68-21.77-3.25-1.24.58-2.27,1-3.22,1.44-2.46,1.08-8.29,2.91-12.86,5.32a3,3,0,0,1-3.16-.29h0a3.08,3.08,0,0,1-.05-4.72c2.46-2.46,9.82-8.12,12.19-9.17.89-.39,1.86-.82,3-1.36,11.94-5.53,21.37-2.14,27.93,1.82a33.12,33.12,0,0,1,8.82,8l2.9,3.69a2.84,2.84,0,0,1-.25,3.78h0A2.84,2.84,0,0,1,262.13,209.35Z"/><path class="cls-5" d="M325,238.7a15.85,15.85,0,1,1-11,27.21"/><path class="cls-2" d="M324.91,272.81a13.22,13.22,0,0,1-9.32-3.74,1.88,1.88,0,0,1,.06-2.89h0a1.85,1.85,0,0,1,2.27,0,8.9,8.9,0,0,0,5.56,1.79c7.34.31,14.12-4.71,14.85-12A13.44,13.44,0,0,0,325,241.12v-4.84a18.26,18.26,0,1,1-.07,36.53Z"/><path class="cls-1" d="M333.08,203.78l-5.7-25L254.49,135l42.81,42.71.47,9.5"/><polygon class="cls-2" points="330.72 204.31 325.25 180.34 270.24 147.25 299.67 176.61 300.19 187.04 295.36 187.28 294.94 178.71 238.74 122.66 329.51 177.25 335.43 203.24 330.72 204.31"/><path class="cls-1" d="M352.88,295.16c-1.55-18-18.41-37.51-30.21-51.22l-4.15-4.82-.07-.08a75.28,75.28,0,0,1-9.34-14l-2.31-4.38a73.14,73.14,0,0,1-5.14-11.7c-2.56-8-8-12-13.32-13.58h0a31.42,31.42,0,0,1-19.68-16.86l-11.52-24.64L294.58,162l22.58,18.81,15.92,23"/><path class="cls-2" d="M350.48,295.37c-1.48-17.14-17.63-35.91-29.42-49.61l-4.36-5.07A77.13,77.13,0,0,1,307,226.14l-2.31-4.38a75.55,75.55,0,0,1-5.31-12.09c-2.51-7.83-7.74-10.84-11.69-12a33.85,33.85,0,0,1-21.19-18.15l-13.59-29.06,42.79,9.31,23.48,19.67,15.92,23-4,2.75-15.73-22.7-21.88-18.22-32.08-7,9.46,20.21A29,29,0,0,0,289,193c7.18,2.09,12.49,7.47,14.95,15.16a71.32,71.32,0,0,0,5,11.31l2.31,4.38a72.32,72.32,0,0,0,9,13.58l4.43,5.15c12.22,14.2,29,33.66,30.58,52.35Z"/><path class="cls-1" d="M113.34,173.56l.37-18.85,37.44-8.15L139.62,171.2c-3.25,7-10.66,12.43-18.13,15.47a9.79,9.79,0,0,0-5.54,5.59l-4.89,13"/><path class="cls-2" d="M113.33,206.16l-4.53-1.7,4.88-13a12.27,12.27,0,0,1,6.9-7c7.87-3.21,14.17-8.54,16.85-14.26L146.89,150l-30.8,6.7-.34,16.94-4.84-.1.41-20.76,44.08-9.59-13.59,29.06c-3.18,6.8-10.43,13-19.41,16.69a7.43,7.43,0,0,0-4.19,4.2Z"/><path class="cls-4" d="M149.26,317.41s12,31,27,35.86c11.1,3.58,20.43,4.95,40.08,3.14,13.39-1.24,31.55-11.15,34-24.39a97.24,97.24,0,0,0,1.4-12.6"/><path class="cls-9" d="M165.12,326.73h0a10.88,10.88,0,0,0,10.24-5.6l2.33-4.21a3.38,3.38,0,0,0-1.4-4.63h0a3.38,3.38,0,0,1,.46-6.2l9-3.1a3.38,3.38,0,0,1,2.25,0l9.76,3.55a3.38,3.38,0,0,1,.93,5.84L197,313.77a3.38,3.38,0,0,0-.53,4.8l4.84,5.93a18.26,18.26,0,0,0,14.15,6.72h12.64a21.69,21.69,0,0,0,12-3.6,112.87,112.87,0,0,0,10-7.38c1.76,2.87,4.22,4.06,3.83,6.84a32.73,32.73,0,0,1-29.82,28c-19.12,1.47-41.4.07-52-3.35-8.9-2.87-14.18-15-17-24.31l-2.59-8.58,6.2,3.82A8.14,8.14,0,0,0,165.12,326.73Z"/><path class="cls-2" d="M201.08,359.63a76.07,76.07,0,0,1-25.57-4.06c-15.91-5.13-28-36-28.5-37.29l4.51-1.74c.12.3,11.75,30,25.47,34.43,10.62,3.43,19.58,4.84,39.11,3,13.31-1.23,29.74-11.08,31.8-22.41a95.38,95.38,0,0,0,1.37-12.28l4.83.24a100.44,100.44,0,0,1-1.44,12.91c-2.78,15.28-22.76,25.13-36.11,26.36C210.55,359.37,205.5,359.63,201.08,359.63Z"/><path class="cls-10" d="M164.82,264.59A14.84,14.84,0,0,0,152,270.9l-5.52,7.87c-4-14.43-.66-22.94,3.23-27.7a12.54,12.54,0,0,1,12.63-4l15.58,3.69a32.29,32.29,0,0,0,12,.54L212.69,248a19.13,19.13,0,0,1,20.94,13.12l7.21,22.6a3.91,3.91,0,0,1-1.09,4.07h0a3.91,3.91,0,0,1-6-.93l-5.84-10.12a18.5,18.5,0,0,0-14.45-9.18l-25,.07a58.35,58.35,0,0,1-9.45-.74Z"/><path class="cls-11" d="M110.61,180.37s-8.92-7.87-8.92-22.78,4.92-38.59,17.22-48.74,54.93-27.43,104.94-19.54,85.53,28.56,101.11,50c11,15.16,15.19,45.57,12.53,58.08-1.06,5-4.39,8.43-8.17,8.43h0a9.61,9.61,0,0,1-7.57-4.21c-10.12-13.43-47.12-54.35-122.49-54.35-37.48,0-62.43,10-74.93,16.73-5.81,3.12-10.66,8.91-13.71,16.4Z"/><path class="cls-12" d="M110.61,180.37s-8.92-7.87-8.92-22.78,4.92-38.59,17.22-48.74,54.93-27.43,104.94-19.54,85.53,28.56,101.11,50c11,15.16,15.19,45.57,12.53,58.08-1.06,5-4.39,8.43-8.17,8.43h0a9.61,9.61,0,0,1-7.57-4.21c-10.12-13.43-47.12-54.35-122.49-54.35-37.48,0-62.43,10-74.93,16.73-5.81,3.12-10.66,8.91-13.71,16.4Z"/><path class="cls-2" d="M329.31,208.36a12.05,12.05,0,0,1-9.61-5.23c-9.42-12.51-46-53.33-120.45-53.33-37.52,0-62.29,10.29-73.72,16.42-5.28,2.83-9.73,8.2-12.55,15.11l-1.36,3.34-2.7-2.39c-.4-.35-9.78-8.81-9.78-24.7a96.05,96.05,0,0,1,4.11-26.9c2.28-7.46,6.57-17.64,14-23.8,6.07-5,19.59-12.12,39.33-17a171.62,171.62,0,0,1,67.63-3.05c23.76,3.75,46,10.72,64.24,20.17,16.9,8.74,30.22,19.4,38.54,30.83,11.55,15.89,15.76,46.94,13,60.12C338.66,204.16,334.37,208.36,329.31,208.36ZM199.25,144.68c32.76,0,62,7.57,87,22.5,20.17,12,32.15,25.76,37.5,32.87a7.09,7.09,0,0,0,5.52,3.19c2.54,0,4.87-2.63,5.67-6.41,2.55-12-1.5-41.47-12.1-56C315,130,302.33,119.87,286.14,111.5c-17.79-9.2-39.47-16-62.69-19.66-50.18-7.92-91.68,9.72-102.91,19-6.55,5.4-16.29,22.31-16.29,46.76a30.47,30.47,0,0,0,5.69,18.13,32.85,32.85,0,0,1,13.16-14C135,155.35,160.61,144.68,199.25,144.68Z"/><path class="cls-13" d="M334.36,198.26c-11-16-51.84-65.2-139.32-65.2-55.51,0-82.26,19.82-90.48,27.42a29.34,29.34,0,0,0,5.37,14.76,33.08,33.08,0,0,1,13.19-14c11.85-6.36,37.5-17,76.13-17,32.75,0,62,7.57,87,22.5,20.2,12.06,32.21,25.81,37.57,32.93a7,7,0,0,0,5.46,3.13C331.41,202.8,333.35,201,334.36,198.26Z"/><path class="cls-2" d="M159.29,271.78h0a8.53,8.53,0,0,1,7.43-2.25l38.63,7a7,7,0,0,1,5.74,6.87h0a7,7,0,0,1-5.17,6.74L180.06,297a27.28,27.28,0,0,1-18.39-1.52h0a8.53,8.53,0,0,1-5-7.76v-9.82A8.53,8.53,0,0,1,159.29,271.78Z"/><path class="cls-14" d="M161.77,289.43l-60.53,2.11a9.6,9.6,0,0,1-9.93-9.59h0a9.6,9.6,0,0,1,9.93-9.59l60.53,2.11a7.48,7.48,0,0,1,7.22,7.48h0A7.48,7.48,0,0,1,161.77,289.43Z"/><circle class="cls-15" cx="100.41" cy="281.95" r="9.1"/><path class="cls-2" d="M100.41,293.47a11.52,11.52,0,1,1,11.52-11.52A11.53,11.53,0,0,1,100.41,293.47Zm0-18.21a6.69,6.69,0,1,0,6.68,6.68A6.69,6.69,0,0,0,100.41,275.26Z"/><path class="cls-2" d="M100.89,294a12,12,0,0,1-8.33-20.65,11.72,11.72,0,0,1,8.77-3.36l60.53,2.11a9.9,9.9,0,0,1,0,19.79L101.32,294Zm0-19.19a7.18,7.18,0,0,0-5,12.34,7.29,7.29,0,0,0,5.24,2L161.68,287a5.07,5.07,0,0,0,0-10.13l-60.53-2.11Z"/><path class="cls-16" d="M161.77,289.43a7.48,7.48,0,0,0,7.22-7.48h0a7.48,7.48,0,0,0-7.22-7.48L148.32,274h0a10,10,0,0,1,0,15.89h0Z"/><path class="cls-2" d="M140.87,292.57l6-4.59a7.61,7.61,0,0,0,0-12.06l-6-4.6,21,.73a9.9,9.9,0,0,1,0,19.79Zm12.58-16a12.54,12.54,0,0,1,0,10.7l8.23-.29a5.07,5.07,0,0,0,0-10.13Z"/><path class="cls-5" d="M253.9,216l-3.64,4.81a17.47,17.47,0,0,1-13.93,6.93h0A17.47,17.47,0,0,1,221.84,220l-2.34-3.48,1.44-1.12a26.31,26.31,0,0,1,33,.57Z"/><path class="cls-8" d="M234.23,221.43c-5.07-1.5-8-6.09-7-10.9l.42-1.43,2.48,2.05.74-2.93,11.47.22,4.83,3.9-.73,2.46A9.84,9.84,0,0,1,234.23,221.43Z"/><circle class="cls-2" cx="237.11" cy="212.9" r="3.67" transform="translate(-34.39 379.74) rotate(-73.49)"/><path class="cls-2" d="M219.5,216.56a2.06,2.06,0,0,0,2.35.07,42.5,42.5,0,0,1,7.56-3.86,21.18,21.18,0,0,1,17.71.91l4.34,2.62a2,2,0,0,0,2.43-.29h0a2,2,0,0,0-.11-2.94l-2.05-1.73a39.5,39.5,0,0,0-5-3.12c-6.51-2.95-12.54-2.58-19.15.06a32.67,32.67,0,0,0-8.23,5,2.08,2.08,0,0,0,.11,3.3Z"/></svg>