<svg id="Layer_1" data-name="Layer 1" xmlns="http://www.w3.org/2000/svg" xmlns:xlink="http://www.w3.org/1999/xlink" viewBox="0 0 450 450"><defs><style>.cls-1{fill:#575266;}.cls-2{fill:url(#linear-gradient);}.cls-3{fill:url(#linear-gradient-2);}.cls-4{fill:#fcecd9;}.cls-5{fill:#f2d6c2;}.cls-6{fill:#756a6a;}.cls-7{fill:#b9b9bd;}.cls-8{fill:#77e0b5;}.cls-9{fill:#b9ead4;}.cls-10{fill:#f99;}.cls-11{fill:url(#linear-gradient-3);}.cls-12{fill:#625f70;}.cls-13{fill:#e5c2aa;}.cls-14{fill:url(#linear-gradient-4);}.cls-15{fill:url(#linear-gradient-5);}.cls-16{fill:none;}.cls-17{fill:#6a6875;}.cls-18{fill:#ff8080;}.cls-19{fill:url(#linear-gradient-6);}.cls-20{fill:url(#linear-gradient-7);}</style><linearGradient id="linear-gradient" x1="95.36" y1="249.49" x2="172.74" y2="249.49" gradientUnits="userSpaceOnUse"><stop offset="0" stop-color="#fff" stop-opacity="0.75"/><stop offset="0.02" stop-color="#fff" stop-opacity="0.66"/><stop offset="0.06" stop-color="#fff" stop-opacity="0.51"/><stop offset="0.1" stop-color="#fff" stop-opacity="0.39"/><stop offset="0.15" stop-color="#fff" stop-opacity="0.28"/><stop offset="0.2" stop-color="#fff" stop-opacity="0.2"/><stop offset="0.25" stop-color="#fff" stop-opacity="0.14"/><stop offset="0.32" stop-color="#fff" stop-opacity="0.11"/><stop offset="0.43" stop-color="#fff" stop-opacity="0.1"/><stop offset="0.47" stop-color="#fff" stop-opacity="0.13"/><stop offset="0.53" stop-color="#fff" stop-opacity="0.23"/><stop offset="0.61" stop-color="#fff" stop-opacity="0.38"/><stop offset="0.67" stop-color="#fff" stop-opacity="0.5"/><stop offset="0.95" stop-color="#fff" stop-opacity="0.5"/><stop offset="1" stop-color="#fff" stop-opacity="0.5"/></linearGradient><linearGradient id="linear-gradient-2" x1="192.73" y1="249.49" x2="270.11" y2="249.49" xlink:href="#linear-gradient"/><linearGradient id="linear-gradient-3" x1="141.67" y1="109.54" x2="156.17" y2="99.26" gradientUnits="userSpaceOnUse"><stop offset="0.07" stop-color="#f95f5f" stop-opacity="0"/><stop offset="0.09" stop-color="#f95f5f" stop-opacity="0.02"/><stop offset="0.43" stop-color="#f95f5f" stop-opacity="0.44"/><stop offset="0.71" stop-color="#f95f5f" stop-opacity="0.74"/><stop offset="0.9" stop-color="#f95f5f" stop-opacity="0.93"/><stop offset="1" stop-color="#f95f5f"/></linearGradient><linearGradient id="linear-gradient-4" x1="111.02" y1="238.53" x2="152.28" y2="258.68" xlink:href="#linear-gradient"/><linearGradient id="linear-gradient-5" x1="203.62" y1="238.49" x2="235.28" y2="252.88" xlink:href="#linear-gradient"/><linearGradient id="linear-gradient-6" x1="300.54" y1="123.25" x2="323.51" y2="137.76" gradientUnits="userSpaceOnUse"><stop offset="0.3" stop-color="#f95f5f" stop-opacity="0"/><stop offset="0.31" stop-color="#f95f5f" stop-opacity="0.02"/><stop offset="0.57" stop-color="#f95f5f" stop-opacity="0.44"/><stop offset="0.78" stop-color="#f95f5f" stop-opacity="0.74"/><stop offset="0.93" stop-color="#f95f5f" stop-opacity="0.93"/><stop offset="1" stop-color="#f95f5f"/></linearGradient><linearGradient id="linear-gradient-7" x1="197.62" y1="93.66" x2="257.57" y2="93.66" gradientUnits="userSpaceOnUse"><stop offset="0.35" stop-color="#575266" stop-opacity="0"/><stop offset="0.38" stop-color="#575266" stop-opacity="0.07"/><stop offset="0.49" stop-color="#575266" stop-opacity="0.4"/><stop offset="0.62" stop-color="#575266" stop-opacity="0.67"/><stop offset="0.74" stop-color="#575266" stop-opacity="0.85"/><stop offset="0.87" stop-color="#575266" stop-opacity="0.96"/><stop offset="1" stop-color="#575266"/></linearGradient></defs><title>mr_white</title><path class="cls-1" d="M251.72,232a121.92,121.92,0,0,0-23.92-6.18,27.65,27.65,0,0,0-10.7.42c-1.06.25-2.25.55-3.5.88a28,28,0,0,0-20.06,33.76,40.86,40.86,0,0,0,3.83,9.92,27.74,27.74,0,0,0,18.92,13.63c6.14,1.23,15.29,2.16,27.94,1.28a27.7,27.7,0,0,0,22.25-13.78q.28-.5.56-1C274.71,256,267.36,237.84,251.72,232Z"/><path class="cls-2" d="M113.74,225.72a121.92,121.92,0,0,1,23.92-6.18,27.65,27.65,0,0,1,10.7.42c1.06.25,2.25.55,3.5.88a28,28,0,0,1,20.06,33.76,40.86,40.86,0,0,1-3.83,9.92,27.74,27.74,0,0,1-18.92,13.63c-6.14,1.23-15.29,2.16-27.94,1.28A27.7,27.7,0,0,1,99,265.65q-.28-.5-.56-1C90.75,249.77,98.11,231.6,113.74,225.72Z"/><path class="cls-3" d="M251.72,225.72a121.92,121.92,0,0,0-23.92-6.18,27.65,27.65,0,0,0-10.7.42c-1.06.25-2.25.55-3.5.88a28,28,0,0,0-20.06,33.76,40.86,40.86,0,0,0,3.83,9.92,27.74,27.74,0,0,0,18.92,13.63c6.14,1.23,15.29,2.16,27.94,1.28a27.7,27.7,0,0,0,22.25-13.78q.28-.5.56-1C274.71,249.77,267.36,231.6,251.72,225.72Z"/><path class="cls-4" d="M311.94,331.7c18.92-28.67,35.48-75.36,33.61-150.48-1.36-55.05-45.66-99.69-100.72-100.66l-2.31,0c-77.4,0-102.36,33.08-113,73.65A325.14,325.14,0,0,0,120.82,199a373,373,0,0,1-10.47,54.16A222.86,222.86,0,0,0,104,286.52s-14.72,96,125.53,91.18A102.91,102.91,0,0,0,311.94,331.7Z"/><path class="cls-5" d="M189.44,216.43a41.48,41.48,0,0,0,3.2,10.75,11.64,11.64,0,0,0,9.34,6.65A35.25,35.25,0,0,0,222.05,230l4.21-5.3s-16.2,8.19-25.74,3.23c-5.29-2.75-8.3-7.81-9.95-11.78A.6.6,0,0,0,189.44,216.43Z"/><path class="cls-5" d="M179.75,216.43a41.48,41.48,0,0,1-3.2,10.75,11.64,11.64,0,0,1-9.34,6.65A35.25,35.25,0,0,1,147.14,230l-4.21-5.3s16.2,8.19,25.74,3.23c5.29-2.75,8.3-7.81,9.95-11.78A.6.6,0,0,1,179.75,216.43Z"/><path class="cls-5" d="M335.2,278.92a301.63,301.63,0,0,0-57.84-24.06,31.9,31.9,0,0,0-20.48-26.08,137.27,137.27,0,0,0-26.93-7,31.14,31.14,0,0,0-12,.47c-1.2.28-2.53.62-3.94,1a31.64,31.64,0,0,0-23.32,27.09,32.64,32.64,0,0,0-9.39.12c0-.15,0-.3,0-.45A31.47,31.47,0,0,0,158,223c-1.41-.37-2.73-.7-3.92-1a31,31,0,0,0-12-.47c-8.77,1.38-18.66,3.32-24.87,5.39-1.76,9.13-3.87,18.23-6.31,27.24a220.32,220.32,0,0,0-5.78,28.69c4.67,3.32,12.68,5.34,18.56,5.74,14.17,1,24.41-.06,31.28-1.44a31.06,31.06,0,0,0,21.19-15.26c.58-1,1.1-2.11,1.58-3.18a47.57,47.57,0,0,0,2.71-7.92,31.13,31.13,0,0,0,.91-6.68c0,.53,0,1.06,0,1.59a27.55,27.55,0,0,1,9.12-.14c0-.34,0-.68,0-1a31.31,31.31,0,0,0,.91,6.79,46,46,0,0,0,4.31,11.17A31.23,31.23,0,0,0,217,287.81c6.92,1.39,17.21,2.43,31.46,1.45a31.19,31.19,0,0,0,25.06-15.51q.32-.57.63-1.16a30.64,30.64,0,0,0,3.38-12.34A296.64,296.64,0,0,1,333.73,284Q334.48,281.48,335.2,278.92Z"/><path class="cls-5" d="M220.33,363.2h0a19.77,19.77,0,0,1-13.9,3.72l-2.43-.27a19.77,19.77,0,0,1-15.7-11.24l-3.58-7.61a3.88,3.88,0,0,0-4-2.91l-14.18,1a3.87,3.87,0,0,0-3.55,3.2c-.63,3.6-2.47,9.56-7.89,12.82,19,7.4,43,10.64,71.88,9.66a99.7,99.7,0,0,0,24.58-4l.41-5a35.81,35.81,0,0,0-1.47-13.46l-1.32-4.27a63.94,63.94,0,0,0-23.4-32.81L224,310.79a85.74,85.74,0,0,0-43.58-16.21l-.84-.07a58.74,58.74,0,0,0-24.3,3.14l-2.38.84a35.8,35.8,0,0,0-21.27,20.27L125,335a35.8,35.8,0,0,0-1.8,5.77,72.91,72.91,0,0,0,8.19,7.7c.07-.48.16-1,.27-1.44l2.31-9.57a37.57,37.57,0,0,1,22.89-26.18l3-1.18a17.43,17.43,0,0,1,5.44-1.16l16.92-.86A37.57,37.57,0,0,1,198.75,311l10.77,4.53a30,30,0,0,1,18.24,24.64l.52,5.13A19.77,19.77,0,0,1,220.33,363.2Z"/><path class="cls-5" d="M128.31,170.43h0c33-7.42,69-13.51,102.34-8l4.45.74c13.91,2.31,30.57,7.24,37.62,19.09,7.68,12.92,13.87,29.18,15.22,45q.08,1,.16,2l.31,5.19s6.24,103-35.58,132.95l-16.47,7.31a100.4,100.4,0,0,0,73.45-44.36c23.59-35.75,34.76-85.88,33.19-149,0-.47,0-.93-.05-1.4C182.66,108.68,128.31,170.43,128.31,170.43Z"/><path class="cls-6" d="M253,237.4h0a1.38,1.38,0,0,0,1.25-1.24c.76-7.36-.68-11.36-5.63-14a26.52,26.52,0,0,0-18-2.27,19.67,19.67,0,0,0-4.52,1.56h0Q216.65,226,206.91,230l-1.23.51a1.7,1.7,0,0,0-1,1.76h0a1.7,1.7,0,0,0,1.84,1.48h0A77,77,0,0,0,227.25,229l2.86-1.09a19.41,19.41,0,0,1,14.88,1,13.82,13.82,0,0,1,6.55,7.6A1.4,1.4,0,0,0,253,237.4Z"/><polygon class="cls-7" points="128.31 170.43 128.31 170.43 128.31 170.43 128.31 170.43"/><path class="cls-5" d="M284.09,203.88c2.34,8,3.73,18.14,4.31,30.52,0,0,8.11-48.06,23.09-44.32,13.61,3.4,24.12,34.1,25.47,70.57q7.1-35.35,6-79.37c0-.39,0-.77,0-1.16-20.63-8.53-158.69-64.69-214.64-11.62l-2,11.65h0a85.61,85.61,0,0,1,18.09-9.81,120.42,120.42,0,0,1,46.52-8.24C218.32,162.6,273.66,168.1,284.09,203.88Z"/><path class="cls-1" d="M345.55,181.23c.93,37.56-2.74,68-9,92.66l.33-5.09"/><circle class="cls-1" cx="231.61" cy="295.49" r="3.43"/><path class="cls-1" d="M156.71,323.15h0a.45.45,0,0,0,.5.45c3.35-.39,22.63-2.49,34-.44a5.09,5.09,0,0,0,5.68-3.13l0-.09a1.31,1.31,0,0,0-.86-1.68,55.84,55.84,0,0,0-37.51,2.09A3,3,0,0,0,156.71,323.15Z"/><path class="cls-5" d="M187.9,212.88a40.15,40.15,0,0,1-19.5-5l-1-.54a36,36,0,0,0-28.3-1.84l-5.33,1.84a1.13,1.13,0,0,1-1.42-.66h0a1.13,1.13,0,0,1,.43-1.35l.6-.39a36.29,36.29,0,0,1,35.43-2.6q1.07.51,2.08,1.07a35.08,35.08,0,0,0,32.23.93l3.66-1.76a40.09,40.09,0,0,1,15-3.93,31.6,31.6,0,0,1,21.14,6.65h0a1.12,1.12,0,0,1,.28,1.46h0a1.12,1.12,0,0,1-1.35.48l-6.57-2.38c-8.7-2.9-18-1.66-26.29,2.32l-3.66,1.76A40.14,40.14,0,0,1,187.9,212.88Z"/><path class="cls-5" d="M173.66,191.9a1.44,1.44,0,0,0,.6,1.87c4.48,2.51,8.49,4.77,13.58,4.77a33.06,33.06,0,0,0,8.65-1.15,16.24,16.24,0,0,0,8.51-5.75h0a1.63,1.63,0,0,0,0-2h0a1.63,1.63,0,0,0-2-.47l-3.05,1.49c-7.72,3.72-16.72,4.24-24.37.56a1.43,1.43,0,0,0-1.92.68Z"/><path class="cls-8" d="M132.26,245.23l14.77-.6a7.65,7.65,0,0,1-7.65,7.65c-4,0-7.32-2.54-7.62-6.43"/><path class="cls-9" d="M139.39,254.83c-4.74,0-8.44-3.19-8.78-7.58v-1.34l2.65,1.13-.11-2.7,15-.61V246A8.82,8.82,0,0,1,139.39,254.83Z"/><path class="cls-1" d="M123.26,252.5h0a1.17,1.17,0,0,1-.65-1.28l.62-3.22a6.25,6.25,0,0,1,1.28-2.79c2.08-2.53,5.24-3.12,9.14-3.24h.05l15.23.18-.77,5.12-14.41-.18c-2.92.1-5.37-.7-6.94,1.76l-2.06,3.23A1.17,1.17,0,0,1,123.26,252.5Z"/><path class="cls-10" d="M126.12,167.62l-17.46-19.89a19.55,19.55,0,0,1-4.73-15.07c1.3-11.65,6.76-31.27,28.1-41.76a17.87,17.87,0,0,1,14.45-.55l20.22,8Z"/><path class="cls-1" d="M126.54,172l-19.8-22.55a22.16,22.16,0,0,1-5.35-17c1.29-11.56,6.83-32.62,29.51-43.78A20.45,20.45,0,0,1,147.42,88l23,9.09Zm13.32-80.33a15.19,15.19,0,0,0-6.7,1.55c-20.49,10.08-25.51,29.23-26.68,39.75a17,17,0,0,0,4.11,13.1l15.12,17.22L163,99.62l-17.44-6.89A15.44,15.44,0,0,0,139.86,91.64Z"/><path class="cls-11" d="M145.07,130.33l18-30.74-17.51-6.92a15.5,15.5,0,0,0-5.7-1.09,15.25,15.25,0,0,0-6.73,1.56,49.38,49.38,0,0,0-6,3.49A22.94,22.94,0,0,1,146,121.8Z"/><path class="cls-12" d="M345.69,193.31c-135.57-84.78-219.42-25.66-219.42-25.66q1.43-6.35,3.28-13.45c10.61-40.57,35.58-73.65,113-73.65l2.31,0c55.06,1,99.35,45.6,100.72,100.66Z"/><path class="cls-1" d="M348.31,198l-4-2.48c-30.6-19.14-61-32.39-90.47-39.4-23.5-5.59-46.41-7.24-68.1-4.89a155,155,0,0,0-43,10.79,88.37,88.37,0,0,0-15,7.76l-5.42,3.81,1.45-6.46c1-4.39,2.1-8.94,3.3-13.54,6.35-24.28,16.63-41.25,32.35-53.42C178.69,85.23,205.87,78,242.53,78l2.35,0a104.2,104.2,0,0,1,72.26,30.79,105.71,105.71,0,0,1,31,72.36ZM205.24,145a215,215,0,0,1,49.56,6c28.77,6.82,58.45,19.48,88.28,37.65l-.09-7.44a100.59,100.59,0,0,0-29.47-68.83,99.11,99.11,0,0,0-68.73-29.29l-2.26,0c-35.48,0-61.64,6.89-80,21.08-14.78,11.44-24.48,27.54-30.53,50.66-.66,2.51-1.29,5-1.88,7.48,8.56-4.7,27.19-13.14,54.72-16.18A185.83,185.83,0,0,1,205.24,145Z"/><path class="cls-1" d="M340.06,157.33c-23.16-17.39-47.92-29.86-73.59-37.07a198.76,198.76,0,0,0-62.92-7.2c-36.19,1.67-60.3,12.82-60.54,12.94l-2.18-4.63c1-.47,25.1-11.65,62.24-13.41a203.72,203.72,0,0,1,64.63,7.33c26.34,7.37,51.72,20.13,75.44,37.94Z"/><path class="cls-1" d="M115.76,153.62l-5-1.26c12.95-51,41.76-60.86,43-61.25L155.36,96l-.79-2.43.8,2.43c-.07,0-6.9,2.36-15.13,10.56C126.39,120.31,119.29,139.74,115.76,153.62Z"/><path class="cls-13" d="M293.48,289a1.81,1.81,0,0,0-2.73-.93c-4.15,2.83-13.39,11.1-14.83,29.38-1.5,19-4.19,26.36-5.21,28.56a4.44,4.44,0,0,0-.41,1.87h0a4.51,4.51,0,0,0,5.6,4.37l.38-.1a4.5,4.5,0,0,0,2.81-2.12c2.06-3.58,5.64-13.75,4-39.93a21.86,21.86,0,0,1,2.88-12.52,15.67,15.67,0,0,1,6.63-6.39,1.8,1.8,0,0,0,.91-2.2Z"/><path class="cls-6" d="M114.49,237.4h0a1.38,1.38,0,0,1-1.25-1.24c-.76-7.36.68-11.36,5.63-14a26.52,26.52,0,0,1,18-2.27,19.67,19.67,0,0,1,4.52,1.56h0q9.48,4.59,19.22,8.61l1.23.51a1.7,1.7,0,0,1,1,1.76h0a1.7,1.7,0,0,1-1.84,1.48h0A77,77,0,0,1,140.22,229l-2.86-1.09a19.41,19.41,0,0,0-14.88,1,13.82,13.82,0,0,0-6.55,7.6A1.4,1.4,0,0,1,114.49,237.4Z"/><circle class="cls-1" cx="139.18" cy="247.04" r="3.63"/><path class="cls-9" d="M219.74,246.09l-.11-2.3,15.06-.12,0,2.71,2.59-1.26.07,1.34c-.13,4.4-3.66,7.77-8.4,8A8.82,8.82,0,0,1,219.74,246.09Z"/><path class="cls-1" d="M245,251.34h0a1.17,1.17,0,0,0,.59-1.32l-.78-3.19a6.25,6.25,0,0,0-1.41-2.73c-2.2-2.42-5.39-2.86-9.29-2.78H234l-15.2.92,1,5.07,14.39-.88c2.92,0,5.33-1,7,1.42l2.22,3.12A1.17,1.17,0,0,0,245,251.34Z"/><circle class="cls-1" cx="228.8" cy="246.66" r="3.63" transform="translate(-11.81 11.51) rotate(-2.81)"/><path class="cls-14" d="M113.74,225.72a121.92,121.92,0,0,1,23.92-6.18,27.65,27.65,0,0,1,10.7.42c1.06.25,2.25.55,3.5.88a28,28,0,0,1,20.06,33.76,40.86,40.86,0,0,1-3.83,9.92,27.74,27.74,0,0,1-18.92,13.63c-6.14,1.23-15.29,2.16-27.94,1.28A27.7,27.7,0,0,1,99,265.65q-.28-.5-.56-1C90.75,249.77,98.11,231.6,113.74,225.72Z"/><path class="cls-15" d="M251.72,225.72a121.92,121.92,0,0,0-23.92-6.18,27.65,27.65,0,0,0-10.7.42c-1.06.25-2.25.55-3.5.88a28,28,0,0,0-20.06,33.76,40.86,40.86,0,0,0,3.83,9.92,27.74,27.74,0,0,0,18.92,13.63c6.14,1.23,15.29,2.16,27.94,1.28a27.7,27.7,0,0,0,22.25-13.78q.28-.5.56-1C274.71,249.77,267.36,231.6,251.72,225.72Z"/><path class="cls-1" d="M130.9,282.33q-4.73,0-9.85-.35a30.13,30.13,0,0,1-24.3-15.07q-.31-.55-.6-1.12a30.12,30.12,0,0,1-1.3-24.61,31,31,0,0,1,18-17.85A124.83,124.83,0,0,1,137.26,217a30.06,30.06,0,0,1,11.69.46c1.2.28,2.4.59,3.57.9a30.69,30.69,0,0,1,21.88,36.84,43.48,43.48,0,0,1-4.07,10.54,30.21,30.21,0,0,1-20.66,14.9A96.09,96.09,0,0,1,130.9,282.33Zm11-60.57a24.89,24.89,0,0,0-3.88.31,119.71,119.71,0,0,0-23.41,6h0a25.86,25.86,0,0,0-15,14.9,24.67,24.67,0,0,0,1.07,20.43q.25.48.51.94a25,25,0,0,0,20.2,12.49c10.39.72,19.56.3,27.26-1.24a25.11,25.11,0,0,0,17.19-12.35,38.37,38.37,0,0,0,3.58-9.3,25.55,25.55,0,0,0-18.23-30.67c-1.12-.3-2.28-.59-3.44-.86A25.16,25.16,0,0,0,141.94,221.76Z"/><path class="cls-1" d="M234.57,282.33a96,96,0,0,1-18.77-1.68,30.21,30.21,0,0,1-20.66-14.9,43.48,43.48,0,0,1-4.07-10.54A30.69,30.69,0,0,1,213,218.36c1.17-.31,2.37-.61,3.57-.9a30.07,30.07,0,0,1,11.69-.46,124.86,124.86,0,0,1,24.42,6.31h0a31,31,0,0,1,18,17.85,30.12,30.12,0,0,1-1.3,24.61q-.29.57-.6,1.12A30.13,30.13,0,0,1,244.42,282Q239.31,282.33,234.57,282.33Zm-11-60.57a25.16,25.16,0,0,0-5.82.69c-1.16.27-2.31.57-3.44.86A25.55,25.55,0,0,0,196,254a38.38,38.38,0,0,0,3.58,9.3,25.11,25.11,0,0,0,17.19,12.35c7.69,1.54,16.87,2,27.26,1.24a25,25,0,0,0,20.2-12.49q.26-.46.51-.94A24.67,24.67,0,0,0,265.85,243a25.86,25.86,0,0,0-15-14.9h0a119.73,119.73,0,0,0-23.41-6A24.88,24.88,0,0,0,223.53,221.76Z"/><path class="cls-1" d="M191.78,247.09c-9-3.6-18.19,0-18.28,0l-1.91-4.75c.45-.18,11.09-4.38,22.09,0Z"/><path class="cls-1" d="M335.77,274a288.26,288.26,0,0,0-68.11-29.32l1.27-5a294.12,294.12,0,0,1,69.49,29.89Z"/><path class="cls-1" d="M130.9,282.33q-4.73,0-9.85-.35a30.13,30.13,0,0,1-24.3-15.07q-.31-.55-.6-1.12a30.12,30.12,0,0,1-1.3-24.61,31,31,0,0,1,18-17.85A124.83,124.83,0,0,1,137.26,217a30.06,30.06,0,0,1,11.69.46c1.2.28,2.4.59,3.57.9a30.69,30.69,0,0,1,21.88,36.84,43.48,43.48,0,0,1-4.07,10.54,30.21,30.21,0,0,1-20.66,14.9A96.09,96.09,0,0,1,130.9,282.33Zm11-60.57a24.89,24.89,0,0,0-3.88.31,119.71,119.71,0,0,0-23.41,6h0a25.86,25.86,0,0,0-15,14.9,24.67,24.67,0,0,0,1.07,20.43q.25.48.51.94a25,25,0,0,0,20.2,12.49c10.39.72,19.56.3,27.26-1.24a25.11,25.11,0,0,0,17.19-12.35,38.37,38.37,0,0,0,3.58-9.3,25.55,25.55,0,0,0-18.23-30.67c-1.12-.3-2.28-.59-3.44-.86A25.16,25.16,0,0,0,141.94,221.76Z"/><path class="cls-16" d="M154.07,222c1.19.28,2.51.61,3.92,1A31.47,31.47,0,0,1,181.2,250c8.64-41.44,25.94-95.63,57.9-165.73-33.79.35-58.82,7.17-76.46,20.81-14.56,11.27-24.13,27.16-30.11,50a322.24,322.24,0,0,0-8.64,44.27c-1.07,9.14-2.49,18.32-4.26,27.47a140.4,140.4,0,0,1,22.45-5.39A31,31,0,0,1,154.07,222Z"/><path class="cls-16" d="M177.74,268.68c-.48,1.07-1,2.14-1.58,3.18A31.06,31.06,0,0,1,155,287.12c-6.88,1.38-17.12,2.42-31.28,1.44a31.69,31.69,0,0,1-16.14-5.74q-.27,2.06-.5,4.12l0,.15c0,.3-4.36,31,17.48,55.56,13.64,15.3,34.27,25.06,61.58,29.2C186.09,371.84,165.08,347,177.74,268.68Z"/><path class="cls-1" d="M191.78,247.09c-9-3.6-18.19,0-18.28,0l-1.91-4.75c.45-.18,11.09-4.38,22.09,0Z"/><path class="cls-5" d="M277.35,254.86l.15,5.38c2.63.79,6.38,2,10.9,3.55q.12-2.77.19-5.35C283.69,256.77,279.8,255.57,277.35,254.86Z"/><path class="cls-13" d="M335.2,278.92a302.26,302.26,0,0,0-46.6-20.47q-.07,2.58-.19,5.35A295.13,295.13,0,0,1,333.73,284Q334.48,281.48,335.2,278.92Z"/><path class="cls-1" d="M219.48,380.43c-45.93,0-79.25-11.31-99.12-33.68-23.53-26.49-19.23-58.53-18.93-60.56a224.76,224.76,0,0,1,6.45-33.71,371.68,371.68,0,0,0,10.4-53.79,328.51,328.51,0,0,1,8.8-45.13c6.35-24.28,16.63-41.25,32.35-53.42C178.69,85.23,205.87,78,242.53,78l2.35,0a104.2,104.2,0,0,1,72.26,30.79,105.71,105.71,0,0,1,31,72.36c1.59,64.19-9.86,115.31-34,152l-2.14-1.41,2.14,1.41a105.6,105.6,0,0,1-84.49,47.14Q224.44,380.43,219.48,380.43Zm23-297.32c-35.48,0-61.64,6.89-80,21.08-14.78,11.44-24.48,27.54-30.53,50.66a323.48,323.48,0,0,0-8.67,44.43,376.87,376.87,0,0,1-10.54,54.54,219.61,219.61,0,0,0-6.31,33v.11c0,.31-4.47,31.55,17.75,56.5,18.87,21.19,50.87,31.91,95.21,31.91q4.88,0,10-.17a100.47,100.47,0,0,0,80.39-44.85c23.59-35.75,34.76-85.88,33.19-149a100.61,100.61,0,0,0-29.47-68.87,99.11,99.11,0,0,0-68.73-29.29Z"/><path class="cls-12" d="M161.66,79.68s-6.67,40.85,46.69,36.69c13.6-1.06,24.16-4,32.36-7.7,18.5-8.43,25.22-30.88,13.56-47.19a2.14,2.14,0,0,0-2.18-.86Z"/><path class="cls-1" d="M201,119.22c-15.11,0-26.41-4-33.64-11.84C156.6,95.7,159,79.93,159.14,79.27l.28-1.73,92.14-19.42A4.7,4.7,0,0,1,256.35,60a33.25,33.25,0,0,1,5.11,28,35.35,35.35,0,0,1-19.69,23c-9.36,4.27-20.54,6.93-33.22,7.92Q204.62,119.22,201,119.22ZM164,81.8c-.25,4-.06,14.38,7.12,22.16s19.74,11.21,37,9.86c12.08-.94,22.68-3.46,31.5-7.48a30.25,30.25,0,0,0,16.87-19.65,27.77,27.77,0,0,0-4.18-23.5Z"/><path class="cls-17" d="M256.16,65.45c1.69,10.92-18.2,23.15-44.43,27.33s-48.86-1.29-50.55-12.21,18.2-23.15,44.43-27.33S254.47,54.53,256.16,65.45Z"/><path class="cls-1" d="M194.54,96.74a77,77,0,0,1-17.88-1.92c-10.61-2.56-17-7.48-18-13.86s3.61-13,12.93-18.78c8.67-5.33,20.6-9.41,33.6-11.48s25.59-1.9,35.45.48c10.61,2.56,17,7.48,18,13.86s-3.61,13-12.93,18.78c-8.67,5.33-20.6,9.41-33.6,11.48A112.49,112.49,0,0,1,194.54,96.74Zm28.27-42.35A107.61,107.61,0,0,0,206,55.77c-12.37,2-23.65,5.8-31.77,10.8C166.89,71.09,163,76,163.67,80.17s5.8,7.65,14.16,9.67c9.24,2.23,21.13,2.37,33.5.41s23.65-5.8,31.77-10.8c7.35-4.52,11.2-9.48,10.56-13.61s-5.8-7.65-14.16-9.67A72,72,0,0,0,222.81,54.39Z"/><path class="cls-18" d="M282.61,80.19h0a31.22,31.22,0,0,0-10.36,14.4l-2,5.7a35,35,0,0,0,4.27,31.55c5.17,7.41,15.49,16.95,29.65,23.09,18,7.83,39.33.42,47.76-17.35a26.36,26.36,0,0,0,2.62-9.28c1-14.1-11.89-40.44-41-52.32A31.25,31.25,0,0,0,282.61,80.19Z"/><path class="cls-1" d="M319.11,160.6a40,40,0,0,1-15.94-3.33c-18.61-8.07-28.23-20.39-30.73-24a37.62,37.62,0,0,1-4.59-33.86l2-5.7A33.7,33.7,0,0,1,281,78.17l1.57,2-1.57-2a33.91,33.91,0,0,1,33.47-4.56c30.9,12.61,43.68,40.2,42.6,54.88a28.89,28.89,0,0,1-2.86,10.19,38,38,0,0,1-21.72,19.59A39.76,39.76,0,0,1,319.11,160.6ZM301.76,76.23a28.62,28.62,0,0,0-27.09,19.21l-2,5.7a32.49,32.49,0,0,0,4,29.24c4.76,6.81,14.76,16.22,28.57,22.21a34.71,34.71,0,0,0,25.61.86,33,33,0,0,0,18.82-17,23.83,23.83,0,0,0,2.38-8.37c1-13.7-12.12-38.62-39.42-49.76A28.66,28.66,0,0,0,301.76,76.23Z"/><path class="cls-19" d="M305.18,152.64a34.77,34.77,0,0,0,25.65.87,33,33,0,0,0,18.86-17,24.06,24.06,0,0,0,2.37-8.21H296.12l.58,6.37a7.77,7.77,0,0,1-7.57,8.47h0A75.35,75.35,0,0,0,305.18,152.64Z"/><path class="cls-10" d="M276.39,86.64c.13-.64,3.84-4.6,6.23-6.45h0a31,31,0,0,1,30.45-4.41c29.46,11.78,42.55,38.34,41.5,52.52a17.4,17.4,0,0,1-1,4.6,19.6,19.6,0,0,1-14.22,12.16,64.13,64.13,0,0,1-19.11,1.34C299.59,144.87,270.93,112.69,276.39,86.64Z"/><path class="cls-1" d="M325.45,149.15q-2.67,0-5.41-.2c-11.11-.82-24.68-9.85-34.56-23s-14.15-27.7-11.6-39.85h0c.46-2.2,6.53-7.45,7.17-7.95a33.91,33.91,0,0,1,33.47-4.56c30.9,12.61,43.68,40.2,42.6,54.88a19.87,19.87,0,0,1-1,4.9,22,22,0,0,1-15.74,14.06A64.09,64.09,0,0,1,325.45,149.15Zm-46.64-61.6c-2.07,10.63,1.84,23.48,10.76,35.34s21.3,20.25,30.85,21a61.71,61.71,0,0,0,18.75-1.37,16.84,16.84,0,0,0,12.08-10.72,14.76,14.76,0,0,0,.75-3.64c1-13.7-12.12-38.62-39.42-49.76a28.78,28.78,0,0,0-28.41,3.86A39.89,39.89,0,0,0,278.81,87.55Zm-.13.18Z"/><path class="cls-20" d="M245.49,83.78c-8.79,5.33-20.89,9.4-34.07,11.47-4,.62-7.87,1-11.68,1.25a13.79,13.79,0,0,1-2.12,17.58,86.48,86.48,0,0,0,10.53-.21c12.09-.94,22.7-3.46,31.52-7.48a30.31,30.31,0,0,0,16.9-19.7,28,28,0,0,0,.3-13.53C254.79,76.85,250.95,80.47,245.49,83.78Z"/><path class="cls-6" d="M252.88,342.81l-1.32-4.27a63.94,63.94,0,0,0-23.4-32.81l-1.74-1.27a85.74,85.74,0,0,0-43.58-16.21l-.84-.07a58.74,58.74,0,0,0-24.3,3.14l-2.38.84a35.8,35.8,0,0,0-21.27,20.27l-6.62,16.24a35.81,35.81,0,0,0-1.11,23.87l3.78,12.51A35.81,35.81,0,0,0,151,387.91l18.84,7.57A35.81,35.81,0,0,0,184.32,398L219.11,397a35.81,35.81,0,0,0,34.6-32.87l.64-7.85A35.81,35.81,0,0,0,252.88,342.81Zm-30.13,14.07h0a19.77,19.77,0,0,1-13.9,3.72l-2.43-.27a19.77,19.77,0,0,1-15.7-11.24l-3.58-7.61a3.88,3.88,0,0,0-4-2.91l-14.18,1a3.87,3.87,0,0,0-3.55,3.2c-.88,5-4.13,14.69-16.18,15.09-8.62.29-12.52-3.75-14.28-7.63a14.64,14.64,0,0,1-.8-9.5l2.31-9.57A37.57,37.57,0,0,1,159.31,305l3-1.18a17.43,17.43,0,0,1,5.44-1.16l16.92-.86a37.57,37.57,0,0,1,16.48,2.89l10.77,4.53a30,30,0,0,1,18.24,24.64l.52,5.13A19.77,19.77,0,0,1,222.75,356.88Z"/><path class="cls-1" d="M183.21,400.72A38.19,38.19,0,0,1,168.9,398l-18.84-7.57a38.27,38.27,0,0,1-22.48-24.56l-3.78-12.51A38.57,38.57,0,0,1,125,327.67l6.62-16.24a38.48,38.48,0,0,1,22.85-21.77l2.38-.84a61.09,61.09,0,0,1,25.4-3.29l.85.07A88.31,88.31,0,0,1,228,302.32l1.74,1.27a67,67,0,0,1,24.37,34.17l1.32,4.27A38.34,38.34,0,0,1,257,356.49l-.64,7.85a38.47,38.47,0,0,1-37.17,35.31l-34.78,1.06Zm-6-110.08a55.74,55.74,0,0,0-18.57,3.19l-2.38.84a33.17,33.17,0,0,0-19.69,18.76l-6.62,16.24a33.25,33.25,0,0,0-1,22.1l3.78,12.51A33,33,0,0,0,152,385.44L170.88,393a32.59,32.59,0,0,0,13.36,2.37L219,394.33a33.15,33.15,0,0,0,32-30.43l.64-7.85a33,33,0,0,0-1.36-12.46L249,339.33a61.69,61.69,0,0,0-22.42-31.44l-1.74-1.27a83,83,0,0,0-42.22-15.71l-.85-.07Q179.47,290.65,177.17,290.64Zm33.88,72.74a22.29,22.29,0,0,1-2.5-.14l-2.43-.27a22.57,22.57,0,0,1-17.81-12.74l-3.75-8.09a1.22,1.22,0,0,0-1.27-.92l-14.18,1a1.21,1.21,0,0,0-1.11,1c-.88,5-4.46,16.82-18.72,17.29-10.17.31-14.8-4.8-16.79-9.18a17.37,17.37,0,0,1-1-11.22l2.31-9.57a40.25,40.25,0,0,1,24.51-28l3-1.18a20.08,20.08,0,0,1,6.27-1.34l16.92-.86a40.59,40.59,0,0,1,17.65,3.1L213,306.72a32.69,32.69,0,0,1,19.85,26.83l.52,5.13a22.52,22.52,0,0,1-9,20.34h0A22.36,22.36,0,0,1,211.05,363.38Zm-21.42-22.83,3.48,7.42a17.23,17.23,0,0,0,13.59,9.72l2.43.27a17.11,17.11,0,0,0,18.92-18.74l-.52-5.13a27.37,27.37,0,0,0-16.62-22.47l-10.77-4.53a35,35,0,0,0-15.31-2.68l-16.92.86a14.74,14.74,0,0,0-4.61,1l-3,1.18A34.92,34.92,0,0,0,139,331.77l-2.31,9.57a12,12,0,0,0,.63,7.77c1.92,4.22,5.88,6.29,11.77,6.07,9.48-.31,12.66-7.18,13.65-12.89a6.52,6.52,0,0,1,6-5.39l14.18-1A6.57,6.57,0,0,1,189.63,340.55Z"/></svg>