<svg id="Layer_1" data-name="Layer 1" xmlns="http://www.w3.org/2000/svg" xmlns:xlink="http://www.w3.org/1999/xlink" viewBox="0 0 450 450"><defs><style>.cls-1{fill:url(#linear-gradient);}.cls-2{fill:#b6bcff;}.cls-3{fill:#b9b9bd;}.cls-4{fill:none;}</style><linearGradient id="linear-gradient" x1="95.36" y1="249.49" x2="172.74" y2="249.49" gradientUnits="userSpaceOnUse"><stop offset="0" stop-color="#fff" stop-opacity="0.75"/><stop offset="0.02" stop-color="#fff" stop-opacity="0.66"/><stop offset="0.06" stop-color="#fff" stop-opacity="0.51"/><stop offset="0.1" stop-color="#fff" stop-opacity="0.39"/><stop offset="0.15" stop-color="#fff" stop-opacity="0.28"/><stop offset="0.2" stop-color="#fff" stop-opacity="0.2"/><stop offset="0.25" stop-color="#fff" stop-opacity="0.14"/><stop offset="0.32" stop-color="#fff" stop-opacity="0.11"/><stop offset="0.43" stop-color="#fff" stop-opacity="0.1"/><stop offset="0.47" stop-color="#fff" stop-opacity="0.13"/><stop offset="0.53" stop-color="#fff" stop-opacity="0.23"/><stop offset="0.61" stop-color="#fff" stop-opacity="0.38"/><stop offset="0.67" stop-color="#fff" stop-opacity="0.5"/><stop offset="0.95" stop-color="#fff" stop-opacity="0.5"/><stop offset="1" stop-color="#fff" stop-opacity="0.5"/></linearGradient></defs><title>stroke_ww</title><path class="cls-1" d="M113.74,225.72a121.92,121.92,0,0,1,23.92-6.18,27.65,27.65,0,0,1,10.7.42c1.06.25,2.25.55,3.5.88a28,28,0,0,1,20.06,33.76,40.86,40.86,0,0,1-3.83,9.92,27.74,27.74,0,0,1-18.92,13.63c-6.14,1.23-15.29,2.16-27.94,1.28A27.7,27.7,0,0,1,99,265.65q-.28-.5-.56-1C90.75,249.77,98.11,231.6,113.74,225.72Z"/><path class="cls-2" d="M189.44,216.43a41.48,41.48,0,0,0,3.2,10.75,11.64,11.64,0,0,0,9.34,6.65A35.25,35.25,0,0,0,222.05,230l4.21-5.3s-16.2,8.19-25.74,3.23c-5.29-2.75-8.3-7.81-9.95-11.78A.6.6,0,0,0,189.44,216.43Z"/><path class="cls-2" d="M179.75,216.43a41.48,41.48,0,0,1-3.2,10.75,11.64,11.64,0,0,1-9.34,6.65A35.25,35.25,0,0,1,147.14,230l-4.21-5.3s16.2,8.19,25.74,3.23c5.29-2.75,8.3-7.81,9.95-11.78A.6.6,0,0,1,179.75,216.43Z"/><path class="cls-2" d="M253,237.4h0a1.38,1.38,0,0,0,1.25-1.24c.76-7.36-.68-11.36-5.63-14a26.52,26.52,0,0,0-18-2.27,19.67,19.67,0,0,0-4.52,1.56h0Q216.65,226,206.91,230l-1.23.51a1.7,1.7,0,0,0-1,1.76h0a1.7,1.7,0,0,0,1.84,1.48h0A77,77,0,0,0,227.25,229l2.86-1.09a19.41,19.41,0,0,1,14.88,1,13.82,13.82,0,0,1,6.55,7.6A1.4,1.4,0,0,0,253,237.4Z"/><polygon class="cls-3" points="128.31 170.43 128.31 170.43 128.31 170.43 128.31 170.43"/><path class="cls-2" d="M345.55,181.23c.93,37.56-2.74,68-9,92.66l.33-5.09"/><circle class="cls-2" cx="231.61" cy="295.49" r="3.43"/><path class="cls-2" d="M156.71,323.15h0a.45.45,0,0,0,.5.45c3.35-.39,22.63-2.49,34-.44a5.09,5.09,0,0,0,5.68-3.13l0-.09a1.31,1.31,0,0,0-.86-1.68,55.84,55.84,0,0,0-37.51,2.09A3,3,0,0,0,156.71,323.15Z"/><path class="cls-2" d="M187.9,212.88a40.15,40.15,0,0,1-19.5-5l-1-.54a36,36,0,0,0-28.3-1.84l-5.33,1.84a1.13,1.13,0,0,1-1.42-.66h0a1.13,1.13,0,0,1,.43-1.35l.6-.39a36.29,36.29,0,0,1,35.43-2.6q1.07.51,2.08,1.07a35.08,35.08,0,0,0,32.23.93l3.66-1.76a40.09,40.09,0,0,1,15-3.93,31.6,31.6,0,0,1,21.14,6.65h0a1.12,1.12,0,0,1,.28,1.46h0a1.12,1.12,0,0,1-1.35.48l-6.57-2.38c-8.7-2.9-18-1.66-26.29,2.32l-3.66,1.76A40.14,40.14,0,0,1,187.9,212.88Z"/><path class="cls-2" d="M173.66,191.9a1.44,1.44,0,0,0,.6,1.87c4.48,2.51,8.49,4.77,13.58,4.77a33.06,33.06,0,0,0,8.65-1.15,16.24,16.24,0,0,0,8.51-5.75h0a1.63,1.63,0,0,0,0-2h0a1.63,1.63,0,0,0-2-.47l-3.05,1.49c-7.72,3.72-16.72,4.24-24.37.56a1.43,1.43,0,0,0-1.92.68Z"/><path class="cls-2" d="M123.26,252.5h0a1.17,1.17,0,0,1-.65-1.28l.62-3.22a6.25,6.25,0,0,1,1.28-2.79c2.08-2.53,5.24-3.12,9.14-3.24h.05l15.23.18-.77,5.12-14.41-.18c-2.92.1-5.37-.7-6.94,1.76l-2.06,3.23A1.17,1.17,0,0,1,123.26,252.5Z"/><path class="cls-2" d="M115.76,153.62l-5-1.26c12.95-51,41.76-60.86,43-61.25L155.36,96l-.79-2.43.8,2.43c-.07,0-6.9,2.36-15.13,10.56C126.39,120.31,119.29,139.74,115.76,153.62Z"/><path class="cls-2" d="M114.49,237.4h0a1.38,1.38,0,0,1-1.25-1.24c-.76-7.36.68-11.36,5.63-14a26.52,26.52,0,0,1,18-2.27,19.67,19.67,0,0,1,4.52,1.56h0q9.48,4.59,19.22,8.61l1.23.51a1.7,1.7,0,0,1,1,1.76h0a1.7,1.7,0,0,1-1.84,1.48h0A77,77,0,0,1,140.22,229l-2.86-1.09a19.41,19.41,0,0,0-14.88,1,13.82,13.82,0,0,0-6.55,7.6A1.4,1.4,0,0,1,114.49,237.4Z"/><path class="cls-2" d="M141.17,244a3.64,3.64,0,1,1-4.19.17l-3.82.16.11,2.7-2.65-1.13v1.34c.35,4.39,4,7.58,8.78,7.58A8.82,8.82,0,0,0,148.2,246v-2.3Z"/><path class="cls-2" d="M245,251.34h0a1.17,1.17,0,0,0,.59-1.32l-.78-3.19a6.25,6.25,0,0,0-1.41-2.73c-2.2-2.42-5.39-2.86-9.29-2.78H234l-15.2.92,1,5.07,14.39-.88c2.92,0,5.33-1,7,1.42l2.22,3.12A1.17,1.17,0,0,0,245,251.34Z"/><path class="cls-2" d="M237.3,245.11l-2.59,1.26,0-2.71-3.83,0a3.62,3.62,0,1,1-4.19,0l-7,.06.11,2.3a8.82,8.82,0,0,0,9.23,8.37c4.74-.23,8.27-3.6,8.4-8Z"/><path class="cls-2" d="M130.9,282.33q-4.73,0-9.85-.35a30.13,30.13,0,0,1-24.3-15.07q-.31-.55-.6-1.12a30.12,30.12,0,0,1-1.3-24.61,31,31,0,0,1,18-17.85A124.83,124.83,0,0,1,137.26,217a30.06,30.06,0,0,1,11.69.46c1.2.28,2.4.59,3.57.9a30.69,30.69,0,0,1,21.88,36.84,43.48,43.48,0,0,1-4.07,10.54,30.21,30.21,0,0,1-20.66,14.9A96.09,96.09,0,0,1,130.9,282.33Zm11-60.57a24.89,24.89,0,0,0-3.88.31,119.71,119.71,0,0,0-23.41,6h0a25.86,25.86,0,0,0-15,14.9,24.67,24.67,0,0,0,1.07,20.43q.25.48.51.94a25,25,0,0,0,20.2,12.49c10.39.72,19.56.3,27.26-1.24a25.11,25.11,0,0,0,17.19-12.35,38.37,38.37,0,0,0,3.58-9.3,25.55,25.55,0,0,0-18.23-30.67c-1.12-.3-2.28-.59-3.44-.86A25.16,25.16,0,0,0,141.94,221.76Z"/><path class="cls-2" d="M234.57,282.33a96,96,0,0,1-18.77-1.68,30.21,30.21,0,0,1-20.66-14.9,43.48,43.48,0,0,1-4.07-10.54A30.69,30.69,0,0,1,213,218.36c1.17-.31,2.37-.61,3.57-.9a30.07,30.07,0,0,1,11.69-.46,124.86,124.86,0,0,1,24.42,6.31h0a31,31,0,0,1,18,17.85,30.12,30.12,0,0,1-1.3,24.61q-.29.57-.6,1.12A30.13,30.13,0,0,1,244.42,282Q239.31,282.33,234.57,282.33Zm-11-60.57a25.16,25.16,0,0,0-5.82.69c-1.16.27-2.31.57-3.44.86A25.55,25.55,0,0,0,196,254a38.38,38.38,0,0,0,3.58,9.3,25.11,25.11,0,0,0,17.19,12.35c7.69,1.54,16.87,2,27.26,1.24a25,25,0,0,0,20.2-12.49q.26-.46.51-.94A24.67,24.67,0,0,0,265.85,243a25.86,25.86,0,0,0-15-14.9h0a119.73,119.73,0,0,0-23.41-6A24.88,24.88,0,0,0,223.53,221.76Z"/><path class="cls-2" d="M191.78,247.09c-9-3.6-18.19,0-18.28,0l-1.91-4.75c.45-.18,11.09-4.38,22.09,0Z"/><path class="cls-2" d="M335.77,274a288.26,288.26,0,0,0-68.11-29.32l1.27-5a294.12,294.12,0,0,1,69.49,29.89Z"/><path class="cls-2" d="M130.9,282.33q-4.73,0-9.85-.35a30.13,30.13,0,0,1-24.3-15.07q-.31-.55-.6-1.12a30.12,30.12,0,0,1-1.3-24.61,31,31,0,0,1,18-17.85A124.83,124.83,0,0,1,137.26,217a30.06,30.06,0,0,1,11.69.46c1.2.28,2.4.59,3.57.9a30.69,30.69,0,0,1,21.88,36.84,43.48,43.48,0,0,1-4.07,10.54,30.21,30.21,0,0,1-20.66,14.9A96.09,96.09,0,0,1,130.9,282.33Zm11-60.57a24.89,24.89,0,0,0-3.88.31,119.71,119.71,0,0,0-23.41,6h0a25.86,25.86,0,0,0-15,14.9,24.67,24.67,0,0,0,1.07,20.43q.25.48.51.94a25,25,0,0,0,20.2,12.49c10.39.72,19.56.3,27.26-1.24a25.11,25.11,0,0,0,17.19-12.35,38.37,38.37,0,0,0,3.58-9.3,25.55,25.55,0,0,0-18.23-30.67c-1.12-.3-2.28-.59-3.44-.86A25.16,25.16,0,0,0,141.94,221.76Z"/><path class="cls-4" d="M154.07,222c1.19.28,2.51.61,3.92,1A31.47,31.47,0,0,1,181.2,250c8.64-41.44,25.94-95.63,57.9-165.73-33.79.35-58.82,7.17-76.46,20.81-14.56,11.27-24.13,27.16-30.11,50a322.24,322.24,0,0,0-8.64,44.27c-1.07,9.14-2.49,18.32-4.26,27.47a140.4,140.4,0,0,1,22.45-5.39A31,31,0,0,1,154.07,222Z"/><path class="cls-4" d="M177.74,268.68c-.48,1.07-1,2.14-1.58,3.18A31.06,31.06,0,0,1,155,287.12c-6.88,1.38-17.12,2.42-31.28,1.44a31.69,31.69,0,0,1-16.14-5.74q-.27,2.06-.5,4.12l0,.15c0,.3-4.36,31,17.48,55.56,13.64,15.3,34.27,25.06,61.58,29.2C186.09,371.84,165.08,347,177.74,268.68Z"/><path class="cls-2" d="M191.78,247.09c-9-3.6-18.19,0-18.28,0l-1.91-4.75c.45-.18,11.09-4.38,22.09,0Z"/><path class="cls-2" d="M194.54,96.74a77,77,0,0,1-17.88-1.92c-10.61-2.56-17-7.48-18-13.86s3.61-13,12.93-18.78c8.67-5.33,20.6-9.41,33.6-11.48s25.59-1.9,35.45.48c10.61,2.56,17,7.48,18,13.86s-3.61,13-12.93,18.78c-8.67,5.33-20.6,9.41-33.6,11.48A112.49,112.49,0,0,1,194.54,96.74Zm28.27-42.35A107.61,107.61,0,0,0,206,55.77c-12.37,2-23.65,5.8-31.77,10.8C166.89,71.09,163,76,163.67,80.17s5.8,7.65,14.16,9.67c9.24,2.23,21.13,2.37,33.5.41s23.65-5.8,31.77-10.8c7.35-4.52,11.2-9.48,10.56-13.61s-5.8-7.65-14.16-9.67A72,72,0,0,0,222.81,54.39Z"/><path class="cls-2" d="M319.11,160.6a40,40,0,0,1-15.94-3.33c-18.61-8.07-28.23-20.39-30.73-24a37.62,37.62,0,0,1-4.59-33.86l2-5.7A33.7,33.7,0,0,1,281,78.17l1.57,2-1.57-2a33.91,33.91,0,0,1,33.47-4.56c30.9,12.61,43.68,40.2,42.6,54.88a28.89,28.89,0,0,1-2.86,10.19,38,38,0,0,1-21.72,19.59A39.76,39.76,0,0,1,319.11,160.6ZM301.76,76.23a28.62,28.62,0,0,0-27.09,19.21l-2,5.7a32.49,32.49,0,0,0,4,29.24c4.76,6.81,14.76,16.22,28.57,22.21a34.71,34.71,0,0,0,25.61.86,33,33,0,0,0,18.82-17,23.83,23.83,0,0,0,2.38-8.37c1-13.7-12.12-38.62-39.42-49.76A28.66,28.66,0,0,0,301.76,76.23Z"/><path class="cls-2" d="M183.21,400.72A38.19,38.19,0,0,1,168.9,398l-18.84-7.57a38.27,38.27,0,0,1-22.48-24.56l-3.78-12.51A38.57,38.57,0,0,1,125,327.67l6.62-16.24a38.48,38.48,0,0,1,22.85-21.77l2.38-.84a61.09,61.09,0,0,1,25.4-3.29l.85.07A88.31,88.31,0,0,1,228,302.32l1.74,1.27a67,67,0,0,1,24.37,34.17l1.32,4.27A38.34,38.34,0,0,1,257,356.49l-.64,7.85a38.47,38.47,0,0,1-37.17,35.31l-34.78,1.06Zm-6-110.08a55.74,55.74,0,0,0-18.57,3.19l-2.38.84a33.17,33.17,0,0,0-19.69,18.76l-6.62,16.24a33.25,33.25,0,0,0-1,22.1l3.78,12.51A33,33,0,0,0,152,385.44L170.88,393a32.59,32.59,0,0,0,13.36,2.37L219,394.33a33.15,33.15,0,0,0,32-30.43l.64-7.85a33,33,0,0,0-1.36-12.46L249,339.33a61.69,61.69,0,0,0-22.42-31.44l-1.74-1.27a83,83,0,0,0-42.22-15.71l-.85-.07Q179.47,290.65,177.17,290.64Zm33.88,72.74a22.29,22.29,0,0,1-2.5-.14l-2.43-.27a22.57,22.57,0,0,1-17.81-12.74l-3.75-8.09a1.22,1.22,0,0,0-1.27-.92l-14.18,1a1.21,1.21,0,0,0-1.11,1c-.88,5-4.46,16.82-18.72,17.29-10.17.31-14.8-4.8-16.79-9.18a17.37,17.37,0,0,1-1-11.22l2.31-9.57a40.25,40.25,0,0,1,24.51-28l3-1.18a20.08,20.08,0,0,1,6.27-1.34l16.92-.86a40.59,40.59,0,0,1,17.65,3.1L213,306.72a32.69,32.69,0,0,1,19.85,26.83l.52,5.13a22.52,22.52,0,0,1-9,20.34h0A22.36,22.36,0,0,1,211.05,363.38Zm-21.42-22.83,3.48,7.42a17.23,17.23,0,0,0,13.59,9.72l2.43.27a17.11,17.11,0,0,0,18.92-18.74l-.52-5.13a27.37,27.37,0,0,0-16.62-22.47l-10.77-4.53a35,35,0,0,0-15.31-2.68l-16.92.86a14.74,14.74,0,0,0-4.61,1l-3,1.18A34.92,34.92,0,0,0,139,331.77l-2.31,9.57a12,12,0,0,0,.63,7.77c1.92,4.22,5.88,6.29,11.77,6.07,9.48-.31,12.66-7.18,13.65-12.89a6.52,6.52,0,0,1,6-5.39l14.18-1A6.57,6.57,0,0,1,189.63,340.55Z"/><path class="cls-2" d="M325.45,149.15q-2.67,0-5.41-.2c-11.11-.82-24.68-9.85-34.56-23s-14.15-27.7-11.6-39.85h0c.46-2.2,6.53-7.45,7.17-7.95a33.91,33.91,0,0,1,33.47-4.56c30.9,12.61,43.68,40.2,42.6,54.88a19.87,19.87,0,0,1-1,4.9,22,22,0,0,1-15.74,14.06A64.09,64.09,0,0,1,325.45,149.15Zm-46.64-61.6c-2.07,10.63,1.84,23.48,10.76,35.34s21.3,20.25,30.85,21a61.71,61.71,0,0,0,18.75-1.37,16.84,16.84,0,0,0,12.08-10.72,14.76,14.76,0,0,0,.75-3.64c1-13.7-12.12-38.62-39.42-49.76a28.78,28.78,0,0,0-28.41,3.86A39.89,39.89,0,0,0,278.81,87.55Zm-.13.18Z"/><path class="cls-2" d="M172.37,111.76c-19.25,3.9-30.85,9.29-31.54,9.61L143,126c.18-.09,14.11-6.52,36.62-10.35A35.43,35.43,0,0,1,172.37,111.76Z"/><path class="cls-2" d="M265.85,114.8a205.33,205.33,0,0,0-22.27-4.7q-.89.46-1.81.88a78,78,0,0,1-7.75,3,199.42,199.42,0,0,1,32.45,6.26l.24.07A37.71,37.71,0,0,1,265.85,114.8Z"/><path class="cls-2" d="M257.78,62.18a11.19,11.19,0,0,1,.87,2.87,12.64,12.64,0,0,1-1.79,8.33,28,28,0,0,1-.34,13.29,30.25,30.25,0,0,1-16.87,19.65c-8.81,4-19.41,6.54-31.5,7.48-17.27,1.35-29.72-2-37-9.86a27.51,27.51,0,0,1-6.7-14.37,13.68,13.68,0,0,1-5.56-7.7c-.28,5.07.18,16.49,8.46,25.5,7.24,7.87,18.53,11.84,33.64,11.84q3.64,0,7.57-.31c12.68-1,23.86-3.66,33.22-7.92a35.35,35.35,0,0,0,19.69-23A33.22,33.22,0,0,0,257.78,62.18Z"/><path class="cls-2" d="M348.11,181.16a106.27,106.27,0,0,0-6.47-34.06c-.42.13-.84.24-1.27.35-1.24.3-2.5.55-3.77.77a101,101,0,0,1,6.4,33l.09,7.44c-29.83-18.17-59.5-30.83-88.28-37.65a215,215,0,0,0-49.56-6,185.83,185.83,0,0,0-20.38,1.11c-27.52,3-46.15,11.49-54.72,16.18.6-2.47,1.23-5,1.88-7.48,6-23.13,15.75-39.23,30.53-50.66.49-.38,1-.73,1.51-1.1a31.58,31.58,0,0,1-2.42-4.59c-.75.54-1.49,1.08-2.22,1.65-15.72,12.17-26,29.14-32.35,53.42-1.2,4.6-2.31,9.15-3.3,13.54l-1.45,6.46,5.42-3.81a88.37,88.37,0,0,1,15-7.76,155,155,0,0,1,43-10.79c21.69-2.35,44.61-.71,68.1,4.89,29.43,7,59.87,20.26,90.47,39.4l4,2.48Z"/><path class="cls-2" d="M262.59,79.84a33.23,33.23,0,0,1-.47,5.13,98.2,98.2,0,0,1,11.46,2.93c.09-.6.19-1.2.31-1.78h0a8.15,8.15,0,0,1,1.88-2.88A104.13,104.13,0,0,0,262.59,79.84Z"/><path class="cls-2" d="M262.59,79.84a33.23,33.23,0,0,1-.47,5.13,98.2,98.2,0,0,1,11.46,2.93c.09-.6.19-1.2.31-1.78h0a8.15,8.15,0,0,1,1.88-2.88A104.13,104.13,0,0,0,262.59,79.84Z"/><path class="cls-2" d="M123.78,167.09c.35-1.57.73-3.16,1.11-4.76L110.58,146a17,17,0,0,1-4.11-13.1c1.17-10.52,6.19-29.67,26.68-39.75a15.19,15.19,0,0,1,6.7-1.55,15.44,15.44,0,0,1,5.67,1.08l15.58,6.16.53-.39c.1.24.22.49.33.74h0a34.41,34.41,0,0,1-2.15-6.35L147.42,88a20.45,20.45,0,0,0-16.52.64c-22.68,11.15-28.22,32.21-29.51,43.78a22.16,22.16,0,0,0,5.35,17l16.73,19.05Z"/><path class="cls-2" d="M127.75,169.75l-2,1.37.75.85,1.37-2.33Z"/><path class="cls-2" d="M183.21,400.72A38.19,38.19,0,0,1,168.9,398l-18.84-7.57a38.27,38.27,0,0,1-22.48-24.56l-3.78-12.51A38.57,38.57,0,0,1,125,327.67l6.62-16.24a38.48,38.48,0,0,1,22.85-21.77l2.38-.84a61.09,61.09,0,0,1,25.4-3.29l.85.07A88.31,88.31,0,0,1,228,302.32l1.74,1.27a67,67,0,0,1,24.37,34.17l1.32,4.27A38.34,38.34,0,0,1,257,356.49l-.64,7.85a38.47,38.47,0,0,1-37.17,35.31l-34.78,1.06Zm-6-110.08a55.74,55.74,0,0,0-18.57,3.19l-2.38.84a33.17,33.17,0,0,0-19.69,18.76l-6.62,16.24a33.25,33.25,0,0,0-1,22.1l3.78,12.51A33,33,0,0,0,152,385.44L170.88,393a32.59,32.59,0,0,0,13.36,2.37L219,394.33a33.15,33.15,0,0,0,32-30.43l.64-7.85a33,33,0,0,0-1.36-12.46L249,339.33a61.69,61.69,0,0,0-22.42-31.44l-1.74-1.27a83,83,0,0,0-42.22-15.71l-.85-.07Q179.47,290.65,177.17,290.64Zm33.88,72.74a22.29,22.29,0,0,1-2.5-.14l-2.43-.27a22.57,22.57,0,0,1-17.81-12.74l-3.75-8.09a1.22,1.22,0,0,0-1.27-.92l-14.18,1a1.21,1.21,0,0,0-1.11,1c-.88,5-4.46,16.82-18.72,17.29-10.17.31-14.8-4.8-16.79-9.18a17.37,17.37,0,0,1-1-11.22l2.31-9.57a40.25,40.25,0,0,1,24.51-28l3-1.18a20.08,20.08,0,0,1,6.27-1.34l16.92-.86a40.59,40.59,0,0,1,17.65,3.1L213,306.72a32.69,32.69,0,0,1,19.85,26.83l.52,5.13a22.52,22.52,0,0,1-9,20.34h0A22.36,22.36,0,0,1,211.05,363.38Zm-21.42-22.83,3.48,7.42a17.23,17.23,0,0,0,13.59,9.72l2.43.27a17.11,17.11,0,0,0,18.92-18.74l-.52-5.13a27.37,27.37,0,0,0-16.62-22.47l-10.77-4.53a35,35,0,0,0-15.31-2.68l-16.92.86a14.74,14.74,0,0,0-4.61,1l-3,1.18A34.92,34.92,0,0,0,139,331.77l-2.31,9.57a12,12,0,0,0,.63,7.77c1.92,4.22,5.88,6.29,11.77,6.07,9.48-.31,12.66-7.18,13.65-12.89a6.52,6.52,0,0,1,6-5.39l14.18-1A6.57,6.57,0,0,1,189.63,340.55Z"/><path class="cls-2" d="M122.18,341c-19.87-24.5-15.73-53.77-15.68-54.07v-.11a219.61,219.61,0,0,1,6.31-33,376.87,376.87,0,0,0,10.54-54.54A323.47,323.47,0,0,1,132,154.85c6-23.13,15.75-39.23,30.53-50.66.49-.38,1-.73,1.51-1.1a31.58,31.58,0,0,1-2.42-4.59c-.75.54-1.49,1.08-2.22,1.65-15.72,12.17-26,29.14-32.35,53.42a328.51,328.51,0,0,0-8.8,45.13,371.69,371.69,0,0,1-10.4,53.79,224.76,224.76,0,0,0-6.45,33.71c-.3,2-4.6,34.07,18.93,60.56.8.9,1.63,1.78,2.48,2.65A38.57,38.57,0,0,1,122.18,341Z"/><path class="cls-2" d="M348.11,181.16a106.27,106.27,0,0,0-6.47-34.06c-.42.13-.84.24-1.27.35-1.24.3-2.5.55-3.78.77a101.14,101.14,0,0,1,6.4,33.07c1.56,63.13-9.6,113.26-33.19,149a100.13,100.13,0,0,1-54.56,40.56,38.59,38.59,0,0,1-2.06,5.9,105.31,105.31,0,0,0,60.9-43.64C338.25,296.48,349.7,245.35,348.11,181.16Z"/></svg>