<svg id="Layer_1" data-name="Layer 1" xmlns="http://www.w3.org/2000/svg" viewBox="0 0 450 450"><defs><style>.cls-1{fill:#b6bcff;}</style></defs><title>stroke_cheech</title><path class="cls-1" d="M160.09,353.63a11.48,11.48,0,0,1,1.39-17.9,30.66,30.66,0,0,1,19.54-5c17,1,25.63,9.88,28.43,13.45a1.67,1.67,0,0,1-.41,2.43h0a1.67,1.67,0,0,1-1.9,0c-3-2.23-13.45-9.06-26.44-9.06-3.88,0-11.3.83-14.15,2.76l-.14.1a7.76,7.76,0,0,0-.49,12.39c9.13,7.53,28.59,11.07,28.59,11.07-3.06.25-6.33.38-9.81.38a40.11,40.11,0,0,1-18.66-5Z"/><path class="cls-1" d="M121.73,230.37l.15-.68a4.63,4.63,0,0,1,3.5-3.54c5.76-1.31,19-3.27,28.8-1.64a1.68,1.68,0,0,1,1.41,1.66h0a1.67,1.67,0,0,1-1.45,1.66c-4.08.56-16,2.54-25.61,7.67a4.67,4.67,0,0,1-4.49,0h0A4.72,4.72,0,0,1,121.73,230.37Z"/><path class="cls-1" d="M247.39,233.88l-.16-.74a5,5,0,0,0-3.82-3.86c-6.27-1.43-20.65-3.57-31.37-1.79a1.83,1.83,0,0,0-1.54,1.81h0a1.82,1.82,0,0,0,1.58,1.81c4.45.61,17.44,2.76,27.9,8.36a5.09,5.09,0,0,0,4.9,0h0A5.15,5.15,0,0,0,247.39,233.88Z"/><path class="cls-1" d="M235,318.33c-4.6,0-11.25-.83-14.7-3.4-5.37-4-7.21-12.33-8.43-17.84a31.61,31.61,0,0,0-1.09-4.2,21.07,21.07,0,0,0-9.41-9.58c-1.73-.78-3.43-1.37-5.08-1.94a28.82,28.82,0,0,1-7.11-3.19,12.85,12.85,0,0,1-5.15-13.81,11.13,11.13,0,0,1,2.71-4.89c.38-.4,1-1,1.82-1.76a4.62,4.62,0,0,1,4.94-.89c1.2.5,2,.86,2.53,1.1,7.51,3.57,18.95,4.25,19.06,4.26h.12c1.08.11,26.46,3,34,18.91.07.16.14.31.2.47a2.67,2.67,0,0,0,.12.27c5.67,9.91,6.78,19.35,3.11,26.58a18.2,18.2,0,0,1-14.57,9.77h0A27.91,27.91,0,0,1,235,318.33Zm-43.19-56.66c-.63.6-1.11,1.06-1.39,1.36A6.08,6.08,0,0,0,189,265.7a7.72,7.72,0,0,0,3.13,8.28,25.08,25.08,0,0,0,5.86,2.55c1.67.58,3.56,1.24,5.49,2.1a26.07,26.07,0,0,1,12,12.22A31.46,31.46,0,0,1,216.9,296c1.05,4.77,2.65,12,6.49,14.84,2.62,1.95,10.24,2.71,14.1,2.28h0a13.17,13.17,0,0,0,10.58-7c2.86-5.64,1.8-13.36-3-21.73a7.11,7.11,0,0,1-.4-.85l-.11-.25c-6.13-13-28.59-15.85-29.83-16s-12.72-.86-20.89-4.74C193.59,262.42,193,262.16,191.85,261.67Z"/><path class="cls-1" d="M124.84,318a27.91,27.91,0,0,1-3-.15,18.2,18.2,0,0,1-14.57-9.77c-3.67-7.23-2.56-16.67,3.11-26.58a2.76,2.76,0,0,0,.11-.26c.07-.16.13-.32.21-.48,7.51-15.93,32.89-18.79,34-18.9h.12c.11,0,11.55-.69,19.06-4.26.65-.31,1.73-.77,2.53-1.1a4.62,4.62,0,0,1,4.94.89c.82.77,1.44,1.37,1.82,1.76a11.14,11.14,0,0,1,2.71,4.9,12.85,12.85,0,0,1-5.15,13.81,28.84,28.84,0,0,1-7.11,3.19c-1.65.57-3.35,1.16-5.08,1.94a21.07,21.07,0,0,0-9.41,9.58,31.55,31.55,0,0,0-1.09,4.2c-1.22,5.51-3.06,13.84-8.43,17.84C136.09,317.22,129.44,318,124.84,318Zm20.28-51c-1.22.14-23.69,3-29.82,16l-.11.25a7,7,0,0,1-.4.85c-4.79,8.36-5.85,16.08-3,21.72a13.17,13.17,0,0,0,10.58,7h0c3.86.44,11.49-.33,14.11-2.28,3.84-2.86,5.43-10.07,6.49-14.84a31.54,31.54,0,0,1,1.39-5.13,26.07,26.07,0,0,1,12-12.22c1.94-.87,3.83-1.52,5.49-2.1a25.09,25.09,0,0,0,5.86-2.55,7.72,7.72,0,0,0,3.13-8.28,6.08,6.08,0,0,0-1.46-2.68c-.28-.29-.76-.76-1.39-1.36-.91.38-1.62.69-2,.88C157.84,266.15,146.27,266.94,145.12,267Z"/><path class="cls-1" d="M257.41,222.79a5.32,5.32,0,0,1-2.48-.61l-4.57-2.41c-6.71-3.25-19.21-.79-27.48.85-5.12,1-8.1,1.57-10,1.31-3.9-.53-6.64-3.78-7.52-8.92a3.25,3.25,0,0,1,.72-2.64,3.4,3.4,0,0,1,2.59-1.21c3.33,0,9.89-2.33,16.24-4.57,8.46-3,16.44-5.79,21.2-5.15a17,17,0,0,1,7.94,3.44,20.69,20.69,0,0,1,8,13l.26,1.52a4.53,4.53,0,0,1-1.84,4.45A5.14,5.14,0,0,1,257.41,222.79Zm-16.07-9.62a25.84,25.84,0,0,1,11.25,2.13l.07,0,4.6,2.43h0l-.18-1.05a15.71,15.71,0,0,0-6.08-9.84,12,12,0,0,0-5.6-2.48c-3.56-.48-11.69,2.38-18.87,4.91-6,2.11-11.68,4.11-15.81,4.69.47,1.34,1.32,2.78,2.8,3,1.2.16,4.86-.56,8.39-1.26C227.71,214.56,234.81,213.16,241.33,213.16Z"/><path class="cls-1" d="M177.37,199.43c-2.17,3.89-5.76,8.48-11.26,10.89a9.21,9.21,0,0,0,1.46.39,3.29,3.29,0,0,1,2.25,1.47,3.33,3.33,0,0,1,.43,2.58,12.78,12.78,0,0,0,4.22-4.3A43.25,43.25,0,0,0,178.76,200,.76.76,0,0,0,177.37,199.43Z"/><path class="cls-1" d="M356.49,225.17h-.57a15.24,15.24,0,0,1-10.43-4.79c-10.56-11.18-51.83-48-139.36-52-44.1-2-73.64,5.44-87.32,10.07A29,29,0,0,0,103.5,190.6l-1.43,2.31-2.22-1.57c-.46-.33-11.25-8.14-10.61-22.05a62.44,62.44,0,0,1,5.94-23c4.28-9,10.31-15.8,17.43-19.64,9.09-4.9,27.27-9.72,46.33-12.29a272.77,272.77,0,0,1,78.74,1c53.83,8.69,97.85,26.9,117.75,48.72,13,14.3,16.77,41.35,12.92,52.61A12.6,12.6,0,0,1,356.49,225.17Zm-165-62.23q7.14,0,14.87.34C244.48,165,278.25,173,306.74,187c23,11.29,36.5,23.58,42.47,29.9a10.14,10.14,0,0,0,6.94,3.19,7.43,7.43,0,0,0,7.34-5c3.38-9.87-.19-34.71-11.86-47.5-8.77-9.61-23.28-18.93-42-27-20.53-8.81-45.71-15.78-72.83-20.16-58.71-9.48-108.24,3.39-121.83,10.71-14.24,7.68-20.17,27.16-20.69,38.38a21.29,21.29,0,0,0,6.5,15.91,34.18,34.18,0,0,1,16.33-11.82C129.59,169.41,154.72,162.93,191.51,162.93Z"/><path class="cls-1" d="M177.69,324.23c-8.24,0-14.78-3.78-17.37-7.29a15.94,15.94,0,0,1-1.94-15.25,28,28,0,0,1,18.25-16.87l.29-.07h.3c4.57,0,9.9,2.63,14.61,7.22,4.36,4.25,7.43,9.39,8.2,13.73a14.05,14.05,0,0,1-2.81,11.86C193.51,322,186.94,324.23,177.69,324.23Zm-.17-34.46A23,23,0,0,0,163,303.49a11.1,11.1,0,0,0,1.3,10.49c1.88,2.55,7.2,5.26,13.35,5.26,7.6,0,13-1.68,15.69-4.86a9.1,9.1,0,0,0,1.72-7.78C193.91,299.89,184.54,290.05,177.52,289.77Z"/><path class="cls-1" d="M177.77,323.15c-7.62,0-13.65-3.47-16-6.69a14.09,14.09,0,0,1-2-3.75,5.17,5.17,0,0,1,1.21-5.34,5.26,5.26,0,0,1,5.41-1.34,40.83,40.83,0,0,0,24.92.13l.26-.08a5.28,5.28,0,0,1,5.22,1.22,5.16,5.16,0,0,1,1.46,5.1C195.79,321.75,184.37,323.15,177.77,323.15Zm-13-13.54a1.48,1.48,0,0,0-1,.44,1.33,1.33,0,0,0-.32,1.4,10.26,10.26,0,0,0,1.44,2.73c1.84,2.49,7,5.14,12.94,5.14,9.47,0,15.42-2.8,16.75-7.88a1.36,1.36,0,0,0-.39-1.35,1.42,1.42,0,0,0-1.42-.34l-.26.08a44.64,44.64,0,0,1-27.25-.14A1.46,1.46,0,0,0,164.74,309.61Z"/><path class="cls-1" d="M162.28,222.79c-1.82,0-4.27-.92-8.81-2.68-7-2.7-17.47-6.78-23.54-4.53l-4.27,1.77a4.72,4.72,0,0,1-6.35-5.63l.41-1.47a20.37,20.37,0,0,1,8.57-11.79A14.12,14.12,0,0,1,135.9,196c4.37,0,11.08,3.89,18.18,8,5.25,3,10.68,6.2,13.49,6.65a3.29,3.29,0,0,1,2.25,1.47,3.34,3.34,0,0,1,.41,2.69C168.83,219.91,165.93,222.79,162.28,222.79Zm-28.16-12.86c6.93,0,14.93,3.1,21.16,5.52,2.83,1.1,6,2.34,7,2.34s1.93-1.21,2.55-2.63c-3.59-1.16-8.31-3.91-13.26-6.78-5.63-3.27-12.64-7.34-15.67-7.34a9.24,9.24,0,0,0-4.93,1.63,15.38,15.38,0,0,0-6.44,8.92l-.26.92,3.86-1.6A17,17,0,0,1,134.12,209.93Zm32.65,5.71h0Z"/><path class="cls-1" d="M205.33,213a3.23,3.23,0,0,1,.14-1.58c-5.27-3-8.69-8-10.75-12a.72.72,0,0,0-1.33.5,49.92,49.92,0,0,0,4.89,12.57,14,14,0,0,0,9.84,6.86A12.69,12.69,0,0,1,205.33,213Z"/><path class="cls-1" d="M136.33,118.54a90.32,90.32,0,0,1,42.41-41.27c15.81-7.53,34.68-11.36,56.09-11.36,19,0,36.36,4.52,51.58,13.42A108.89,108.89,0,0,1,318.77,109,143.66,143.66,0,0,1,340,151q3.3,2.25,6.23,4.59l-.81-4.2,0-.15A143.68,143.68,0,0,0,323,106.08,114.07,114.07,0,0,0,289.09,75c-16-9.41-34.29-14.18-54.26-14.18-22.25,0-41.91,4-58.45,11.93a95.44,95.44,0,0,0-46.5,47.49C131.94,119.63,134.1,119.07,136.33,118.54Z"/><path class="cls-1" d="M381.72,269.71c-.17-.48-.39-1.07-.64-1.74a165.62,165.62,0,0,0-14.91-29.82c-2.54-4-5.36-8.6-8-13.11a12.31,12.31,0,0,1-1.69.12h-.57a15.3,15.3,0,0,1-4-.73c3.16,5.6,6.75,11.47,9.92,16.47a160.47,160.47,0,0,1,14.45,28.89c.24.63.44,1.18.6,1.63,6.84,19.41,6.64,33.85-.72,51.52-21.06,50.52-92,61.12-147.84,61.12h-.08a245.26,245.26,0,0,1-51.57-5.34c-26.46-5.51-63.62-17.9-90.43-45.69-16.8-17.41-22-40.35-15.33-68.19C76.45,241.57,89,220,98.48,206c5.62-8.27,10.8-16.76,15.47-25.35a29,29,0,0,0-10.45,10l-1.43,2.31-.83-.58q-3.37,5.44-7,10.79c-9.76,14.36-22.6,36.52-28.32,60.55-7.05,29.65-1.46,54.19,16.63,72.93,27.71,28.72,65.91,41.49,93.07,47.14a256.06,256.06,0,0,0,50.13,5.48c1.46,0,2.36,0,2.61,0,45.83,0,82.5-6.8,109-20.19,21.17-10.71,35.82-25.54,43.55-44.09C388.8,305.93,389,290.46,381.72,269.71Z"/><path class="cls-1" d="M345.5,220.36c-1.4-1.48-3.34-3.42-5.86-5.66,5.72,33-.93,61-6.34,72.94a1.39,1.39,0,0,1-1.21.83,1.47,1.47,0,0,1-1.36-.71c-5.83-9.54-16.82-21-22.85-27a4,4,0,0,1-.72-4.75c8.78-16.51,11.26-40.4,11.86-56.46q-2.42-1.48-5.06-3c-.43,15.52-2.56,40.59-11.31,57a9.09,9.09,0,0,0,1.63,10.79c5.87,5.82,16.54,16.95,22.09,26A6.58,6.58,0,0,0,332,293.6h.41a6.52,6.52,0,0,0,5.55-3.84c1.69-3.75,7.33-17.69,8.73-39.77a153.61,153.61,0,0,0-.95-29.4Z"/><path class="cls-1" d="M341.6,216.5l1.22,1.16Z"/><path class="cls-1" d="M343.22,218.05h0l-.16-.16Z"/><path class="cls-1" d="M339.68,214.74c.56.5,1.09,1,1.6,1.46C340.77,215.73,340.24,215.24,339.68,214.74Z"/><path class="cls-1" d="M326.94,291.23c-4.92,19.76-15.83,35-32.52,45.36-14.53,9-33.42,14-53.25,14h-.9c-5.39,0-10.39,2.38-14.58,4.72a64.93,64.93,0,0,1-40.57,6.44c-11.16-1.86-22.3-6.66-29.07-12.53a92.31,92.31,0,0,0-14.29-10,63.36,63.36,0,0,1-8.47-6,76.48,76.48,0,0,1-25.8-43.54c-7-34,2.86-58.54,7.43-67.52a70.1,70.1,0,0,0,4-9.48c6.43-19.2,12.27-29.48,20.19-35.5a44.08,44.08,0,0,1,12.34-6.24c-6.23.93-11.76,2-16.6,3.11-8.2,6.77-14.3,17.66-20.77,37a65,65,0,0,1-3.68,8.78c-4.81,9.46-15.2,35.3-7.88,70.87A81.61,81.61,0,0,0,130,337.12a68.38,68.38,0,0,0,9.17,6.44A87.31,87.31,0,0,1,152.7,353c7.44,6.45,19.54,11.7,31.58,13.71a69,69,0,0,0,11.35.94,69.85,69.85,0,0,0,32.55-8c3.61-2,7.86-4.07,12.08-4.07h.08c21.06.12,41.24-5.09,56.77-14.73,17.56-10.89,29.13-26.81,34.5-47.36A6.56,6.56,0,0,1,326.94,291.23Z"/><path class="cls-1" d="M353.35,253.57a21.11,21.11,0,0,0-6.59-5.17c0,.53,0,1.06-.08,1.59q-.12,2-.29,3.84a16.06,16.06,0,0,1,2.36,24.66,22,22,0,0,1-8.44,5.24c-.45,1.3-.87,2.42-1.24,3.37A17.39,17.39,0,0,0,352.18,282,21,21,0,0,0,353.35,253.57Z"/></svg>