<svg id="Layer_1" data-name="Layer 1" xmlns="http://www.w3.org/2000/svg" viewBox="0 0 450 450"><defs><style>.cls-1{fill:#b6bcff;}</style></defs><title>stroke_forrest</title><path class="cls-1" d="M177.7,331.48c-8.46,0-14.63-4.69-17.24-7a2.21,2.21,0,0,1-.35-2.86l0-.05a2.24,2.24,0,0,1,2.79-.8,38,38,0,0,0,14.76,3.5,49.14,49.14,0,0,0,17.95-3.63,2.23,2.23,0,0,1,2.83,1l0,.05a2.21,2.21,0,0,1-.56,2.76A32.37,32.37,0,0,1,177.7,331.48Z"/><path class="cls-1" d="M331.06,152.8l-3.25-1.2a160.59,160.59,0,0,0-40.35-8.92l-2.32-.14.33-15.85a26.22,26.22,0,0,0-1.61-10.13,24.83,24.83,0,0,0-1.46-3.1c-1.45-2.58-6-6-10.88-8.15-10-4.39-24.85,2.05-32.85,5.52a118.65,118.65,0,0,1-26.66,8,106.54,106.54,0,0,1-20.31,1.93c-11.65-.32-21.46-5.51-24.2-7.09a65.91,65.91,0,0,0-12-5.56l-1.06-.36c-.1,0-13-4.07-24.17,2-7.12,3.84-12.07,10.92-15.48,21.13l-4.2-1,2.24-17.12a54.86,54.86,0,0,1,17.54-34,89.93,89.93,0,0,1,39.16-20,240.72,240.72,0,0,1,45.95-5C250,53,280.9,61,307.33,77.85c15,9.56,23.73,19.74,23.73,43.41Zm-41-14.76a166.46,166.46,0,0,1,36.16,7.86V121.27c0-21.57-7.55-30.46-21.49-39.33-25.6-16.29-55.6-24.13-89.13-23.27a235.93,235.93,0,0,0-45,4.91,84.87,84.87,0,0,0-37,18.84,50,50,0,0,0-16,31l-.18,1.41A31.24,31.24,0,0,1,128,105.42c13.06-7,27.35-2.49,27.95-2.29l1.08.37a70.53,70.53,0,0,1,12.86,6c2.48,1.44,11.39,6.15,21.9,6.44A102.1,102.1,0,0,0,211.17,114a113.65,113.65,0,0,0,25.57-7.65c8.68-3.76,24.84-10.74,36.72-5.5,4.9,2.16,10.87,6.16,13.14,10.2a29.78,29.78,0,0,1,1.75,3.7,31,31,0,0,1,1.94,12Z"/><path class="cls-1" d="M228.14,229.69a3.29,3.29,0,1,1-1-.25L221.28,228l-.74,2.93-2.48-2.05-.42,1.43c-1,4.81,1.92,9.39,7,10.9a9.84,9.84,0,0,0,12.22-6.63l.73-2.46Z"/><path class="cls-1" d="M250,237.78a1.77,1.77,0,0,1-2.14.47c-1.82-.58-5.29-3.66-8.23-4.45-7.68-2.07-17.3-2-26-1.59a1.8,1.8,0,0,1-1.66-2.64h0c.41-2.57.81-2.56,4.33-2.56,5.54,0,15.4-.27,23.38,2.42,2.64.89,9.35,6.06,9.35,6.06S250.72,236.74,250,237.78Z"/><path class="cls-1" d="M147.91,230.27l-.42-1.43L145,230.89l-.74-2.93-5.85,1.48a3.38,3.38,0,1,1-1,.25L128,232.07l.73,2.46a9.84,9.84,0,0,0,12.22,6.63C146,239.66,148.93,235.08,147.91,230.27Z"/><path class="cls-1" d="M115.5,237.78a1.77,1.77,0,0,0,2.14.47c1.82-.58,5.72-5.12,8.65-5.91,7.68-2.07,16.87-.53,25.55-.13a1.8,1.8,0,0,0,1.66-2.64h0a5.16,5.16,0,0,0-4.33-2.56c-5.63-.51-14.84-1.31-23,1-5.24,1.47-9.78,7.53-9.78,7.53S114.82,236.74,115.5,237.78Z"/><path class="cls-1" d="M201.67,314.63c-5.76-2.56-11.58-4.53-14-5.33a2.66,2.66,0,0,0-1.25-.09C175.89,311,174.69,311,174.24,311a37.35,37.35,0,0,1-8.79-1.81,2.51,2.51,0,0,0-.78-.12,25.92,25.92,0,0,0-8.08,2.31,2.21,2.21,0,0,1-3-1.4l-.06-.2a2.2,2.2,0,0,1,.45-2.08c1.54-1.76,5.2-5.5,10.21-5.86a9.38,9.38,0,0,1,3.4.41,31.69,31.69,0,0,0,6.76,1.5c.48,0,3.37-.38,10.87-1.66a9.66,9.66,0,0,1,4.7.34c2.87.93,6.17,3,13.93,8.35a2.26,2.26,0,0,1,1,2.09h0A2.22,2.22,0,0,1,201.67,314.63Z"/><path class="cls-1" d="M177.7,329.66c-8.46,0-14.63-4.69-17.24-7a2.21,2.21,0,0,1-.35-2.86l0-.05a2.24,2.24,0,0,1,2.79-.8,38,38,0,0,0,14.76,3.5,49.14,49.14,0,0,0,17.95-3.63,2.23,2.23,0,0,1,2.83,1l0,.05a2.21,2.21,0,0,1-.56,2.76A32.37,32.37,0,0,1,177.7,329.66Z"/><path class="cls-1" d="M146,322.76a3.56,3.56,0,0,1-5.26,2.67c-3.76-2.19-5.78-6.32-6.32-11.17a2.49,2.49,0,0,1,2.49-2.74h0a2.56,2.56,0,0,1,2.44,2A8.38,8.38,0,0,0,144,319.1a3.54,3.54,0,0,1,2,3.67Z"/><path class="cls-1" d="M195.15,351.29a2,2,0,0,1-2.31-.38c-2.57-2.56-8.86-6.85-13.58-6.85a13,13,0,0,0-9.17,4.19,2.06,2.06,0,0,1-1.85.61l-.45-.08a2.08,2.08,0,0,1-1.55-2.91c1.58-3.39,5.31-9.05,13-9.05,8,0,14.15,7.65,16.74,11.42a2.08,2.08,0,0,1-.85,3.06Z"/><path class="cls-1" d="M186.67,183.57a40.15,40.15,0,0,1-19.5-5l-1-.54a36,36,0,0,0-28.3-1.84L132.53,178a1.13,1.13,0,0,1-1.42-.66h0a1.13,1.13,0,0,1,.43-1.35l.6-.39a36.29,36.29,0,0,1,35.43-2.6q1.07.51,2.08,1.07a35.08,35.08,0,0,0,32.23.93l3.66-1.76a40.09,40.09,0,0,1,15-3.93,31.6,31.6,0,0,1,21.14,6.65h0a1.12,1.12,0,0,1,.28,1.46h0a1.12,1.12,0,0,1-1.35.48l-6.57-2.38c-8.7-2.9-18-1.66-26.29,2.32l-3.66,1.76A40.14,40.14,0,0,1,186.67,183.57Z"/><path class="cls-1" d="M210.62,322.76a3.56,3.56,0,0,0,5.26,2.67c3.76-2.19,5.78-6.32,6.32-11.17a2.49,2.49,0,0,0-2.49-2.74h0a2.56,2.56,0,0,0-2.44,2,8.38,8.38,0,0,1-4.61,5.54,3.54,3.54,0,0,0-2,3.67Z"/><path class="cls-1" d="M328.21,266.48a25.78,25.78,0,0,1-16-2.83,2.44,2.44,0,0,1-.85-3.52h0a2.38,2.38,0,0,1,3.09-.77,20.9,20.9,0,1,0,.49-37,2.38,2.38,0,0,1-3.08-.85h0a2.44,2.44,0,0,1,1-3.5,25.74,25.74,0,1,1,15.41,48.42Z"/><path class="cls-1" d="M199,210l-.2-.12c-5.16-3.47-7.82-8.88-9.19-13.24a.76.76,0,0,0-1.47.27A43.25,43.25,0,0,0,190.18,208a36.28,36.28,0,0,0,4.14,7.93C194.56,212.82,196.89,211.18,199,210Z"/><path class="cls-1" d="M169.24,196.64c-1.37,4.36-4,9.77-9.19,13.24-.22.15-.45.28-.68.42,2,1.22,4.17,3,4.17,6.19a7.54,7.54,0,0,1-.06.86,36.25,36.25,0,0,0,5.15-9.32,43.25,43.25,0,0,0,2.08-11.11A.76.76,0,0,0,169.24,196.64Z"/><path class="cls-1" d="M103,229.31a4.63,4.63,0,0,1-1.36-.2,6.31,6.31,0,0,1-3.55-3.43c-.88-1.66-1.42-4.55,1-8.83,3.83-6.83,13.77-14.48,24.64-15.19,8.84-.57,26,3.29,33.92,7.66l.4.22c2.33,1.27,5.51,3,5.51,7a8.35,8.35,0,0,1-3.54,6.73,5.4,5.4,0,0,1-5.16.56c-10.13-4.28-19.46-5-24.81-4.25a50.1,50.1,0,0,0-10.95,2.75,80.88,80.88,0,0,0-10,4.69C106.6,228.32,104.77,229.31,103,229.31Zm22.6-22.71q-.83,0-1.56,0c-8.79.57-17.37,6.88-20.6,12.64-1.16,2.07-1.24,3.46-.92,4.06a4.67,4.67,0,0,0,.6.94,20.63,20.63,0,0,0,3.61-1.72,85.29,85.29,0,0,1,10.57-5,55.15,55.15,0,0,1,12-3c6-.84,16.38-.08,27.45,4.6.06,0,.16.07.45-.12a3.4,3.4,0,0,0,1.3-2.56c0-.84-.69-1.36-2.91-2.56l-.42-.23C148.62,210.07,133.86,206.6,125.6,206.6Z"/><path class="cls-1" d="M254.84,229.31c-1.77,0-3.6-1-6.11-2.33a80.84,80.84,0,0,0-10-4.69,50.07,50.07,0,0,0-10.95-2.75c-5.35-.76-14.68,0-24.81,4.25a5.41,5.41,0,0,1-5.16-.56,8.35,8.35,0,0,1-3.54-6.73c0-3.95,3.19-5.68,5.51-7l.4-.22c8-4.37,25.07-8.23,33.92-7.66,10.88.71,20.81,8.36,24.64,15.19,2.4,4.28,1.86,7.17,1,8.83a6.31,6.31,0,0,1-3.54,3.43A4.63,4.63,0,0,1,254.84,229.31Zm-31.06-15a34.06,34.06,0,0,1,4.71.3,55.12,55.12,0,0,1,12,3,85.22,85.22,0,0,1,10.57,5,20.65,20.65,0,0,0,3.61,1.72,4.67,4.67,0,0,0,.6-.94c.32-.6.24-2-.92-4.06-3.23-5.77-11.82-12.07-20.6-12.64-7.82-.51-24.14,3.18-31.19,7.05l-.42.23c-2.22,1.21-2.9,1.72-2.9,2.56a3.4,3.4,0,0,0,1.3,2.56c.28.19.39.14.45.12A59.9,59.9,0,0,1,223.78,214.28Z"/><path class="cls-1" d="M109.12,206.72a47.93,47.93,0,0,1,0-5.82l3.58-57.81c.59-8.3,3.29-22,14-31.07-5.26,4.1-9.13,10.39-11.94,18.81l-4.2-1,.27-2.07a59.48,59.48,0,0,0-3,15l-3.58,57.81a52.41,52.41,0,0,0,.21,9.63A35.37,35.37,0,0,1,109.12,206.72Z"/><path class="cls-1" d="M327.83,215.52a25.53,25.53,0,0,1,4.81,1.11c1-38.31-.79-74.71-1.58-88.25V152.8l-3.25-1.2-.5-.18C327.94,168.54,328.43,191.63,327.83,215.52Z"/><path class="cls-1" d="M328.21,266.48a26.67,26.67,0,0,1-3.75.26c-3.69,29-16.52,64.51-20.63,69.8-22.47,28.91-35.86,34.21-57.58,41.08-2.23.7-6.51,2.67-11.46,5-5.56,2.56-11.86,5.46-14.22,6-27.09,6.37-49.2,1.9-69.61-14.07-2.76-2.16-4.39-4.69-6.28-7.63-.91-1.42-1.85-2.88-3-4.45-22.9-31.24-31.47-42.93-35.84-83.29,0-.19-3.61-19.31,2.12-35.89a57.62,57.62,0,0,0,3.19-17.36l-2,1.08c-1.09.59-2,1.1-2.93,1.5a53.59,53.59,0,0,1-2.79,13.2c-6.15,17.83-2.45,37.55-2.32,38.18,4.48,41.46,13.92,54.33,36.72,85.43,1.08,1.47,2,2.88,2.84,4.21,2,3.17,4,6.16,7.37,8.82,15.37,12,31.62,17.91,50,17.91a103.54,103.54,0,0,0,23.7-2.94c2.83-.67,8.81-3.42,15.13-6.33,4.41-2,9-4.12,10.9-4.74,22.64-7.17,36.58-12.69,59.94-42.73,5.13-6.6,18.26-44.35,21.75-73.24C329,266.34,328.61,266.42,328.21,266.48Z"/></svg>