<svg id="Layer_1" data-name="Layer 1" xmlns="http://www.w3.org/2000/svg" viewBox="0 0 450 450"><defs><style>.cls-1{fill:#b6bcff;}</style></defs><title>stroke_jesse</title><path class="cls-1" d="M180.71,332.81a7.45,7.45,0,0,1-1-.06l-10.45-1.37a3.26,3.26,0,0,0-.59,0l-8.72.43a7,7,0,0,1-5.2-1.91,5.55,5.55,0,0,1-1.7-4.77,5.73,5.73,0,0,1,3.06-4.23l3.39-1.82a6.86,6.86,0,0,1,2.54-.77l15-1.58a6.76,6.76,0,0,1,6.54,3.06l2.69,4.42a5.32,5.32,0,0,1-.07,5.79A6.55,6.55,0,0,1,180.71,332.81Zm-11.83-5.46a7.15,7.15,0,0,1,1,.06l10.45,1.37a2.62,2.62,0,0,0,2.6-1,1.34,1.34,0,0,0,0-1.53l-2.69-4.42a2.84,2.84,0,0,0-2.7-1.15l-15,1.58a2.9,2.9,0,0,0-1.07.32l-3.39,1.82a1.75,1.75,0,0,0-1,1.26,1.58,1.58,0,0,0,.53,1.35,3,3,0,0,0,2.21.77l8.73-.43Z"/><polygon class="cls-1" points="204.55 126.34 204.55 126.34 204.55 126.34 204.55 126.34"/><path class="cls-1" d="M223.33,248.15h0a1.08,1.08,0,0,0,.21-1.44l-.52-.78a11.57,11.57,0,0,0-6.12-4.57,32.09,32.09,0,0,0-12.05-1.44L188,242.86a1.42,1.42,0,0,0-1.26,1.59h0a1.55,1.55,0,0,0,1.64,1.17l17-.59c4.52-.32,9-.09,12.92,1.86l3.52,1.5A1.52,1.52,0,0,0,223.33,248.15Z"/><path class="cls-1" d="M116.8,247.51h0a1.08,1.08,0,0,1-.21-1.44l.52-.78a11.57,11.57,0,0,1,6.12-4.57,32.09,32.09,0,0,1,12.05-1.44l16.86,2.94a1.42,1.42,0,0,1,1.26,1.59h0a1.55,1.55,0,0,1-1.64,1.17l-17-.59c-4.52-.32-9-.09-12.92,1.86l-3.52,1.5A1.52,1.52,0,0,1,116.8,247.51Z"/><path class="cls-1" d="M212.85,257.14l.22-2.58-3.65-.32a3.47,3.47,0,1,1-4-.35l-6.72-.59-.1,2.2a8.45,8.45,0,0,0,8,8.82c4.54.21,8.22-2.68,8.74-6.87l.06-1.28Z"/><path class="cls-1" d="M218.88,256.53h0a1.66,1.66,0,0,0-.7-1.83h0A51.27,51.27,0,0,0,207.25,252l-5.15-.69c-3.36-.44-6,.84-7.37,4.7a1,1,0,0,0,.33,1.11l0,0a1,1,0,0,0,1.15,0c1.37-1,3.53-1,5.18-.75l15.7,1.39A1.66,1.66,0,0,0,218.88,256.53Z"/><path class="cls-1" d="M143.5,252.5,141,253.71l0-2.59-3.67,0a3.47,3.47,0,1,1-4,0l-6.75.06.11,2.2a8.45,8.45,0,0,0,8.85,8c4.54-.22,7.93-3.45,8.05-7.67Z"/><path class="cls-1" d="M147,252.53h0a1.66,1.66,0,0,0-.87-1.75h0a51.27,51.27,0,0,0-11.15-1.67l-5.19-.2c-3.39-.12-5.9,1.4-6.89,5.38a1,1,0,0,0,.43,1.07l.05,0a1,1,0,0,0,1.15-.12c1.28-1.08,3.42-1.3,5.09-1.24l15.76-.11A1.66,1.66,0,0,0,147,252.53Z"/><path class="cls-1" d="M107,151.9l-4.66-2.12c23.29-51.22,55.46-56.15,56.81-56.34l.69,5.07L159.49,96l.35,2.53c-.08,0-7.74,1.18-18,8.27C132.3,113.37,118.52,126.54,107,151.9Z"/><path class="cls-1" d="M314.57,191.32a42.65,42.65,0,0,1-19.49-4.73c-19.3-9.9-28.7-23.71-31.12-27.7a40.13,40.13,0,0,1-2.54-36.36l2.52-6a36,36,0,0,1,48.94-18.33c32.08,15.59,43.81,45.89,41.63,61.45a30.79,30.79,0,0,1-3.75,10.63,40.59,40.59,0,0,1-24.48,19.35A42.46,42.46,0,0,1,314.57,191.32ZM279.82,105a30.82,30.82,0,0,0-11.16,13.56l-2.52,6a35,35,0,0,0,2.21,31.71c4.63,7.63,14.7,18.42,29.08,25.8a37.37,37.37,0,0,0,27.46,2.72,35.51,35.51,0,0,0,21.42-16.92,25.74,25.74,0,0,0,3.15-8.85c2-14.64-10.3-42.29-38.8-56.14A31,31,0,0,0,279.82,105Z"/><path class="cls-1" d="M324.17,179.58a76,76,0,0,1-10.52-.75c-11.77-1.65-25.6-12.21-35.23-26.9s-13.16-30.51-9.61-43.27h0c.6-2.14,7.06-7.16,8.14-7.9a36.15,36.15,0,0,1,35.93-2.53c32.08,15.59,43.81,45.89,41.63,61.45a21.15,21.15,0,0,1-1.41,5.13,23.38,23.38,0,0,1-17.67,13.83A66.64,66.64,0,0,1,324.17,179.58ZM279.75,105a16.61,16.61,0,0,0-7.18,13.48c-.12,9.55,3.38,20.29,10.13,30.6,8.72,13.31,21.45,23.21,31.66,24.64a66.29,66.29,0,0,0,20.21-.16,18.23,18.23,0,0,0,13.8-10.74,16.06,16.06,0,0,0,1.07-3.88c2-14.64-10.3-42.29-38.8-56.14A31,31,0,0,0,279.82,105Zm-6,5h0Z"/><path class="cls-1" d="M208.23,106.42c-11.88,0-23-1.81-31.64-5.16-10-3.89-15.56-9.52-15.7-15.85s5.18-12.21,15-16.55c9.09-4,21.2-6.41,34.08-6.71S235,63.67,244.3,67.28c10,3.89,15.56,9.51,15.71,15.85s-5.18,12.21-15,16.55c-9.09,4-21.2,6.41-34.08,6.71Q209.58,106.42,208.23,106.42Zm4.44-39.19q-1.3,0-2.61,0c-12.24.28-23.67,2.51-32.18,6.28-7.69,3.41-12,7.69-12,11.75s4.63,8.14,12.47,11.19c8.67,3.37,20.19,5.08,32.43,4.79S234.5,98.76,243,95c7.69-3.41,12-7.69,12-11.75s-4.64-8.14-12.47-11.19C234.45,68.92,223.94,67.23,212.68,67.23Z"/><path class="cls-1" d="M270.08,116.72c0-.43.08-.85.12-1.28-.19.34-.4.68-.58,1Z"/><path class="cls-1" d="M328.39,189c-.69.24-1.4.46-2.11.67q-1.47.42-3,.73.06,2.32,0,4.67c-.32,8.53-3.13,25.8-4.64,35.07-.1.59-.22,1.19-.36,1.78-19.46-27.79-42.24-48.55-67.75-61.71a153.25,153.25,0,0,0-67.48-17c-1.24,0-2.46,0-3.68,0a172.94,172.94,0,0,0-62.6,11.75c.81-2.56,1.29-4,1.3-4.06a84,84,0,0,1,24.75-37.93A90.87,90.87,0,0,1,164,109.3a30.19,30.19,0,0,1-2-4.72c-23.92,11.17-40.67,29.85-48.8,54.67,0,0-1.19,3.68-3,9.46l-1.75,5.66,5.32-2.61c.29-.14,29.73-14.32,69.15-13.46a148.18,148.18,0,0,1,65.24,16.45c25.27,13,47.83,33.82,67.06,61.77h0a4.1,4.1,0,0,0,3.39,1.79,4.22,4.22,0,0,0,.6,0,4.11,4.11,0,0,0,3.34-2.8,29.76,29.76,0,0,0,1.1-4.51c2.11-13,4.39-27.53,4.7-35.7C328.49,193.15,328.48,191.07,328.39,189Z"/><path class="cls-1" d="M267.8,109.68c-2.71-1.39-5.41-2.68-8.06-3.87a33.82,33.82,0,0,1-2.36,4.6c2.54,1.14,5.12,2.37,7.73,3.69A36,36,0,0,1,267.8,109.68Z"/><path class="cls-1" d="M326.28,189.67c-.89.25-1.78.47-2.68.67v0c-.73,20.26-6.36,65-35.77,137.2a64.2,64.2,0,0,1-34.4,35l-48.61,18.53a25.12,25.12,0,0,1-9.61,1.65l-24.32-1.45A34.66,34.66,0,0,1,148,371.05a24.17,24.17,0,0,1-3.31-4.15c-2-3.34-5.29-6.66-9-10.51-12.5-12.8-31.38-32.15-29.75-76.9v-.3c.32-8.71.91-24.92-.46-36.76q-.19-1.61-.4-3.14A123.63,123.63,0,0,1,109,186.83c4.86-16.3,9.31-29.45,9.35-29.57,7.64-22.34,22.89-38.63,45.4-48.59a30.43,30.43,0,0,1-1.89-4.73c-23.73,10.55-40.32,28.2-48.35,51.66,0,.13-4.53,13.36-9.41,29.76A128.72,128.72,0,0,0,100,240q.2,1.48.38,3c1.32,11.46.74,27.42.43,36v.3c-.75,20.68,2.55,38,10.11,52.94,6.41,12.69,14.55,21,21.09,27.72,3.54,3.63,6.61,6.77,8.35,9.61a29.28,29.28,0,0,0,4,5,39.76,39.76,0,0,0,26.25,11.8L195,387.87h.88a30.25,30.25,0,0,0,10.82-2l48.65-18.55.09,0a69.28,69.28,0,0,0,37.17-37.81c29.71-72.9,35.4-118.35,36.15-138.95,0-.56,0-1.12,0-1.69C327.93,189.15,327.11,189.43,326.28,189.67Z"/><path class="cls-1" d="M268.19,109.16c-2.79-1.37-5.55-2.64-8.28-3.82-.06.14-.1.28-.16.42a33.82,33.82,0,0,1-2.13,4.22c2.56,1.1,5.16,2.29,7.78,3.56A35.92,35.92,0,0,1,268.19,109.16Z"/><path class="cls-1" d="M259.51,80.16a11,11,0,0,1,.49,3,12.44,12.44,0,0,1-2.91,8A27.33,27.33,0,0,1,255,103.79a29.52,29.52,0,0,1-18.86,16.83c-9.06,2.75-19.65,3.82-31.48,3.17-16.9-.93-28.52-5.75-34.55-14.33a26.85,26.85,0,0,1-4.63-14.79A13.73,13.73,0,0,1,161,86.62c-.92,5-1.89,16,4.93,25.73,7,10,19.92,15.52,38.49,16.54q3.51.19,6.88.19a90.89,90.89,0,0,0,26.37-3.57,34.62,34.62,0,0,0,22.1-19.77A32.54,32.54,0,0,0,259.51,80.16Z"/><path class="cls-1" d="M160.35,93.5l-7.43-4.61a21.73,21.73,0,0,0-17.39-2.44c-26,7.43-35.77,28.53-39.31,40.44a23.57,23.57,0,0,0,2.38,18.84l11.73,19.46c.85-2.63,1.56-4.81,2.1-6.43L103,143.09a18.44,18.44,0,0,1-1.86-14.74c3.24-10.91,12.21-30.22,35.81-37a16.34,16.34,0,0,1,4.5-.63,16.7,16.7,0,0,1,8.78,2.51l10.64,6.59A36.44,36.44,0,0,1,160.35,93.5Z"/><path class="cls-1" d="M168.95,115.49c-19.47,2.58-31.41,7.15-32.13,7.43l-.14,5.77a160.32,160.32,0,0,1,39.24-8.82A35.43,35.43,0,0,1,168.95,115.49Z"/><path class="cls-1" d="M259.58,131.18A205.33,205.33,0,0,0,237.69,125q-.92.4-1.87.76c-2.53.95-8.18,1.77-10.94,2.48,10.83,1.93,24.5,4.75,34.94,8.46l.23.09A37.71,37.71,0,0,1,259.58,131.18Z"/></svg>