<svg id="Layer_1" data-name="Layer 1" xmlns="http://www.w3.org/2000/svg" viewBox="0 0 450 450"><defs><style>.cls-1{fill:#b6bcff;}</style></defs><title>stroke_vince</title><path class="cls-1" d="M231.28,333.18a1.61,1.61,0,0,1,1,1.56c-.19,4.88-.86,12.58-7.08,18.64-6.49,6.33-16.91,9.52-28.5,9.52-2.28,0-5.29-.12-7.75-.37-15.14-1.51-25.13-7.74-31-16-3.67-5.19-3.13-9.55-2.85-13.17a1.77,1.77,0,0,1,1.58-1.62h0a1.76,1.76,0,0,1,1.83,1.12c1.33,3.51,4.33,9.6,5.78,11.25,5.1,5.82,13.27,8.2,26,9.48s22.14.83,28.21-5.09c5.65-5.51,9.5-10.59,10.56-14.29a1.61,1.61,0,0,1,2.13-1.06Z"/><path class="cls-1" d="M158,296.08l2.25-2.88a25.49,25.49,0,0,1,18-9.72h0a25.49,25.49,0,0,1,20,7.21l5.21,5.12a2.09,2.09,0,0,1,.1,2.89h0a2.09,2.09,0,0,1-2.76.33l-4.13-2.87a30.86,30.86,0,0,0-20.05-5.43h0a25.49,25.49,0,0,0-13.08,4.87L160,298.15a1.45,1.45,0,0,1-1.77,0h0A1.45,1.45,0,0,1,158,296.08Z"/><path class="cls-1" d="M271,264.61a2,2,0,0,1,.9-1.12h0a1.82,1.82,0,0,1,2.46.9l.23.51a1.82,1.82,0,0,1,.1,1.17h0a13,13,0,0,1-8.64,9.25l-1.37.44a10.54,10.54,0,0,0-4.52,3.24l-1,1.18a11.72,11.72,0,0,0-2.6,6.71c0,.45,0,.89-.1,1.34l-.28,2.43a1.92,1.92,0,0,1-2.62,1.56h0a1.92,1.92,0,0,1-1.13-1.24h0a15.19,15.19,0,0,1,1.71-12.61,16.83,16.83,0,0,1,1-1.41l1-1.18a15.65,15.65,0,0,1,6.71-4.81S269.85,268.93,271,264.61Z"/><path class="cls-1" d="M115.86,225.31l-3.7-3.54L114.8,219a22.26,22.26,0,0,1,17.65-6.86L162,214.29a1.41,1.41,0,0,1,1.21,1.94h0a3.13,3.13,0,0,1-3,2l-28-.93a17.2,17.2,0,0,0-13.65,5.29Z"/><path class="cls-1" d="M179.23,327.31h0A1.51,1.51,0,0,0,178,328.6c-1,7.81.87,21.57,8.67,28.41l5.18,1.28,3.37-3.85s-10-7.62-14.21-26A1.52,1.52,0,0,0,179.23,327.31Z"/><path class="cls-1" d="M295.55,263.77l.86-3.62C306.24,219,277.3,184.27,277,183.93l-.78-.92.22-1.19c3.22-17.52.68-42.92.14-47.83a3,3,0,0,1,5.23-2.4l5.39,5.77c.54.57,13.56,14.48,25.81,37.12,11.33,20.95,24,53.54,19.88,89.85l-.36,3.24S314.11,280.55,295.55,263.77Zm31.72-.86c2.88-33.67-8.08-66.22-18.69-85.88a188.92,188.92,0,0,0-25.1-36.18l-1.21-1.3c.86,10.17,1.78,28-.58,42a109.24,109.24,0,0,1,13.43,22.84c5.57,12.68,10.27,34.3,6.19,55.73C313.77,272.55,327.27,262.91,327.27,262.91Z"/><path class="cls-1" d="M123.77,293l-.59-1.2a24.89,24.89,0,0,0-7.6-11.69,33.66,33.66,0,0,1-11.45-26.42,74.87,74.87,0,0,1,6.39-28.43l4.68,2.07a69.8,69.8,0,0,0-6,27.22,28.08,28.08,0,0,0,9.29,21.89,30,30,0,0,1,8.92,13.88l2.83,7.24a.58.58,0,0,1-.76.71h0A10.64,10.64,0,0,1,123.77,293Z"/><path class="cls-1" d="M226.65,212.94l-32,2.15a1.4,1.4,0,0,0-1.21,1.92h0a3.15,3.15,0,0,0,3,2l30.47-.94a17.2,17.2,0,0,1,13.61,5.29l1,1a2.13,2.13,0,0,0,3.18-.11h0a2.12,2.12,0,0,0,.22-2.41C243.27,218.93,238.17,212.31,226.65,212.94Z"/><path class="cls-1" d="M150.53,226.1l-.42-1.43-2.48,2.05-.74-2.93-5.83,1.47a3.34,3.34,0,0,1,3.44,2.38,3.34,3.34,0,1,1-6.4,1.9,3.33,3.33,0,0,1,1.91-4l-9.4,2.37.73,2.46A9.84,9.84,0,0,0,143.54,237C148.62,235.49,151.56,230.91,150.53,226.1Z"/><path class="cls-1" d="M156.12,225.39h0a4.67,4.67,0,0,0-3.78-2.52,45.62,45.62,0,0,0-28.58,7.67s-1.52.9-1.08,1.83,1.62.63,2.14.47c6.56-2.1,17.64-5.36,29.64-4.8A1.8,1.8,0,0,0,156.12,225.39Z"/><path class="cls-1" d="M221.94,226a3.29,3.29,0,1,1-1-.25l-5.85-1.48-.74,2.93-2.48-2.05-.42,1.43c-1,4.81,1.92,9.39,7,10.9a9.84,9.84,0,0,0,12.22-6.63l.73-2.46Z"/><path class="cls-1" d="M205.85,225.9h0a4.67,4.67,0,0,1,3.78-2.52,45.62,45.62,0,0,1,28.58,7.67s1.52.9,1.08,1.83-1.62.63-2.14.47c-6.56-2.1-17.64-5.36-29.64-4.8A1.8,1.8,0,0,1,205.85,225.9Z"/><path class="cls-1" d="M357.07,209.91a145.37,145.37,0,0,1,1.87-22l0-.29,0,.31A145.27,145.27,0,0,0,357.07,209.91Z"/><path class="cls-1" d="M356.49,247.92a151.28,151.28,0,0,1-3.2-56.75,151.25,151.25,0,0,0,3.2,56.75l.48,1.91Z"/><path class="cls-1" d="M357.08,211.72c0-.59,0-1.19,0-1.78C357.07,210.53,357.08,211.12,357.08,211.72Z"/><path class="cls-1" d="M331.7,103c3.39,4.91,6.27,9.4,8.59,13.41-2.32-4-5.2-8.5-8.59-13.41A78.67,78.67,0,0,0,300.6,76.49,78.67,78.67,0,0,1,331.7,103Z"/><path class="cls-1" d="M295.28,68.94h-.06Z"/><path class="cls-1" d="M359.55,260c4.25,16.26,8.06,28.81,12.29,40.44h0C367.63,288.82,363.79,276.17,359.55,260Z"/><path class="cls-1" d="M302.77,71.85A50.69,50.69,0,0,0,295.35,69,52.15,52.15,0,0,1,302.77,71.85Z"/><path class="cls-1" d="M359.44,259.56l-.84-3.26Z"/><path class="cls-1" d="M358.26,255l-.7-2.76Z"/><path class="cls-1" d="M328.58,98.82a78.26,78.26,0,0,0-28-22.33A78.27,78.27,0,0,1,328.58,98.82Z"/><path class="cls-1" d="M264.37,71.77a27.91,27.91,0,0,1,6.78-3.2,47,47,0,0,0-7.46,2.56C263.92,71.35,264.16,71.55,264.37,71.77Z"/><path class="cls-1" d="M181.19,60.77a126.45,126.45,0,0,0-47.92,22.3A126.45,126.45,0,0,1,181.19,60.77Z"/><path class="cls-1" d="M98.46,150c0,.29.06.58.08.88C98.52,150.62,98.49,150.33,98.46,150Z"/><path class="cls-1" d="M99,156.55c0,.48.06,1,.09,1.45C99,157.52,99,157,99,156.55Z"/><path class="cls-1" d="M358.87,188.34c0-.15,0-.3.07-.46l0-.3,0,.31C358.91,188,358.9,188.19,358.87,188.34Z"/><path class="cls-1" d="M353.6,189a151.14,151.14,0,0,0,2.88,58.93l.34,1.36-.34-1.35A151.21,151.21,0,0,1,353.6,189Z"/><path class="cls-1" d="M360.25,169.85A107.48,107.48,0,0,1,359,187.58,107.48,107.48,0,0,0,360.25,169.85Z"/><path class="cls-1" d="M293.88,73.86h0C284,71,276.79,72,272.15,73.61A41.65,41.65,0,0,1,293.88,73.86Z"/><path class="cls-1" d="M93.46,151.5q.26,2.9.45,5.87Q93.72,154.39,93.46,151.5Z"/><path class="cls-1" d="M94,158.43q.17,2.77.28,5.61Q94.14,161.2,94,158.43Z"/><path class="cls-1" d="M230.49,55.59a114.49,114.49,0,0,0-50.43.19A114.5,114.5,0,0,1,230.49,55.59Z"/><path class="cls-1" d="M94.43,171.3v-.91c0-1.69-.07-3.36-.13-5C94.35,167.32,94.41,169.29,94.43,171.3Z"/><path class="cls-1" d="M371.83,300.38c-4.19-11.55-8-24.15-12.24-40.26C363.82,276.29,367.62,288.79,371.83,300.38Z"/><path class="cls-1" d="M92.75,144.68q.37,3.08.66,6.26Q93.12,147.76,92.75,144.68Z"/><path class="cls-1" d="M380.29,308.2l-.72-1.83,0,.09a3.09,3.09,0,0,1-4.79,3.57l-.46-.37c-3.54,4.55-13.81,16.56-32.92,30.47-22.42,16.31-61.77,38.47-122.14,51.62a426.28,426.28,0,0,0-49.54-20.28C140,361.45,114,356.4,92.17,356.4a123.26,123.26,0,0,0-15.82,1C74.87,346.38,70,300.63,85,261A213.86,213.86,0,0,0,98.52,201.7c.82-10.79,1.15-21.12,1-31l-.11.35-4.75,15.67-.24-15.09c.11,9.42-.23,19.32-1,29.65a208.75,208.75,0,0,1-13.21,57.89c-17.56,46.44-8.93,99.26-8.55,101.49l.42,2.49,2.49-.39c30.27-4.69,67.53,4.76,93.46,13.5a414.06,414.06,0,0,1,49.75,20.43l.81.41.89-.19c61.74-13.31,102-36,124.95-52.67,25-18.18,35.18-33.06,35.6-33.69l.76-1.12Z"/><path class="cls-1" d="M358.2,254.72l-.62-2.45Z"/><path class="cls-1" d="M359.4,259.38l-.77-3Z"/><path class="cls-1" d="M302.77,71.85A50.69,50.69,0,0,0,295.35,69,52.15,52.15,0,0,1,302.77,71.85Z"/><path class="cls-1" d="M295.28,68.94h0l-.14,0Z"/><path class="cls-1" d="M325.44,198.88a20,20,0,0,1,8,37.61q.33,2.7.59,5.4A25.16,25.16,0,0,0,324,193.69h-.21C324.34,195.42,324.9,197.14,325.44,198.88Z"/><path class="cls-1" d="M379.6,306.46c-6.4-16.28-11.65-33.59-18.14-59.77a146.06,146.06,0,0,1-2.51-58.8l0-.31a112.92,112.92,0,0,0-12-69.68,182.34,182.34,0,0,0-11-17.77,83.8,83.8,0,0,0-33.14-28.27,52,52,0,0,0-7.49-2.91h0c-16.46-4.77-26.76.08-30.92,2.83-4.88-5-12.05-9.25-21.36-12.57a113,113,0,0,0-63-3.42,131.71,131.71,0,0,0-52.81,25.48c-23.7,18.92-36.92,43.22-34.49,63.43a249.94,249.94,0,0,1,1.66,25.7l.26,16.37,4.75-15.67c.08-.25,7.84-25.19,29-36.9,12.67-7,34.33-9,51.22.82l1.44.84,1.35-1c.39-.28,40-28.4,91.5-20.69a70.22,70.22,0,0,1,57.55,51.13,165.86,165.86,0,0,1,5,31.7,25.32,25.32,0,0,1,5.38,4.14A175.18,175.18,0,0,0,336.39,164a75.34,75.34,0,0,0-61.73-54.87,126.88,126.88,0,0,0-18.8-1.39,140.73,140.73,0,0,0-49.1,9.11,133.23,133.23,0,0,0-26,12.94c-18.31-9.86-41.27-7.6-54.85-.08-13.75,7.62-22.18,20.06-26.79,29-.29-5.07-.72-10-1.28-14.67-2.22-18.46,10.28-41,32.6-58.82a126.55,126.55,0,0,1,50.75-24.48A107.86,107.86,0,0,1,241.29,64c9.4,3.36,16.59,7.8,20.78,12.85l1.75,2.08,2-1.85c.38-.35,9.49-8.61,28.06-3.24a46.89,46.89,0,0,1,6.73,2.63A78.67,78.67,0,0,1,331.7,103a177.46,177.46,0,0,1,10.73,17.26,107.78,107.78,0,0,1,11.5,66.52l0,.25a151.16,151.16,0,0,0,2.6,60.86c5.51,22.24,10.15,38.17,15.35,52.49a93.51,93.51,0,0,1-14.55-19.91c-7.38-13.36-12.09-28.6-14.09-45.49a25.37,25.37,0,0,1-4.6,4.27A126.85,126.85,0,0,0,352.81,283c8.6,15.56,18.25,24.1,22,27.05a3.09,3.09,0,0,0,4.79-3.57Z"/><path class="cls-1" d="M332.2,229.14c-3.4-23.17-11.15-42-15.56-48-1.14-1.53-2.76-4.35-4.81-7.91-8.68-15.08-25.29-43.92-53.53-60.39-3.68-.07-7.27,0-10.77.25,32.15,14.56,50.64,46.68,59.86,62.69,2.13,3.71,3.82,6.63,5.13,8.4,4,5.37,11.38,23.6,14.61,45.65,2.74,18.66,3.15,45-10.4,64.82-11.85,17.29-32.83,32.83-59.06,43.76a188.58,188.58,0,0,1-28.28,9.26,21.51,21.51,0,0,1-4.17,5.66c-.23.22-.47.43-.71.65a191,191,0,0,0,35.12-10.84c27.13-11.3,48.91-27.49,61.31-45.59C335.44,276.45,335.07,248.7,332.2,229.14Z"/><path class="cls-1" d="M158,346.55a16.1,16.1,0,0,1-2.62-5.65,90.72,90.72,0,0,1-42.48-60.2l-2.25-10.92a69.78,69.78,0,0,1,4.54-42.47l5.56-12.59a407,407,0,0,0,16.48-44.59c5.23-16.92,13.2-30.73,23.79-41.32a57.4,57.4,0,0,0-6.48-.49c-8.64,9.54-16.72,22.56-22.2,40.31a401.94,401.94,0,0,1-16.27,44l-5.56,12.59a74.87,74.87,0,0,0-4.87,45.57l2.25,10.92c5.87,28.53,23.67,52.51,48.85,65.8,1.12.59,2.25,1.15,3.38,1.69A33.54,33.54,0,0,1,158,346.55Z"/></svg>