<svg id="Layer_1" data-name="Layer 1" xmlns="http://www.w3.org/2000/svg" viewBox="0 0 450 450"><defs><style>.cls-1{fill:#b6bcff;}</style></defs><title>stroke_chong</title><path class="cls-1" d="M129.08,282.15c-3,0-4.88-.14-5.16-.16l-3.87-.3,1.8-3.44c.58-1.1,14.35-27.06,36.34-36.79a15.05,15.05,0,0,1,12.14,0,17.2,17.2,0,0,1,9.37,10c2.81,7.85-1,16.15-9.66,21.15C155.5,281,137.71,282.15,129.08,282.15Zm-.59-5.14h.27c8,0,25.17-1,38.74-8.82,5.12-2.95,9.75-8.44,7.4-15a12.07,12.07,0,0,0-6.58-7,10,10,0,0,0-8.05-.05C144.56,253.09,133,269.66,128.49,277Z"/><path class="cls-1" d="M245.36,285.49c-5.29,0-31.37-.61-52.4-12-10.14-5.49-14.86-14.14-12-22a16.22,16.22,0,0,1,8.89-9.23,18.87,18.87,0,0,1,14.92,0c25.7,11,42.95,38.13,43.67,39.28l2.41,3.83-4.52.09Zm-48.19-39.65a13.34,13.34,0,0,0-5.32,1.09,11.1,11.1,0,0,0-6.12,6.26c-1.46,4.08.19,10.66,9.66,15.79,16.41,8.89,36.7,10.85,45.87,11.27-5.78-7.9-20.06-25.32-38.56-33.27A14,14,0,0,0,197.17,245.84Z"/><path class="cls-1" d="M125.18,198.66a8.36,8.36,0,0,1-7.37-4.4,12,12,0,0,1-1.13-8.52l.09-.36a8.39,8.39,0,0,1,4.19-5.46c5.06-2.71,19.07-9.28,39.91-11.69a7.74,7.74,0,0,1,7.57,3.81,24,24,0,0,1,2.8,16.64l0,.18a7.78,7.78,0,0,1-6.38,6,324.41,324.41,0,0,1-39.44,3.81Zm36.57-25.49-.31,0c-20,2.31-33.32,8.56-38.12,11.13a3.39,3.39,0,0,0-1.69,2.2l-.09.36a7,7,0,0,0,.66,5,3.45,3.45,0,0,0,3.06,1.78A319.6,319.6,0,0,0,164,189.92a2.76,2.76,0,0,0,2.28-2.2l0-.13a19,19,0,0,0-2.25-13h0A2.74,2.74,0,0,0,161.75,173.17Z"/><path class="cls-1" d="M212.33,201.75l.48-.59a5,5,0,0,1,5.16-1.68c6.23,1.6,20,6.28,28.71,12.77a1.83,1.83,0,0,1,.54,2.31h0a1.82,1.82,0,0,1-2.23.89c-4.23-1.49-16.78-5.52-28.63-5.34a5.09,5.09,0,0,1-4.35-2.25h0A5.15,5.15,0,0,1,212.33,201.75Z"/><path class="cls-1" d="M155.84,199.28l-.48-.59A5,5,0,0,0,150.2,197c-6.23,1.6-20,6.28-28.71,12.77a1.83,1.83,0,0,0-.54,2.31h0a1.82,1.82,0,0,0,2.23.89c4.23-1.49,16.78-5.52,28.63-5.34a5.09,5.09,0,0,0,4.35-2.25h0A5.15,5.15,0,0,0,155.84,199.28Z"/><path class="cls-1" d="M142.71,242.9a35.46,35.46,0,1,1,35.46-35.46A35.5,35.5,0,0,1,142.71,242.9Zm0-67.08a31.62,31.62,0,1,0,31.62,31.62A31.65,31.65,0,0,0,142.71,175.82Z"/><path class="cls-1" d="M229.3,242.9a35.46,35.46,0,1,1,35.46-35.46A35.5,35.5,0,0,1,229.3,242.9Zm0-67.08a31.62,31.62,0,1,0,31.62,31.62A31.65,31.65,0,0,0,229.3,175.82Z"/><path class="cls-1" d="M198.73,201.82l-3-.76a44.56,44.56,0,0,0-22.6.12l-1-3.71a48.37,48.37,0,0,1,24.55-.13l3,.76Z"/><path class="cls-1" d="M320.32,211.28a1.92,1.92,0,0,1-.36,0c-.38-.07-38.47-7.28-57.42-8.82a1.92,1.92,0,1,1,.31-3.83c19.16,1.56,57.44,8.8,57.83,8.88a1.92,1.92,0,0,1-.36,3.81Z"/><path class="cls-1" d="M238.6,198.66h-.2A324.46,324.46,0,0,1,199,194.85a7.78,7.78,0,0,1-6.42-6.18l0-.25A24,24,0,0,1,195.35,172h0a7.71,7.71,0,0,1,7.57-3.81c20.84,2.41,34.85,9,39.91,11.69a8.39,8.39,0,0,1,4.19,5.46l.09.37a12,12,0,0,1-1.13,8.53A8.36,8.36,0,0,1,238.6,198.66Zm-41.14-10.89a2.77,2.77,0,0,0,2.27,2.14,319.52,319.52,0,0,0,38.79,3.75,3.46,3.46,0,0,0,3.06-1.78,7,7,0,0,0,.66-5l-.09-.37a3.39,3.39,0,0,0-1.69-2.21c-4.81-2.58-18.14-8.82-38.12-11.13a2.72,2.72,0,0,0-2.67,1.36h0a19,19,0,0,0-2.22,13.17Z"/><path class="cls-1" d="M330.29,200a12.05,12.05,0,0,1-9.61-5.23c-9.42-12.51-46-53.33-120.45-53.33-37.52,0-62.29,10.29-73.72,16.42-5.28,2.83-9.73,8.2-12.55,15.11l-1.36,3.34-2.7-2.39c-.4-.35-9.78-8.81-9.78-24.7a96.05,96.05,0,0,1,4.11-26.9c2.28-7.46,6.57-17.64,14-23.8,6.07-5,19.59-12.12,39.33-17a171.62,171.62,0,0,1,67.63-3.05c23.76,3.75,46,10.72,64.24,20.17,16.9,8.74,30.22,19.4,38.54,30.83,11.55,15.89,15.76,46.94,13,60.12C339.63,195.8,335.34,200,330.29,200ZM200.22,136.33c32.76,0,62,7.57,87,22.5,20.17,12,32.15,25.76,37.5,32.87a7.09,7.09,0,0,0,5.52,3.19c2.54,0,4.87-2.63,5.67-6.41,2.55-12-1.5-41.47-12.1-56-7.85-10.79-20.56-20.92-36.75-29.3-17.79-9.2-39.47-16-62.69-19.66-50.18-7.92-91.68,9.72-102.91,19-6.55,5.4-16.29,22.31-16.29,46.76a30.47,30.47,0,0,0,5.69,18.13,32.85,32.85,0,0,1,13.16-14C135.93,147,161.59,136.33,200.22,136.33Z"/><path class="cls-1" d="M197.24,275.63a17.05,17.05,0,0,1-30.15-1.43c-1.54.77-3.1,1.45-4.68,2.08A22.18,22.18,0,0,0,202,277.65Q199.6,276.71,197.24,275.63Z"/><path class="cls-1" d="M194.71,173.25a14.45,14.45,0,0,1-1.84-1.81c-4-4.76-5.07-10.69-5.18-15.26a.76.76,0,0,0-1.49-.14,43.26,43.26,0,0,0-1.06,11.26A13,13,0,0,0,191.86,178l.93.5A24,24,0,0,1,194.71,173.25Z"/><path class="cls-1" d="M177,156a.76.76,0,0,0-1.49.14c-.11,4.57-1.18,10.5-5.18,15.26a14.16,14.16,0,0,1-1.43,1.46,24,24,0,0,1,2,5.29l.39-.21a13,13,0,0,0,6.73-10.68A43.25,43.25,0,0,0,177,156Z"/><path class="cls-1" d="M143.07,85.84A60,60,0,0,1,146.95,79c8.61-13,20.59-19.64,35.58-19.64.16,0,16.53.26,24.15,7.89l1.66,1.66,1.8-1.52c.2-.17,19.88-16.41,50.3-10.32,15.43,3.09,29.5,12.36,39.62,26.12a84.64,84.64,0,0,1,14.19,31.71q3.37,2.86,6.31,5.83a91.62,91.62,0,0,0-16.37-40.57c-10.88-14.78-26.06-24.76-42.74-28.1-27.79-5.56-47,6-52.82,10.07-9.46-7.64-25.34-7.88-26.07-7.88-16.61,0-30.39,7.59-39.87,21.94a67.56,67.56,0,0,0-6.34,12.24Q139.49,87.11,143.07,85.84Z"/><path class="cls-1" d="M296.45,212.26l0,.3c0,.32,3.48,32.62-23.56,73.38a24.52,24.52,0,0,1-13.49,10.12,23.24,23.24,0,0,1-25.67-11.18c-2.65-.26-5.6-.62-8.76-1.13a60.62,60.62,0,0,1-2.28,6.58c-2.13,5.12-5.85,11.71-11.46,14-15.56,6.38-26.4-5-26.84-5.53l-1.9-2.07-1.89,2.08c-.1.11-10.27,11-27.83,4.22-10-3.85-13.58-14.07-14.89-21.29-1.85.16-3.59.26-5.16.32a48.61,48.61,0,0,0,1.33,5.76c3,9.94,8.79,16.85,16.88,20a36.32,36.32,0,0,0,13.17,2.61,29.13,29.13,0,0,0,18.4-6.43c4.35,3.62,15.85,11.15,30.67,5.07,8.83-3.62,13.7-14.38,16.07-21.74A28.06,28.06,0,0,0,260.84,301a29.64,29.64,0,0,0,16.33-12.21c27.39-41.28,24.7-73.81,24.4-76.65-.05-11.6-6.3-31.61-11-45.09q-3.33-2.22-7-4.39C288.08,175.1,296.45,199.67,296.45,212.26Z"/><path class="cls-1" d="M314.78,187.7c-1.83-2-4-4.21-6.43-6.54l5.55,29.7a168.7,168.7,0,0,1,2.83,34.06c-.1,5.51-.11,12-.11,18.83,0,15.39,0,32.84-1.12,47.65a98.59,98.59,0,0,1-17.7,49.75,77.55,77.55,0,0,1-11.38,13c-18.26,16.33-45.83,18.63-82.79,20.11A107.43,107.43,0,0,1,128,367.92c-23.52-20.49-23.57-50.75-21.59-80,1-14.48,2.94-35.61,6.85-59.58,1.06,13.9,2.19,25.6,6.51,41.36a10.85,10.85,0,0,0,3.75,5.67c.7-1.18,1.63-2.67,2.76-4.38a5.8,5.8,0,0,1-1.57-2.64c-4.57-16.69-5.44-28.21-6.63-44.16l-.23-3.08c-.68-8.94,0-16.62,2.21-23.49l-4.88-1.56-.63,1.93a119.27,119.27,0,0,0-3.68,14.39,641.76,641.76,0,0,0-9.58,75.2c-2.06,30.52-2,62.17,23.34,84.2a112.41,112.41,0,0,0,74.63,27.65q2.3,0,4.6-.09c38-1.52,66.47-3.95,86-21.41A82.64,82.64,0,0,0,302,364.11a103.71,103.71,0,0,0,18.63-52.33c1.12-15,1.13-32.55,1.13-48,0-6.82,0-13.27.11-18.73a173.75,173.75,0,0,0-2.92-35.09Z"/><path class="cls-1" d="M389.38,261c-34.09-23.5-51.42-41-60.17-61a11.59,11.59,0,0,1-6.77-3.22c.15.42.29.84.45,1.26,8.48,22.42,25.91,41.05,62,66.11-2.15,5.68-10.47,24.52-32.08,43.3a158.45,158.45,0,0,1-35.23,22.94q-.85,3.31-1.91,6.55a165.56,165.56,0,0,0,40.5-25.63c26.83-23.33,33.94-46.46,34.23-47.43l.53-1.78Z"/><path class="cls-1" d="M101,320.58q-2.83-2.55-5.47-5.28c-29.66-30.91-31.26-71.46-31.29-79.23,3.28-2.15,12.61-8.8,23.69-21.4,9.35-10.63,21.32-27.2,31.23-50.56A34.82,34.82,0,0,0,114,173l-1.36,3.34-2.7-2.39c-.05,0-.29-.26-.63-.61a177,177,0,0,1-25,37.77c-13,14.87-23.75,21.29-23.85,21.35l-1.2.71-.06,1.39c0,.49-.47,12.28,3.31,28.6,3.49,15.07,11.41,37,29.33,55.65a110,110,0,0,0,10.08,9.28C101.47,325.59,101.18,323.1,101,320.58Z"/><path class="cls-1" d="M314.78,187.7c-1.83-2-4-4.21-6.43-6.54l5.55,29.7a168.7,168.7,0,0,1,2.83,34.06c-.1,5.51-.11,12-.11,18.83,0,15.39,0,32.84-1.12,47.65a98.59,98.59,0,0,1-17.7,49.75,77.55,77.55,0,0,1-11.38,13c-18.26,16.33-45.83,18.63-82.79,20.11A107.43,107.43,0,0,1,128,367.92c-23.52-20.49-23.57-50.75-21.59-80,1-14.48,2.94-35.61,6.85-59.58,1.06,13.9,2.19,25.6,6.51,41.36a10.85,10.85,0,0,0,3.75,5.67c.7-1.18,1.63-2.67,2.76-4.38a5.8,5.8,0,0,1-1.57-2.64c-4.57-16.69-5.44-28.21-6.63-44.16l-.23-3.08c-.68-8.94,6-58.62,8.21-65.49l-6,.39h.52c-1.51,4.65-8.74,51.49-9.68,56.39a641.76,641.76,0,0,0-9.58,75.2c-2.06,30.52-2,62.17,23.34,84.2a112.41,112.41,0,0,0,74.63,27.65q2.3,0,4.6-.09c38-1.52,66.47-3.95,86-21.41A82.64,82.64,0,0,0,302,364.11a103.71,103.71,0,0,0,18.63-52.33c1.12-15,1.13-32.55,1.13-48,0-6.82,0-13.27.11-18.73a173.75,173.75,0,0,0-2.92-35.09Z"/><path class="cls-1" d="M328.05,215.06a21,21,0,0,0-9.34-6.32l.22,1.18q.42,2.27.79,4.56a16.08,16.08,0,0,1,3.73,25.5c-.49.49-1,1-1.58,1.42,0,1.2,0,2.41,0,3.61,0,.65,0,1.31,0,2a17.57,17.57,0,0,0,5.06-3.55A21,21,0,0,0,328.05,215.06Z"/></svg>