<svg id="Layer_1" data-name="Layer 1" xmlns="http://www.w3.org/2000/svg" viewBox="0 0 450 450"><defs><style>.cls-1{fill:#b6bcff;}</style></defs><title>stroke_lt</title><path class="cls-1" d="M155.09,210.53l-.42-1.43-2.48,2.05-.74-2.93-11.47.22-4.83,3.9.73,2.46a9.84,9.84,0,0,0,12.22,6.63C153.17,219.92,156.11,215.34,155.09,210.53Zm-8.83,5.89a3.67,3.67,0,1,1,2.48-4.56A3.67,3.67,0,0,1,146.26,216.42Z"/><path class="cls-1" d="M162.82,216.56a2.06,2.06,0,0,1-2.35.07,42.5,42.5,0,0,0-7.56-3.86,21.18,21.18,0,0,0-17.71.91l-4.34,2.62a2,2,0,0,1-2.43-.29h0a2,2,0,0,1,.11-2.94l2.05-1.73a39.5,39.5,0,0,1,5-3.12c6.51-2.95,12.54-2.58,19.15.06a32.67,32.67,0,0,1,8.23,5,2.08,2.08,0,0,1-.11,3.3Z"/><path class="cls-1" d="M167.9,211.95a5.79,5.79,0,0,1-3.09-.89,117.65,117.65,0,0,0-13.49-6.76l-2.27-1a15.71,15.71,0,0,0-14.13.65l-5.81,3.26a6.22,6.22,0,0,1-7.55-9.71l2.8-2.94a22,22,0,0,1,9.53-6,30.28,30.28,0,0,1,21.23,1.39c5.51,2.5,10.84,6.84,15.54,10.68l1,.82a5.94,5.94,0,0,1-3.76,10.53Zm-25.24-15a20.47,20.47,0,0,1,8.46,1.82l2.24,1a121.08,121.08,0,0,1,14.1,7.08.85.85,0,0,0,.67.1.94.94,0,0,0,.59-.46h0a.92.92,0,0,0-.22-1.16l-1-.82c-4.47-3.64-9.53-7.77-14.45-10a25.29,25.29,0,0,0-17.72-1.16A17,17,0,0,0,128,198l-2.8,2.94a1.22,1.22,0,0,0,1.48,1.91l5.81-3.26A20.82,20.82,0,0,1,142.65,196.91Z"/><path class="cls-1" d="M263.43,212.17a5.33,5.33,0,0,1-2.45-.6l-6-3.08a37.42,37.42,0,0,1-4.63-2.84c-5.12-3.67-10.82-6.92-19.26-3-1.26.58-2.29,1-3.25,1.46s-2.07.83-3.45,1.34a81.25,81.25,0,0,0-9.27,3.91,5.46,5.46,0,0,1-5.85-.52,5.26,5.26,0,0,1-2.09-3.88,6,6,0,0,1,1.79-4.59c2.49-2.49,10.12-8.44,13-9.69.94-.41,1.87-.82,3-1.34,10.3-4.77,20.21-4.14,30.28,2a35.54,35.54,0,0,1,9.49,8.55l2.9,3.69a5.34,5.34,0,0,1-4.2,8.64Zm-25-16.28c5.89,0,10.74,2.73,14.9,5.71a32.45,32.45,0,0,0,4,2.46l6,3.08a.34.34,0,0,0,.42-.51l-2.9-3.7a30.56,30.56,0,0,0-8.15-7.36c-8.66-5.23-16.79-5.77-25.59-1.69-1.16.54-2.12,1-3,1.35-2,.88-9,6.21-11.52,8.68a1,1,0,0,0-.34.73.29.29,0,0,0,.14.24.46.46,0,0,0,.48.07,86.42,86.42,0,0,1,9.86-4.17c1.31-.49,2.44-.91,3.17-1.23.94-.41,1.95-.86,3.17-1.42A22.11,22.11,0,0,1,238.4,195.89Z"/><path class="cls-1" d="M335.22,263.06a14.84,14.84,0,0,1-11.74,4.9,8.9,8.9,0,0,1-5.56-1.79,1.85,1.85,0,0,0-2.27,0,1.88,1.88,0,0,0-.06,2.89,13.21,13.21,0,0,0,9.32,3.74,18.53,18.53,0,0,0,13.31-5.6Q336.76,265.11,335.22,263.06Z"/><path class="cls-1" d="M237.14,291.3a6.45,6.45,0,0,1-1-.08,6.38,6.38,0,0,1-4.56-3.13L225.73,278A16,16,0,0,0,213.34,270l-24.9.07a60.93,60.93,0,0,1-9.85-.77l-14-2.26A12.22,12.22,0,0,0,154,272.33l-4.15,5.92-2.78-1.95-3.64.85c-3.37-14.38.47-23,4.28-27.67a15.07,15.07,0,0,1,15.14-4.9l15.58,3.69a29.68,29.68,0,0,0,11.11.5l22.74-3.27A21.57,21.57,0,0,1,236,260.35l7.21,22.6a6.41,6.41,0,0,1-6.09,8.35ZM213.55,265h.11a21,21,0,0,1,16.4,10.42l5.84,10.12a1.41,1.41,0,0,0,2.16.34,1.41,1.41,0,0,0,.39-1.47l-7.21-22.6A16.57,16.57,0,0,0,213,250.46l-22.74,3.27a34.69,34.69,0,0,1-13-.58l-15.58-3.69a10.06,10.06,0,0,0-10.11,3.19c-3.94,4.84-5.29,11.72-4,20l2.26-3.22a17.25,17.25,0,0,1,15-7.37l.28,0,14.17,2.28a61.39,61.39,0,0,0,9,.71Z"/><path class="cls-1" d="M329.31,208.36a12.05,12.05,0,0,1-9.61-5.23c-9.42-12.51-46-53.33-120.45-53.33-37.52,0-62.29,10.29-73.72,16.42-5.28,2.83-9.73,8.2-12.55,15.11l-1.36,3.34-2.7-2.39c-.4-.35-9.78-8.81-9.78-24.7a96.05,96.05,0,0,1,4.11-26.9c2.28-7.46,6.57-17.64,14-23.8,6.07-5,19.59-12.12,39.33-17a171.62,171.62,0,0,1,67.63-3.05c23.76,3.75,46,10.72,64.24,20.17,16.9,8.74,30.22,19.4,38.54,30.83,11.55,15.89,15.76,46.94,13,60.12C338.66,204.16,334.37,208.36,329.31,208.36ZM199.25,144.68c32.76,0,62,7.57,87,22.5,20.17,12,32.15,25.76,37.5,32.87a7.09,7.09,0,0,0,5.52,3.19c2.54,0,4.87-2.63,5.67-6.41,2.55-12-1.5-41.47-12.1-56C315,130,302.33,119.87,286.14,111.5c-17.79-9.2-39.47-16-62.69-19.66-50.18-7.92-91.68,9.72-102.91,19-6.55,5.4-16.29,22.31-16.29,46.76a30.47,30.47,0,0,0,5.69,18.13,32.85,32.85,0,0,1,13.16-14C135,155.35,160.61,144.68,199.25,144.68Z"/><path class="cls-1" d="M173,303.46a29.81,29.81,0,0,1-12.37-2.68,11.06,11.06,0,0,1-5.34-5.21l4.5-2.19a6.05,6.05,0,0,0,2.92,2.85,24.84,24.84,0,0,0,16.71,1.39l25.86-6.95a4.48,4.48,0,0,0-.37-8.73l-38.63-7a6.06,6.06,0,0,0-5.25,1.59,6,6,0,0,0-1.42,2.11L155,276.84a11,11,0,0,1,12.2-6.77l38.63,7a9.48,9.48,0,0,1,.78,18.48l-25.86,6.95A29.71,29.71,0,0,1,173,303.46Z"/><path class="cls-1" d="M100.41,297.47a11.52,11.52,0,1,1,11.52-11.52A11.53,11.53,0,0,1,100.41,297.47Zm0-18.21a6.69,6.69,0,1,0,6.68,6.68A6.69,6.69,0,0,0,100.41,279.26Z"/><path class="cls-1" d="M100.89,298a12,12,0,0,1-8.33-20.65,11.72,11.72,0,0,1,8.77-3.36l60.53,2.11a9.9,9.9,0,0,1,0,19.79L101.32,298Zm0-19.19a7.18,7.18,0,0,0-5,12.34,7.29,7.29,0,0,0,5.24,2L161.68,291a5.07,5.07,0,0,0,0-10.13l-60.53-2.11Z"/><path class="cls-1" d="M140.87,296.57l6-4.59a7.61,7.61,0,0,0,0-12.06l-6-4.6,21,.73a9.9,9.9,0,0,1,0,19.79Zm12.58-16a12.54,12.54,0,0,1,0,10.7l8.23-.29a5.07,5.07,0,0,0,0-10.13Z"/><path class="cls-1" d="M242.35,208.43l-11.47-.22-.74,2.93-2.48-2.05-.42,1.43c-1,4.81,1.92,9.39,7,10.9a9.84,9.84,0,0,0,12.22-6.63l.73-2.46Zm-1.72,5.51a3.67,3.67,0,1,1-2.48-4.56A3.67,3.67,0,0,1,240.63,213.94Z"/><path class="cls-1" d="M219.5,216.56a2.06,2.06,0,0,0,2.35.07,42.5,42.5,0,0,1,7.56-3.86,21.18,21.18,0,0,1,17.71.91l4.34,2.62a2,2,0,0,0,2.43-.29h0a2,2,0,0,0-.11-2.94l-2.05-1.73a39.5,39.5,0,0,0-5-3.12c-6.51-2.95-12.54-2.58-19.15.06a32.67,32.67,0,0,0-8.23,5,2.08,2.08,0,0,0,.11,3.3Z"/><path class="cls-1" d="M188.47,85c6-25.51,17.57-35.88,20.08-37.87l14.92-.61c29,0,53.7,12.91,73.52,38.37a150,150,0,0,1,23.78,45.38,75.8,75.8,0,0,1,5.74,6.79l1,.1-.72-3.28c-2-9-10-31.44-26-52-20.48-26.32-47.22-40.24-77.42-40.24h0l-16.44.67-.56.37c-.83.55-16.06,11-23,42.64Q185.87,85.19,188.47,85Z"/><path class="cls-1" d="M129.9,99.24a64.47,64.47,0,0,1,14.73-25.74c16.66-17.87,43.19-26.93,78.85-26.93,65.17,0,91.09,65.09,97.12,83.57a75.36,75.36,0,0,1,6.43,7.65l.33.47a27.07,27.07,0,0,0-.59-4.32C321.46,110,291.1,41.73,223.48,41.73c-76.17,0-94.75,41.14-99.27,60.5C125.91,101.25,127.8,100.24,129.9,99.24Z"/><path class="cls-1" d="M387.25,322.06,364.3,282.68a50.55,50.55,0,0,1-6.79-28.87,55.33,55.33,0,0,0-12.93-39.42l-5.27-6.26q-1.37-1.63-2.59-3.36a10.62,10.62,0,0,1-3.88,2.88c.87,1.23,1.8,2.43,2.77,3.6l5.27,6.26a50.51,50.51,0,0,1,11.8,36,55.41,55.41,0,0,0,7.44,31.63l22.95,39.38a22.66,22.66,0,0,1,2.43,16.92L381,359.84a22.72,22.72,0,0,1-23.79,17.25L319,374.26a70.13,70.13,0,0,0-28.19,3.64l-64,22a66.07,66.07,0,0,1-58.5-7.9,70.82,70.82,0,0,0-39.88-12.31c-2,0-4,.09-6,.26l-23.36,2a22.77,22.77,0,0,1-24.72-22.68V322.54a27.74,27.74,0,0,0-5.8-16.93,22.88,22.88,0,0,1-.42-27.38l18.59-25.5a27.33,27.33,0,0,0,5.16-13.54L96,216c.5-5.44,1.66-18.16,6.06-21.91l10.18-9.51c2.39-2.07,4.31-6.8,5.8-12a34.93,34.93,0,0,0-5.06,8.72l-1.36,3.34-2.7-2.39c-.05,0-.29-.26-.63-.62l-9.44,8.82c-5.11,4.35-6.7,14.62-7.63,24.88l-4.1,23.17a22.78,22.78,0,0,1-4.28,11.34l-18.59,25.5a27.73,27.73,0,0,0,.51,33.19,22.88,22.88,0,0,1,4.79,14v36.73a27.6,27.6,0,0,0,30,27.5l23.36-2A66,66,0,0,1,165.64,396a70.89,70.89,0,0,0,62.8,8.48l64-22a65.45,65.45,0,0,1,26.26-3.39l38.14,2.83A27.49,27.49,0,0,0,385.65,361l4.55-18.42A27.47,27.47,0,0,0,387.25,322.06Z"/><path class="cls-1" d="M142.77,158.75l-5.34,11.42c-2.68,5.72-9,11.05-16.85,14.26a12.27,12.27,0,0,0-6.9,7l-4.89,13,4.53,1.7,4.89-13a7.43,7.43,0,0,1,4.19-4.2c9-3.65,16.23-9.89,19.41-16.69l7.25-15.5Q145.74,157.71,142.77,158.75Z"/><path class="cls-1" d="M355,292.4c-2.81-17.9-18.6-36.24-30.26-49.79l-4.43-5.15a72.33,72.33,0,0,1-9-13.58l-2.31-4.38a71.32,71.32,0,0,1-5-11.31C301.5,200.5,296.2,195.12,289,193a29,29,0,0,1-18.16-15.56l-7.41-15.84q-3.15-1.27-6.48-2.44l9.51,20.33a33.85,33.85,0,0,0,21.19,18.15c3.95,1.15,9.18,4.17,11.69,12a75.54,75.54,0,0,0,5.31,12.09l2.31,4.38a77.12,77.12,0,0,0,9.72,14.56l4.36,5.07c11.28,13.11,26.55,30.86,29.15,47.37a2.42,2.42,0,0,0,4.78-.73Z"/><path class="cls-1" d="M158.38,335.87A130.93,130.93,0,0,1,142,326a56.11,56.11,0,0,1-22.16-32.12,509.07,509.07,0,0,1-10.92-59,48.55,48.55,0,0,1,2.43-22.67c6.16-16.95,11-33.21,14.52-46.19l-.33.17a23.78,23.78,0,0,0-6,4.73c-3.29,11.68-7.53,25.41-12.7,39.63a53.44,53.44,0,0,0-2.68,24.93,514.09,514.09,0,0,0,11,59.58A61,61,0,0,0,139.21,330a127.7,127.7,0,0,0,22.28,12.63A56.23,56.23,0,0,1,158.38,335.87Z"/><path class="cls-1" d="M320,271.91a82.49,82.49,0,0,1-35.87,49.87A148.19,148.19,0,0,1,250,338.06a32.66,32.66,0,0,1-3.51,6.13,150.39,150.39,0,0,0,40.23-18.33,87.28,87.28,0,0,0,38-53.06A12.88,12.88,0,0,1,320,271.91Z"/><path class="cls-1" d="M207.87,358.2c-13.61,0-26.65-1.36-34.07-3.75-9.18-3-14.47-14.71-17.29-24l-.45-1.48a5,5,0,0,1,7.47-5.75l.54.33.31.54a5,5,0,0,0,4,2.48,7.55,7.55,0,0,0,7.07-3.87l2.14-3.88a.61.61,0,0,0-.25-.84,5.61,5.61,0,0,1,.77-10.29l8.31-2.85a5.64,5.64,0,0,1,3.74,0l9,3.27a5.61,5.61,0,0,1,1.55,9.69l-1.6,1.26a.61.61,0,0,0-.1.87l4.45,5.46a14.25,14.25,0,0,0,11.09,5.26h11.64a17.4,17.4,0,0,0,9.63-2.89c1.86-1.23,3.72-2.55,5.53-3.91a7.15,7.15,0,0,1,6-1.25,6.76,6.76,0,0,1,4.53,3.56,5.93,5.93,0,0,1,.57,3.53,32.77,32.77,0,0,1-29.74,28C217.81,358,212.8,358.2,207.87,358.2ZM161,328l.25,1c3.5,11.58,8.48,18.94,14,20.73,9.4,3,29.58,4.31,46.93,3A27.75,27.75,0,0,0,247.44,329a.91.91,0,0,0-.1-.61,1.76,1.76,0,0,0-1.2-.92,2.19,2.19,0,0,0-1.81.38c-1.89,1.42-3.83,2.8-5.78,4.09a22.4,22.4,0,0,1-12.38,3.71H214.53a19.23,19.23,0,0,1-15-7.1l-4.45-5.46a5.61,5.61,0,0,1,.88-8l1.6-1.26a.61.61,0,0,0-.17-1.06l-9-3.27a.63.63,0,0,0-.41,0l-8.31,2.85a.61.61,0,0,0-.08,1.12A5.61,5.61,0,0,1,182,321.2l-2.14,3.88a12.57,12.57,0,0,1-11.78,6.44h0A10,10,0,0,1,161,328Z"/></svg>