<svg id="Layer_1" data-name="Layer 1" xmlns="http://www.w3.org/2000/svg" viewBox="0 0 450 450"><defs><style>.cls-1{fill:#b6bcff;}</style></defs><title>stroke_jules</title><path class="cls-1" d="M251.24,394.41a16.79,16.79,0,0,1-16.77-17.08,334.17,334.17,0,0,0-2.31-47.61A50.38,50.38,0,0,0,203,290.15l-.37-.17A12.22,12.22,0,0,0,187.1,295a45,45,0,0,0-5.23,30.75l8.25,43.87a15.55,15.55,0,0,1-28.2,11.55l-.8-1.19a28.64,28.64,0,0,1-4.72-18.67l3.84-39.81a105.11,105.11,0,0,1,7.48-30.05,34.82,34.82,0,0,1,22.33-20.17h0a19.63,19.63,0,0,1,14.11,1.11,94.84,94.84,0,0,1,48.47,53.4c6.11,16.77,12.57,35.27,15.88,44.81a16.72,16.72,0,0,1-3.66,17l-1.43,1.51A16.75,16.75,0,0,1,251.24,394.41Zm-53.55-110.5a17.19,17.19,0,0,1,7,1.5l.38.17a55.42,55.42,0,0,1,32,43.51,339.31,339.31,0,0,1,2.35,48.32,11.77,11.77,0,0,0,20.33,8.29l1.43-1.51a11.73,11.73,0,0,0,2.57-11.94c-3.3-9.52-9.76-28-15.85-44.74A89.86,89.86,0,0,0,202,276.92a14.66,14.66,0,0,0-10.52-.82h0a29.85,29.85,0,0,0-19.14,17.29A100.12,100.12,0,0,0,165.22,322l-3.84,39.81a23.62,23.62,0,0,0,3.9,15.4l.8,1.19a10.55,10.55,0,0,0,19.13-7.84L177,326.7a50,50,0,0,1,5.81-34.17,17.23,17.23,0,0,1,14.92-8.62Z"/><path class="cls-1" d="M180.38,247.81a3.58,3.58,0,0,1-3-.41,70.16,70.16,0,0,0-18.63-7.9,10.43,10.43,0,0,0-7.9,1.16c-2.31,1.41-4.65,2.74-6.17,4.8a1.29,1.29,0,0,1-1.7.32h0a1.31,1.31,0,0,1-.59-1.47c1-3.6,3.54-7.76,7.19-9.19s6.36-2.22,10.39-1.22c9,2.24,17.49,9,20.84,12a1.15,1.15,0,0,1-.42,2Z"/><path class="cls-1" d="M152.85,308.91a23.13,23.13,0,0,0-1.08-6.2c-1.2-3.41-3.13-5.88-6.07-9.11a25.3,25.3,0,0,1-5.29-8.89,92.46,92.46,0,0,1-4.94-30.53c.11-13.53,1.48-19.2,2.6-21.58l-4.62-2.19c-2,4.13-3,12.12-3.1,23.73a97.57,97.57,0,0,0,5.15,32c1.37,4.06,1,5.8,3.86,9,3.35,3.67,6.38,6.37,8.62,12.13l.88,2.09a2.7,2.7,0,0,0,3.18,1.56h0S153,310.8,152.85,308.91Z"/><path class="cls-1" d="M284.76,371.38a9.62,9.62,0,0,1-8.8-5.73l-15-34a9.57,9.57,0,0,1,3-11.55c10.2-7.7,34.45-28.08,39.3-50.8,6-28.27-11.43-45.33-11.6-45.5l3.16-3.86c18.48,12.94,28.8,34.39,30.68,63.75A101.78,101.78,0,0,1,303.84,353l-11.51,14.68A9.56,9.56,0,0,1,284.76,371.38Zm-19.22-41.74,15,34a4.62,4.62,0,0,0,7.86,1l11.51-14.68A96.78,96.78,0,0,0,320.5,284c-1.2-18.84-6-34.19-14.34-45.86a57.28,57.28,0,0,1,2,32.19c-5.2,24.37-30.53,45.7-41.18,53.75a4.59,4.59,0,0,0-1.44,5.54Z"/><path class="cls-1" d="M144.67,354.1a9.26,9.26,0,0,1-5.19-1.59c-.2-.13-.37-.26-.51-.37l-.53-.13-.54-1c-6.52-12.7-9.85-32.51-9.89-58.85a335.31,335.31,0,0,1,1.87-35.66l5,.35-.35,15.14c2.88,19.3,10.25,55.44,19.78,69.59l.56.83L154.2,346a9.73,9.73,0,0,1-5.81,7.29A9.5,9.5,0,0,1,144.67,354.1Zm-2.54-5.84.15.1a4.31,4.31,0,0,0,4.16.37,4.74,4.74,0,0,0,2.84-3.55l.3-1.71c-7.55-11.9-13.2-34.66-16.56-51.31C133.05,311.23,134.9,333.8,142.13,348.26Z"/><path class="cls-1" d="M221.56,248.42l-2.16-.36a4.24,4.24,0,0,1-2.61-1.53l0,0a1.17,1.17,0,0,1,.9-1.91H220a14.57,14.57,0,0,0,11.53-5.48,19.22,19.22,0,0,1,5.42-4.78,18.32,18.32,0,0,1,18.73.36l3.49,2.12a1.7,1.7,0,0,1,.18,2.78h0a12.41,12.41,0,0,1-6,0L251,239c-4.93-1.76-9-1.22-12.8,2.43A23.19,23.19,0,0,1,221.56,248.42Z"/><path class="cls-1" d="M149,258s-1.08,1.27-2.15.42c-.92-.73-.18-2-.18-2s8.61-14.31,28.66-4.57a2.6,2.6,0,0,1,1.16,3.59h0a2.54,2.54,0,0,1-3.29,1.09,26.42,26.42,0,0,0-17.5-2C150.86,255.57,149,258,149,258Z"/><path class="cls-1" d="M152.84,259.12l.06,0c4.82,3.44,6.72,3.76,11,2.95l7.7-2a1.28,1.28,0,0,1,1.53.84h0a1.3,1.3,0,0,1-.4,1.39,21.3,21.3,0,0,1-12,4.71,20.35,20.35,0,0,1-9.63-2.92,3.73,3.73,0,0,1-1.64-2.16h0a2.41,2.41,0,0,1,.58-2.33h0A2.41,2.41,0,0,1,152.84,259.12Z"/><path class="cls-1" d="M166.85,253.6a5.48,5.48,0,1,1-10.94.56c-.16-3,2.67-3.91,5.69-4.07S166.69,250.58,166.85,253.6Z"/><path class="cls-1" d="M251.25,259.13s1,1.36,2.11.6c1-.65.35-1.94.35-1.94-.08-.15-7.35-15-28.16-7a2.6,2.6,0,0,0-1.46,3.48h0a2.54,2.54,0,0,0,3.18,1.37,26.42,26.42,0,0,1,17.61-.51C249.61,256.56,251.24,259.11,251.25,259.13Z"/><path class="cls-1" d="M247.33,259.92l-.06,0c-5.1,3-7,3.17-11.26,2l-7.5-2.62a1.28,1.28,0,0,0-1.6.7h0a1.3,1.3,0,0,0,.28,1.42,21.3,21.3,0,0,0,11.52,5.72,20.35,20.35,0,0,0,9.84-2.08,3.73,3.73,0,0,0,1.82-2h0a2.41,2.41,0,0,0-.37-2.37h0A2.41,2.41,0,0,0,247.33,259.92Z"/><path class="cls-1" d="M233.85,253.22a5.48,5.48,0,0,0,10.85,1.5c.42-3-2.33-4.13-5.32-4.54S234.27,250.23,233.85,253.22Z"/><path class="cls-1" d="M203.59,332.46a50.49,50.49,0,0,1,6.69,2.17,3.5,3.5,0,0,0,3.15-.31,1.29,1.29,0,0,0,.19-2,22.1,22.1,0,0,0-10.11-5.47A23.47,23.47,0,0,0,180.87,334l1.72,9.15C186.65,335.58,195.48,330.52,203.59,332.46Z"/><path class="cls-1" d="M237.39,381.11a54.35,54.35,0,0,1-50.38-3.9,13.05,13.05,0,0,1-2.73,4.3,59.84,59.84,0,0,0,27.85,9q1.9.12,3.8.12a59.75,59.75,0,0,0,23.56-4.85A14.24,14.24,0,0,1,237.39,381.11Z"/><path class="cls-1" d="M211.59,292.06a10,10,0,0,1,.88,6,13.35,13.35,0,0,1-8.1,10.27l-1.56.65a13.44,13.44,0,0,1-18.16-9,8.56,8.56,0,0,1,3-8.9l4.42-3.5a14.71,14.71,0,0,0-7.1,6.23h0a47.42,47.42,0,0,0-4.33,10.07,18.55,18.55,0,0,0,24.18,9.8l1.56-.65a18.44,18.44,0,0,0,11.18-14.18,15.12,15.12,0,0,0,.17-2A52.25,52.25,0,0,0,211.59,292.06Z"/><path class="cls-1" d="M316.51,246c.84,1.77,1.61,3.62,2.34,5.5a14.65,14.65,0,0,1,6,25.38q.33,2.88.55,5.87a19.76,19.76,0,0,0-8.9-36.75Z"/><path class="cls-1" d="M284.28,219.89a30.23,30.23,0,0,1,7.83,4.39c-.28-.3-.44-.46-.46-.47l3.16-3.86c.56.39,1.08.81,1.63,1.22a35.34,35.34,0,0,0-10.34-6.06,41.22,41.22,0,0,0-25.34-1.36L214.29,226a63.27,63.27,0,0,1-40.19-2.75l-10.35-4.3a23.47,23.47,0,0,0-30.31,11.46c-4.68,9.88-4,22.3-2.58,41.75,1.75,23.47,7.11,44.69,15.92,63.09a137.75,137.75,0,0,0,12.6,21.24l.76-7.91A134.22,134.22,0,0,1,151.4,333c-8.54-17.82-13.73-38.43-15.43-61.26-1.39-18.61-2-30.46,2.1-39.17a18.21,18.21,0,0,1,16.52-10.37,18.72,18.72,0,0,1,7.2,1.45l10.35,4.3a68.41,68.41,0,0,0,43.46,3l46.47-12.25A36.13,36.13,0,0,1,284.28,219.89Z"/><path class="cls-1" d="M270.92,354.23q-3.7,4.15-7.91,8.21l1.85,5.29q4.44-4.13,8.33-8.38Z"/><path class="cls-1" d="M329.15,101.24a147.29,147.29,0,0,0-208.3,208.3q4.07,4.07,8.4,7.77c-.26-2.4-.48-4.87-.66-7.43q-2.09-1.94-4.12-4a142.17,142.17,0,1,1,201.06,0c-.43.42-.86.83-1.29,1.25q-.76,4.42-1.9,8.75c2.32-2.05,4.6-4.17,6.81-6.38a147.29,147.29,0,0,0,0-208.3Z"/></svg>