<svg id="Layer_1" data-name="Layer 1" xmlns="http://www.w3.org/2000/svg" viewBox="0 0 450 450"><defs><style>.cls-1{fill:#b6bcff;}</style></defs><title>stroke_walter</title><path class="cls-1" d="M269.08,210.25h0a4.23,4.23,0,0,0,5.2-3.46l.19-1.21a4.43,4.43,0,0,0,0-1.42c-2.11-12.22-13.3-18-23.64-17l-24.63,2.27a7.72,7.72,0,0,1-4.17-.79l-3-1.49a3,3,0,0,0-2.26-.17h0A3,3,0,0,0,215,191l.48,1.1A11.62,11.62,0,0,0,227.09,199h0l24.63-2.27a13.25,13.25,0,0,1,13.73,8.85l.66,1.91A4.23,4.23,0,0,0,269.08,210.25Z"/><path class="cls-1" d="M191.23,166.4a21.93,21.93,0,0,1-15.86-6l-2.95-2.19a14.85,14.85,0,0,0-4.87-2.09,20.6,20.6,0,0,0-19.39,4.43,1.14,1.14,0,0,1-1.58,0h0a1.15,1.15,0,0,1,0-1.63c6.31-6.23,13.71-9.71,22.22-7.47a19.11,19.11,0,0,1,6.54,2.89l3.3,2.48a17.06,17.06,0,0,0,18.24,3.49l10.95-4.46c13-5.28,30.29-4.87,40,1.34a1.07,1.07,0,0,1,.19,1.65h0a1.07,1.07,0,0,1-1.16.24c-12-4.81-25.16-3.62-37.18,1.28L198.7,164.8A21.85,21.85,0,0,1,191.23,166.4Z"/><path class="cls-1" d="M196.92,151.32c-7.26.26-14.72-.19-21.38-5.21a1.65,1.65,0,0,1-.29-2.34l.26-.33a1.66,1.66,0,0,1,1.95-.49A45.73,45.73,0,0,0,206.59,145l1.2-.31a1.65,1.65,0,0,1,1.94,1h0a1.65,1.65,0,0,1-.93,2.15C205.9,148.95,199.71,151.22,196.92,151.32Z"/><path class="cls-1" d="M358.72,252.28,350.1,224a43,43,0,0,0-23.79-26.83,14.26,14.26,0,0,1-8.53-12.43c-.39-8-1.13-22.15-2.51-43.83-.78-12.28-9.28-22.78-22.73-28.1l-.07,0-1.92-.83a64.08,64.08,0,0,0-43.33-1.14l-22.35,7.4a57.1,57.1,0,0,1-50-7.1,29.17,29.17,0,0,0-23.08-4.35l-4.5,1-.11-3.07c-.35-9.62,1.82-23.63,1.91-24.22l.07-.44.22-.39A11,11,0,0,1,156,74.4l1.41-.41c18.74-5.87,78-6.59,80.47-6.62,64.73-2.33,89.56,23.16,92.18,26.07l.37.42.16.33c12.6,27.13,21.33,54.45,26,81.2a255.83,255.83,0,0,1,3.2,63.58ZM294.44,108.12c15.08,6,25,18.41,25.89,32.47,1.38,21.71,2.13,35.86,2.51,43.91a9.23,9.23,0,0,0,5.52,8,48.08,48.08,0,0,1,26.59,30l.48,1.57c.73-41.13-9.08-83.92-29.23-127.43-2.12-2.27-26.28-26.46-88.15-24.24-.67,0-61,.74-79.13,6.4l-1.47.42A6,6,0,0,0,154,81.78a172.19,172.19,0,0,0-1.81,19.73,34.25,34.25,0,0,1,25.52,5.43,52,52,0,0,0,45.53,6.47l22.35-7.4a69.15,69.15,0,0,1,46.8,1.24l.08,0Z"/><path class="cls-1" d="M193.9,306.74h0A3.78,3.78,0,0,1,190,306c-1.81-1.63-5-3.7-7.22-3.83-2.81-.16-6.14.47-7.84,2.45-.92,1.07-2.2,2.92-3.61,2.84h0a1.53,1.53,0,0,1-1.3-2.17,13.54,13.54,0,0,1,24.6-.25A1.27,1.27,0,0,1,193.9,306.74Z"/><path class="cls-1" d="M256.14,219.77h0a1.2,1.2,0,0,0,.07-1.37h0a18.33,18.33,0,0,0-7.89-6.55,22.64,22.64,0,0,0-2.7-1,29.92,29.92,0,0,0-13.46-1.09,16.31,16.31,0,0,0-6.27,2.63,1.23,1.23,0,0,0-.18,1.82h0a1.24,1.24,0,0,0,1.28.33c7.45-2.31,15.25-.62,22.33,2.8l5.32,2.76A1.2,1.2,0,0,0,256.14,219.77Z"/><path class="cls-1" d="M245.58,213.54a6.37,6.37,0,1,1-12-1.22A21.78,21.78,0,0,1,245.58,213.54Z"/><path class="cls-1" d="M127.38,217.2h0a1.2,1.2,0,0,1,.06-1.37h0a18.33,18.33,0,0,1,8.48-5.77,22.64,22.64,0,0,1,2.78-.75,29.92,29.92,0,0,1,13.5.2,16.31,16.31,0,0,1,6,3.21,1.23,1.23,0,0,1,0,1.83h0a1.24,1.24,0,0,1-1.31.21c-7.19-3-15.12-2.07-22.49.66l-5.55,2.24A1.2,1.2,0,0,1,127.38,217.2Z"/><path class="cls-1" d="M138.49,212a6.37,6.37,0,1,0,12.06-.07A21.78,21.78,0,0,0,138.49,212Z"/><path class="cls-1" d="M114.3,210.25h0a4.23,4.23,0,0,1-5.2-3.46l-.19-1.21a4.43,4.43,0,0,1,0-1.42c2.11-12.22,13.3-18,23.64-17l24.63,2.27a7.72,7.72,0,0,0,4.17-.79l3-1.49a3,3,0,0,1,2.26-.17h0a3,3,0,0,1,1.83,4.06l-.48,1.1A11.62,11.62,0,0,1,156.3,199h0l-24.63-2.27a13.25,13.25,0,0,0-13.73,8.85l-.66,1.91A4.23,4.23,0,0,1,114.3,210.25Z"/><path class="cls-1" d="M131.39,256.52c-5.62,0-15.72-.66-24.78-4.68-10.78-4.78-16.67-12.91-17.06-23.52-.3-8.46.59-15.77,2.65-21.73a17.26,17.26,0,0,1,12.72-11.18h0c9.24-1.94,28.93-5.41,57-6.85l.39,0,.38.1c.69.18,16.83,4.62,17.65,27.66.37,10.3-5.76,20.51-17.26,28.76-9.1,6.52-20.87,11.11-29.28,11.41C133.13,256.5,132.32,256.52,131.39,256.52Zm30.34-62.87c-27.48,1.44-46.72,4.82-55.77,6.72h0a12.17,12.17,0,0,0-9,7.88c-1.86,5.37-2.65,12.06-2.37,19.89.31,8.66,5,15.08,14,19.07,9.6,4.26,20.64,4.36,24.95,4.2,7.38-.26,18.28-4.57,26.51-10.47,5.84-4.18,15.57-12.92,15.15-24.46C174.64,198.85,163.84,194.36,161.73,193.65Z"/><path class="cls-1" d="M242,261.7c-9.05,0-21.56-4-31.54-10.1-13.08-8-20.5-18.57-20.9-29.72-.89-24.78,16.47-32.67,17.21-33l.21-.08a8.15,8.15,0,0,1,2.94-.42,580.5,580.5,0,0,1,60.37,5.77,18.15,18.15,0,0,1,13.83,10.29l0,.07c2.69,6.29,4.23,14.14,4.56,23.33.41,11.47-5.32,20.7-16.58,26.69-11.07,5.89-24,7-29.08,7.14Zm-33.3-68.13c-1.41.67-14.82,7.58-14.08,28.13.46,12.68,11.78,21.47,18.49,25.59,9.44,5.79,21.68,9.64,29.76,9.34,4.27-.15,41.73-2.26,40.79-28.58-.31-8.54-1.7-15.77-4.14-21.48a13.1,13.1,0,0,0-10-7.39,575.37,575.37,0,0,0-59.84-5.72A3.08,3.08,0,0,0,208.74,193.57Z"/><path class="cls-1" d="M191.43,215.09l-2-1.39a9.13,9.13,0,0,0-10.44,0l-2.92-4.14a14.21,14.21,0,0,1,16.25-.05l2,1.39Z"/><path class="cls-1" d="M347.5,215.83c-106-29.6-186.3-24.15-224.75-18.27l-.77-5c38.85-5.94,120-11.45,226.88,18.4Z"/><path class="cls-1" d="M287.75,344.32c23.69-12.67,41.24-25.89,53-46.89,3.54-6.87,10.92-27,13.63-54.41,3.13-31.64,1-82.28-27-143.92L331.91,97c12.6,27.71,21.14,55.59,25.4,82.86a252,252,0,0,1,2,63.94c-3.53,35.15-13.73,55.15-14.16,56l0,.07c-12.27,22-33.93,39.7-64.38,52.57-.69.33-10.54,3.81-16.14,5.47Z"/><path class="cls-1" d="M150.73,299.93h0a15.34,15.34,0,0,1,1.45-7.08h0a10.08,10.08,0,0,1,5.7-5.19c4.42-1.6,12-2.88,22.44-3.26a86.51,86.51,0,0,1,26.22,3.26,11.43,11.43,0,0,1,1.64.63,35.79,35.79,0,0,1,15.07,13.79,1.3,1.3,0,0,1-2.17,1.43h0a29.79,29.79,0,0,0-11.94-9.44h0a29.37,29.37,0,0,0-4.84-1.63c-7-1.69-26.09-5.34-44.72-.37a9.91,9.91,0,0,0-5,3.2h0a10.09,10.09,0,0,0-2.13,4.25l-.13.56A.82.82,0,0,1,150.73,299.93Z"/><path class="cls-1" d="M360,203.9c2,31.38-2.22,56-6.14,71.21a110.36,110.36,0,0,1-24.75,46.48c-13.62,15-27,21.14-43.91,28.91a253.59,253.59,0,0,0-30.89,17C244.1,374,227.77,382,207.79,382.7c-1.44.05-2.86.08-4.26.08-30.17,0-53.34-11.89-70.74-36.25a48.39,48.39,0,0,1-7-14.84,55.3,55.3,0,0,1,.78-33,57,57,0,0,1,19.16-27,191.39,191.39,0,0,1,35.66-22.07,5.15,5.15,0,0,1,4.56.07c6.07,3.09,37.1,19.21,51.53,32.64,15.38,14.32,23.29,36.06,24.27,38.88l.26.41c.5.66,7.88,10.06,16.84,8.34l1.21-.22c6.35-1.14,23.22-4.15,36.49-17.63a100,100,0,0,0,15.6-21.51,139.74,139.74,0,0,0,16.2-49.11,171.53,171.53,0,0,0,1.78-21.28l2.43,3,1.61,5.8,1.36,0,2.32-14.19ZM355.49,229l-2.17,13.18a144.76,144.76,0,0,1-16.79,50.88,105,105,0,0,1-16.41,22.6c-14.4,14.63-33.07,18-39.2,19.06l-1.15.21h0c-12.4,2.38-21.52-9.83-21.91-10.35l-.06-.09c-.39-.59-.59-.94-.59-.94l-.12-.21-.08-.24c-.08-.23-7.85-22.94-23-37.06-13.94-13-44.41-28.79-50.38-31.83h-.11a186.33,186.33,0,0,0-34.71,21.48,52,52,0,0,0-17.46,24.57,50.26,50.26,0,0,0-.72,30,43.36,43.36,0,0,0,6.3,13.3c17.38,24.35,39.86,35.17,70.7,34.06,18.83-.68,34.29-8.19,43.94-14.38a258.7,258.7,0,0,1,31.51-17.35c17-7.82,29.35-13.47,42.28-27.72a105.28,105.28,0,0,0,23.6-44.34S354.81,255.45,355.49,229ZM213.93,344.18a38.56,38.56,0,0,1-4.52-.26c-13.38-1.59-23.63-9.8-28.86-23.13a.42.42,0,0,0-.4-.29.44.44,0,0,0-.43.26c-6.39,12.72-14.81,19.46-24.07,19.46a20.24,20.24,0,0,1-4.87-.61c-11.87-2.94-18.38-12.52-18.32-27a34.59,34.59,0,0,1,18.06-29.83,67.62,67.62,0,0,1,30.5-8.28c25.35-.91,48.85,15.47,55.09,21.28,2.29,2.13,9.8,9.92,10.18,20.48.23,6.57-2.36,12.81-7.69,18.52C232.07,341.8,222.05,344.18,213.93,344.18Zm-33.82-28.74h.27a5.45,5.45,0,0,1,4.88,3.5c5.79,14.75,16.65,19,24.75,20s18.79-1,24.88-7.54h0c4.39-4.7,6.52-9.71,6.33-14.89-.31-8.84-7.19-15.68-8.57-17-5.85-5.44-27.84-20.78-51.46-19.93A62.53,62.53,0,0,0,153,287.22a29.52,29.52,0,0,0-15.46,25.43c-.06,15.25,7.84,20.41,14.47,22,11.06,2.74,18.72-7.31,23.2-16.21A5.45,5.45,0,0,1,180.11,315.44Z"/><path class="cls-1" d="M354.33,243a205.54,205.54,0,0,1-5.7,32c.1-.37.21-.75.31-1.12,0,0,5.88-18.4,6.56-44.82l-.31,1.86C355,235.19,354.7,239.24,354.33,243Z"/><path class="cls-1" d="M360.44,214.89q0-2.2-.13-4.41Q360.39,212.71,360.44,214.89Z"/><path class="cls-1" d="M301.52,336.23a168.15,168.15,0,0,1-17.16,9.08c16.36-7.52,28.39-13.25,41-27.12,1.65-1.82,3.22-3.71,4.74-5.66A119,119,0,0,1,301.52,336.23Z"/><path class="cls-1" d="M360.25,209.18q-.11-2.53-.27-5.07Q360.15,206.67,360.25,209.18Z"/><path class="cls-1" d="M360.45,215.54a223.31,223.31,0,0,1-6.62,59.57A111.54,111.54,0,0,1,334,315.75a96.33,96.33,0,0,0,11.15-15.89l0-.07c.43-.83,10.63-20.84,14.16-56A238.17,238.17,0,0,0,360.45,215.54Z"/><path class="cls-1" d="M357.38,180.39c0-.17,0-.35-.08-.52l0-.18C357.32,179.92,357.35,180.16,357.38,180.39Z"/><path class="cls-1" d="M359.55,198.4c0-.35-.06-.7-.09-1C359.49,197.7,359.52,198.05,359.55,198.4Z"/><path class="cls-1" d="M356.51,175c-.12-.68-.25-1.37-.37-2.05C356.26,173.67,356.39,174.35,356.51,175Z"/><path class="cls-1" d="M354.11,162.86c.14.65.29,1.31.43,2C354.4,164.17,354.25,163.51,354.11,162.86Z"/><path class="cls-1" d="M332.4,98.1,331.91,97l-.06-.11Z"/><path class="cls-1" d="M359,192.25l0-.41Z"/><polygon class="cls-1" points="359.97 203.92 359.97 203.92 359.97 203.91 359.97 203.92"/><path class="cls-1" d="M352.93,157.7c.16.67.32,1.34.48,2C353.25,159,353.09,158.37,352.93,157.7Z"/><path class="cls-1" d="M355.18,168c.13.65.27,1.31.39,2C355.44,169.27,355.31,168.62,355.18,168Z"/><path class="cls-1" d="M358.25,186.47c-.06-.43-.12-.86-.17-1.29C358.14,185.61,358.2,186,358.25,186.47Z"/><path class="cls-1" d="M327.56,99.67q.93,2.06,1.83,4.11Q328.49,101.73,327.56,99.67Z"/><path class="cls-1" d="M355.38,224l0,.14c.69-38.78-8-79-25.88-120C350.61,152.43,355.81,193.69,355.38,224Z"/><path class="cls-1" d="M335.8,105.9q.54,1.27,1.07,2.54Q336.34,107.17,335.8,105.9Z"/><path class="cls-1" d="M341.9,121.33c.31.85.63,1.71.93,2.56C342.53,123,342.22,122.18,341.9,121.33Z"/><path class="cls-1" d="M340,116.17c.33.86.66,1.72,1,2.58C340.62,117.89,340.29,117,340,116.17Z"/><path class="cls-1" d="M337.92,111q.52,1.29,1,2.57Q338.45,112.32,337.92,111Z"/><path class="cls-1" d="M147.31,107.82l-.11-3.07c0-.35,0-.7,0-1.06a43,43,0,0,0-7.77,11.16A427.19,427.19,0,0,0,109,198.34c-1.08,4.33-.37,8.93.27,13,.42,2.7.82,5.26.49,6.8-1.91,9-4.12,17.12-6.08,24.29-3.08,11.3-5.73,21.06-6.41,30.67-1.51,21.65,7.78,37.52,15.84,47a79.09,79.09,0,0,0,12.79,12c0-.16-.1-.32-.15-.48a55.23,55.23,0,0,1-1.59-7.49,73.4,73.4,0,0,1-7.31-7.48c-10.76-12.74-15.65-27.3-14.53-43.26.64-9.11,3.23-18.65,6.24-29.69,2-7.24,4.21-15.45,6.14-24.57.52-2.45.05-5.45-.44-8.63-.56-3.59-1.19-7.66-.36-11a422,422,0,0,1,30-82.47,37.5,37.5,0,0,1,7.16-10.16Z"/><path class="cls-1" d="M333.59,100.79l1.09,2.49Z"/><path class="cls-1" d="M345.52,131.69c.27.82.54,1.64.81,2.46C346.07,133.33,345.79,132.51,345.52,131.69Z"/><path class="cls-1" d="M350.26,147.31c.2.73.4,1.46.6,2.18C350.66,148.77,350.46,148,350.26,147.31Z"/><path class="cls-1" d="M348.78,142.1c.22.76.45,1.52.67,2.28C349.23,143.62,349,142.86,348.78,142.1Z"/><path class="cls-1" d="M351.64,152.51c.18.7.36,1.4.54,2.1C352,153.91,351.82,153.21,351.64,152.51Z"/><path class="cls-1" d="M343.76,126.5c.29.84.59,1.68.88,2.53C344.35,128.19,344.05,127.34,343.76,126.5Z"/><path class="cls-1" d="M347.2,136.89c.25.79.5,1.59.74,2.38C347.69,138.48,347.44,137.68,347.2,136.89Z"/></svg>