<svg id="Layer_1" data-name="Layer 1" xmlns="http://www.w3.org/2000/svg" xmlns:xlink="http://www.w3.org/1999/xlink" viewBox="0 0 450 450"><defs><style>.cls-1{fill:#756a6a;}.cls-2,.cls-9{fill:#575266;}.cls-3{fill:url(#linear-gradient);}.cls-4{fill:url(#linear-gradient-2);}.cls-5{fill:url(#linear-gradient-3);}.cls-6{fill:#fcecd9;}.cls-7{fill:#f2d6c2;}.cls-11,.cls-8{fill:#ff6969;}.cls-9{opacity:0.1;}.cls-10{fill:#ffecca;}.cls-11{opacity:0.75;}.cls-12{fill:#f6e1cf;}.cls-13{fill:#cbeaf4;}</style><linearGradient id="linear-gradient" x1="155.93" y1="288.4" x2="225.65" y2="223.16" gradientUnits="userSpaceOnUse"><stop offset="0" stop-color="#474141" stop-opacity="0"/><stop offset="0.07" stop-color="#474141" stop-opacity="0.1"/><stop offset="0.44" stop-color="#474141" stop-opacity="0.59"/><stop offset="0.74" stop-color="#474141" stop-opacity="0.89"/><stop offset="0.94" stop-color="#474141"/></linearGradient><linearGradient id="linear-gradient-2" x1="312.43" y1="166.97" x2="287.48" y2="127.3" xlink:href="#linear-gradient"/><linearGradient id="linear-gradient-3" x1="128.58" y1="184.18" x2="152.25" y2="143.24" xlink:href="#linear-gradient"/></defs><title>vince</title><path class="cls-1" d="M74.19,360.27s-9.1-53.83,8.42-100.16A211.11,211.11,0,0,0,96,201.51c1.29-17,1.7-37.31-.68-57.13C89.83,98.85,168.07,35.16,242.15,61.61A23.67,23.67,0,0,1,257,77.79h0a44.51,44.51,0,0,1,37.57-6.39,47.93,47.93,0,0,1,7.11,2.77,81.15,81.15,0,0,1,32.12,27.41,183,183,0,0,1,10.89,17.52,109.7,109.7,0,0,1,11.77,68.09l0,.29A149.38,149.38,0,0,0,359,247.3c6.47,26.11,11.85,44.12,18.94,61.85,0,0-40.3,59.71-159,85.29C218.94,394.45,133.81,351,74.19,360.27Z"/><path class="cls-2" d="M218.59,397.14l-.81-.41A414.06,414.06,0,0,0,168,376.3c-25.93-8.74-63.19-18.19-93.46-13.5l-2.49.39-.42-2.49c-.38-2.23-9-55,8.55-101.49a208.75,208.75,0,0,0,13.21-57.89c1.58-20.73,1.35-39.79-.67-56.63-2.42-20.21,10.79-44.51,34.49-63.43a131.71,131.71,0,0,1,52.81-25.48,113,113,0,0,1,63,3.42,26.17,26.17,0,0,1,15.36,14.66,46.82,46.82,0,0,1,36.9-4.93,50.44,50.44,0,0,1,7.5,2.92,83.8,83.8,0,0,1,33.14,28.27,182.36,182.36,0,0,1,11,17.77,112.92,112.92,0,0,1,12,69.68l0,.3a146,146,0,0,0,2.51,58.8c6.77,27.29,12,44.54,18.83,61.52l.5,1.26-.76,1.12c-.42.62-10.61,15.51-35.6,33.69-22.93,16.68-63.21,39.36-124.95,52.67ZM92.17,356.4c21.87,0,47.86,5,77.57,15.07a426.28,426.28,0,0,1,49.54,20.28c60.36-13.15,99.72-35.31,122.14-51.62,20.5-14.92,30.82-27.66,33.59-31.35-6.63-16.79-11.87-34-18.53-60.87a151.1,151.1,0,0,1-2.6-60.84l0-.27a107.77,107.77,0,0,0-11.5-66.5A177.46,177.46,0,0,0,331.7,103,78.67,78.67,0,0,0,300.6,76.49a45.25,45.25,0,0,0-6.72-2.63,41.78,41.78,0,0,0-35.41,6l-3,2.09-.95-3.53A21.09,21.09,0,0,0,241.29,64a107.85,107.85,0,0,0-60.1-3.25,126.55,126.55,0,0,0-50.75,24.48c-22.33,17.82-34.82,40.36-32.6,58.82,2.06,17.17,2.29,36.56.69,57.63A213.86,213.86,0,0,1,85,261c-15,39.61-10.13,85.36-8.65,96.36A123.26,123.26,0,0,1,92.17,356.4Z"/><path class="cls-3" d="M74.19,360.27s-9.1-53.83,8.42-100.16A211.11,211.11,0,0,0,96,201.51c1.29-17,1.7-37.31-.68-57.13C89.83,98.85,168.07,35.16,242.15,61.61A23.67,23.67,0,0,1,257,77.79h0a44.51,44.51,0,0,1,37.57-6.39,47.93,47.93,0,0,1,7.11,2.77,81.15,81.15,0,0,1,32.12,27.41,183,183,0,0,1,10.89,17.52,109.7,109.7,0,0,1,11.77,68.09l0,.29A149.38,149.38,0,0,0,359,247.3c6.47,26.11,11.85,44.12,18.94,61.85,0,0-40.3,59.71-159,85.29C218.94,394.45,133.81,351,74.19,360.27Z"/><path class="cls-1" d="M257,77.79s24.73-10,37.57-6.39a47.93,47.93,0,0,1,7.11,2.77,81.15,81.15,0,0,1,32.12,27.41,183,183,0,0,1,10.89,17.52,109.7,109.7,0,0,1,11.77,68.09l0,.29A149.42,149.42,0,0,0,359,247.3c6.47,26.11,11.85,44.12,18.94,61.85,0,0-19.15,28.37-69.93,54.39l6.54-14.91a213.85,213.85,0,0,0-12.59-196.13Z"/><path class="cls-2" d="M253.27,76.55,256,75.42c1-.42,25.7-10.31,39.23-6.49a50.44,50.44,0,0,1,7.5,2.92,83.8,83.8,0,0,1,33.14,28.27,182.36,182.36,0,0,1,11,17.77,112.92,112.92,0,0,1,12,69.68l0,.29a146,146,0,0,0,2.51,58.81c6.77,27.29,12,44.54,18.83,61.51l.5,1.26-.76,1.12c-.2.3-5.08,7.46-16.3,17.88-10.28,9.55-28.09,23.78-54.58,37.35l-6.4,3.28,9.43-21.5a211.6,211.6,0,0,0-12.44-193.79m-39-74.7,43.35,72.06a216.72,216.72,0,0,1,12.74,198.48l-3.6,8.2c22.43-12.23,37.79-24.6,47-33.13A125.75,125.75,0,0,0,375,308.79c-6.63-16.79-11.87-34-18.53-60.87a151.12,151.12,0,0,1-2.6-60.85l0-.27a107.77,107.77,0,0,0-11.5-66.5A177.36,177.36,0,0,0,331.7,103a78.67,78.67,0,0,0-31.1-26.55,45.25,45.25,0,0,0-6.72-2.63C284.46,71.2,267.47,76.69,260.78,79.11Z"/><path class="cls-4" d="M305.87,163.57s18-1.34,29.54,10.18l-9.59-37.17-25.48-27h-56.5S286.81,129.11,305.87,163.57Z"/><path class="cls-1" d="M257,77.79a23.67,23.67,0,0,0-14.86-16.18C168.07,35.16,89.83,98.85,95.29,144.38c2.38,19.81,2,40.12.68,57.13a211.11,211.11,0,0,1-13.36,58.6c-15.8,41.78-10,89.66-8.65,98.66a.47.47,0,0,0,.9.14c5.83-11.73,49.07-96.07,95.45-113.52L257,77.79"/><path class="cls-2" d="M74.43,361.74a3.08,3.08,0,0,1-.49,0,3,3,0,0,1-2.52-2.56c-1.34-9.26-7.21-57.62,8.79-99.93a208.75,208.75,0,0,0,13.21-57.89c1.58-20.73,1.35-39.79-.67-56.63-2.42-20.21,10.79-44.51,34.49-63.43a131.71,131.71,0,0,1,52.81-25.48,113,113,0,0,1,63,3.42,26.22,26.22,0,0,1,16.47,17.93l.26,1L172.12,247.44l-.92.35C125.46,265,82,350.37,77.14,360.05A3,3,0,0,1,74.43,361.74ZM206,58a112.56,112.56,0,0,0-24.78,2.79,126.55,126.55,0,0,0-50.75,24.48c-22.33,17.82-34.82,40.36-32.6,58.82,2.06,17.17,2.29,36.56.69,57.63A213.85,213.85,0,0,1,85,261c-13.17,34.82-11.08,74-9.34,90.68a457.14,457.14,0,0,1,29.61-48.87c22.21-31.68,43.46-51.68,63.2-59.47L254.26,77.53a21.08,21.08,0,0,0-13-13.51A104.94,104.94,0,0,0,206,58Z"/><path class="cls-5" d="M120.49,249.23,257,77.79a23.67,23.67,0,0,0-14.86-16.18C168.07,35.16,89.83,98.85,95.29,144.38c1,8.67,1.68,26,1.68,26h0a21.41,21.41,0,0,1,26.38,21.9Z"/><path class="cls-6" d="M210.43,103.12s-55.43.83-75.64,66.25a407.29,407.29,0,0,1-16.37,44.31l-5.56,12.59a72.72,72.72,0,0,0-4.7,44l2.25,10.92a93.52,93.52,0,0,0,47.54,64.06,76.55,76.55,0,0,0,28.69,8.88c41.79,3.84,106.19-20,132.2-58s4.26-101.93-4.26-113.44S277.3,101.58,210.43,103.12Z"/><path class="cls-7" d="M129.51,298.24h0a63.21,63.21,0,0,1,6.56,28v1s-25.31-23.32-26.07-48v-8l11.15,10.87Z"/><path class="cls-7" d="M346.56,218.85a22.6,22.6,0,0,0-22.6-22.6l-2.49.81c-2.5-6.76-5-11.82-6.89-14.35-8.37-11.3-36.23-78.57-100.49-79.59l-24.2,7.94-8.39,24.74s29.4-17.91,59.26,3.41,9.43,53.73,9.43,53.73,19.62,12.79,24.74,35.82c3.47,15.63-6.11,36.06-20.61,50.8a98,98,0,0,0-25.38,45.29c-2.38,9.63-6.86,19.41-15.19,25.45v2.95c38.76-5.32,84.26-26.69,105.1-57.11,10.93-15.94,13.42-36.47,12-55.77A22.61,22.61,0,0,0,346.56,218.85Z"/><path class="cls-2" d="M195.88,357.11q-4.89,0-9.48-.42a79.05,79.05,0,0,1-29.65-9.17c-25.18-13.29-43-37.28-48.85-65.8l-2.25-10.92a74.87,74.87,0,0,1,4.87-45.57l5.56-12.59a402,402,0,0,0,16.27-44c10.7-34.65,31.29-51.3,46.68-59.18,16.65-8.52,30.66-8.86,31.36-8.87,58.79-1.37,88.68,50.55,101.44,72.71,2.05,3.56,3.67,6.38,4.81,7.91,4.42,6,12.16,24.78,15.56,48,2.87,19.56,3.25,47.31-11.24,68.45-12.4,18.1-34.18,34.29-61.31,45.59C238,352.2,215.29,357.11,195.88,357.11Zm14.59-251.43c-.13,0-13.64.33-29.34,8.42-21,10.82-35.76,29.67-43.9,56a407,407,0,0,1-16.48,44.59L115.2,227.3a69.78,69.78,0,0,0-4.54,42.47l2.25,10.92c5.56,27,22.41,49.73,46.23,62.31a74,74,0,0,0,27.73,8.6c20.44,1.88,46.24-2.91,70.8-13.14,26.23-10.93,47.21-26.47,59.06-43.76,13.55-19.77,13.14-46.16,10.4-64.82-3.23-22.05-10.63-40.28-14.61-45.65-1.31-1.77-3-4.7-5.13-8.4-12.31-21.38-41.13-71.44-96.9-70.15Z"/><circle class="cls-8" cx="233.09" cy="317.96" r="4.33" transform="translate(-123.23 486.69) rotate(-79.1)"/><circle class="cls-8" cx="257.75" cy="270.32" r="5.67" transform="translate(-56.45 472.28) rotate(-79.1)"/><circle class="cls-8" cx="260.63" cy="308.2" r="4.33" transform="translate(-91.31 505.83) rotate(-79.1)"/><circle class="cls-8" cx="213.61" cy="334.1" r="2.16" transform="translate(-154.86 480.65) rotate(-79.1)"/><circle class="cls-8" cx="237.6" cy="289.95" r="6.34" transform="translate(-92.06 468.4) rotate(-79.1)"/><path class="cls-6" d="M157.53,327.48s-6.35,26.07,32.47,29.95c42.76,4.28,40.06-32.07,40.06-32.07"/><path class="cls-2" d="M231.28,333.18a1.61,1.61,0,0,1,1,1.56c-.19,4.88-.86,12.58-7.08,18.64-6.49,6.33-16.91,9.52-28.5,9.52-2.28,0-5.29-.12-7.75-.37-15.14-1.51-25.13-7.74-31-16-3.67-5.19-3.13-9.55-2.85-13.17a1.77,1.77,0,0,1,1.58-1.62h0a1.76,1.76,0,0,1,1.83,1.12c1.33,3.51,4.33,9.6,5.78,11.25,5.1,5.82,13.27,8.2,26,9.48s22.14.83,28.21-5.09c5.65-5.51,9.5-10.59,10.56-14.29a1.61,1.61,0,0,1,2.13-1.06Z"/><path class="cls-2" d="M158,296.08l2.25-2.88a25.49,25.49,0,0,1,18-9.72h0a25.49,25.49,0,0,1,20,7.21l5.21,5.12a2.09,2.09,0,0,1,.1,2.89h0a2.09,2.09,0,0,1-2.76.33l-4.13-2.87a30.86,30.86,0,0,0-20.05-5.43h0a25.49,25.49,0,0,0-13.08,4.87L160,298.15a1.45,1.45,0,0,1-1.77,0h0A1.45,1.45,0,0,1,158,296.08Z"/><path class="cls-2" d="M271,264.61a2,2,0,0,1,.9-1.12h0a1.82,1.82,0,0,1,2.46.9l.23.51a1.82,1.82,0,0,1,.1,1.17h0a13,13,0,0,1-8.64,9.25l-1.37.44a10.54,10.54,0,0,0-4.52,3.24l-1,1.18a11.72,11.72,0,0,0-2.6,6.71c0,.45,0,.89-.1,1.34l-.28,2.43a1.92,1.92,0,0,1-2.62,1.56h0a1.92,1.92,0,0,1-1.13-1.24h0a15.19,15.19,0,0,1,1.71-12.61,16.83,16.83,0,0,1,1-1.41l1-1.18a15.65,15.65,0,0,1,6.71-4.81S269.85,268.93,271,264.61Z"/><path class="cls-2" d="M115.86,225.31l-3.7-3.54L114.8,219a22.26,22.26,0,0,1,17.65-6.86L162,214.29a1.41,1.41,0,0,1,1.21,1.94h0a3.13,3.13,0,0,1-3,2l-28-.93a17.2,17.2,0,0,0-13.65,5.29Z"/><path class="cls-2" d="M179.23,327.31h0A1.51,1.51,0,0,0,178,328.6c-1,7.81.87,21.57,8.67,28.41l5.18,1.28,3.37-3.85s-10-7.62-14.21-26A1.52,1.52,0,0,0,179.23,327.31Z"/><path class="cls-1" d="M294.58,71.4a49.75,49.75,0,0,1,7.11,2.77,81.15,81.15,0,0,1,32.12,27.41,183,183,0,0,1,10.89,17.52,109.7,109.7,0,0,1,11.77,68.09l0,.29A149.45,149.45,0,0,0,359,247.31c6.26,25.25,11.5,42.92,18.25,60.09a.54.54,0,0,1-.83.62c-7.19-5.66-37.42-33.09-36.86-94,.19-20.36-2.18-36.61-5.61-49.41a72.83,72.83,0,0,0-59.64-53c-53.15-8-93.38,21.15-93.38,21.15-17.75-10.32-40.38-8.25-53.75-.85C104.88,144.3,97,170.35,97,170.35a252,252,0,0,0-1.68-26C89.83,98.85,168.07,35.16,242.15,61.61c7.31,2.61,16.32,6.91,21.89,13.62C264,75.23,274.18,65.49,294.58,71.4Z"/><path class="cls-2" d="M376.72,310.69a3.09,3.09,0,0,1-1.91-.66c-3.75-3-13.4-11.49-22-27.05C342.06,263.52,336.73,240.33,337,214c.17-18-1.69-34.43-5.53-48.72a70.22,70.22,0,0,0-57.55-51.13c-51.52-7.72-91.1,20.4-91.5,20.69l-1.35,1-1.44-.84c-16.89-9.81-38.55-7.84-51.22-.82-21.12,11.7-28.89,36.65-29,36.9l-4.75,15.67-.26-16.37a249.94,249.94,0,0,0-1.66-25.7c-2.42-20.21,10.79-44.51,34.49-63.43a131.71,131.71,0,0,1,52.81-25.48,113,113,0,0,1,63,3.42c9.31,3.32,16.48,7.55,21.36,12.57,4.16-2.76,14.46-7.6,30.92-2.83h0a52,52,0,0,1,7.49,2.91,83.8,83.8,0,0,1,33.14,28.27,182.36,182.36,0,0,1,11,17.77,112.92,112.92,0,0,1,12,69.68l0,.31a146.06,146.06,0,0,0,2.51,58.8c6.49,26.18,11.75,43.5,18.14,59.77a3.09,3.09,0,0,1-2.88,4.23Zm-120.87-203a126.88,126.88,0,0,1,18.8,1.39A75.34,75.34,0,0,1,336.39,164c4,14.73,5.87,31.59,5.7,50.09-.24,25.39,4.88,47.74,15.2,66.41a93.51,93.51,0,0,0,14.55,19.91c-5.2-14.33-9.84-30.25-15.35-52.49a151.16,151.16,0,0,1-2.6-60.86l0-.25a107.78,107.78,0,0,0-11.5-66.52A177.46,177.46,0,0,0,331.7,103,78.67,78.67,0,0,0,300.6,76.49a46.9,46.9,0,0,0-6.73-2.63h0c-18.57-5.38-27.68,2.88-28.06,3.24l-2,1.85-1.75-2.08c-4.19-5-11.38-9.49-20.78-12.85a107.86,107.86,0,0,0-60.1-3.25,126.55,126.55,0,0,0-50.75,24.48c-22.33,17.82-34.82,40.36-32.6,58.82.56,4.7,1,9.61,1.28,14.67,4.61-9,13-21.41,26.79-29,13.58-7.52,36.54-9.78,54.85.08a133.23,133.23,0,0,1,26-12.94A140.74,140.74,0,0,1,255.85,107.74Z"/><path class="cls-9" d="M303.7,202.85,324,241.45a22.58,22.58,0,0,0,6.9-1.08,163.66,163.66,0,0,0-9.39-43.31Z"/><path class="cls-7" d="M308,202.87a22.6,22.6,0,1,1,1.83,33.6"/><path class="cls-2" d="M324,244a25.23,25.23,0,0,1-15.76-5.54l3.21-4A19.82,19.82,0,0,0,324,238.89a20,20,0,1,0-14.17-34.22l-3.62-3.62A25.16,25.16,0,1,1,324,244Z"/><path class="cls-10" d="M332.44,255a11.93,11.93,0,0,1-10.94-7.17l4.69-2A6.82,6.82,0,0,0,339,241a6.73,6.73,0,0,0-.23-.63,6.81,6.81,0,0,0-6.28-4.16v-5.12a11.91,11.91,0,0,1,11,7.29,11.57,11.57,0,0,1,.41,1.12A11.94,11.94,0,0,1,332.44,255Z"/><path class="cls-1" d="M330.35,264c7.78-69-45-124.93-45-124.93l-5.39-5.77a.47.47,0,0,0-.82.37c.68,6.15,3.07,30.95-.16,48.57,0,0,30.18,35.62,19.95,78.48l.71-.09c2.16,4,10.39,6.49,15.05,6.89,5.68.49,13-1.75,15.68-3.52Z"/><path class="cls-2" d="M295.55,263.77l.86-3.62C306.24,219,277.3,184.27,277,183.93l-.78-.92.22-1.19c3.22-17.52.68-42.92.14-47.83a3,3,0,0,1,5.23-2.4l5.39,5.77c.54.57,13.56,14.48,25.81,37.12,11.33,20.95,24,53.54,19.88,89.85l-.36,3.24S314.11,280.55,295.55,263.77Zm31.72-.86c2.88-33.67-8.08-66.22-18.69-85.88a188.92,188.92,0,0,0-25.1-36.18l-1.21-1.3c.86,10.17,1.78,28-.58,42a109.24,109.24,0,0,1,13.43,22.84c5.57,12.68,10.27,34.3,6.19,55.73C313.77,272.55,327.27,262.91,327.27,262.91Z"/><path class="cls-2" d="M123.77,293l-.59-1.2a24.89,24.89,0,0,0-7.6-11.69,33.66,33.66,0,0,1-11.45-26.42,74.87,74.87,0,0,1,6.39-28.43l4.68,2.07a69.8,69.8,0,0,0-6,27.22,28.08,28.08,0,0,0,9.29,21.89,30,30,0,0,1,8.92,13.88l2.83,7.24a.58.58,0,0,1-.76.71h0A10.64,10.64,0,0,1,123.77,293Z"/><path class="cls-2" d="M226.65,212.94l-32,2.15a1.4,1.4,0,0,0-1.21,1.92h0a3.15,3.15,0,0,0,3,2l30.47-.94a17.2,17.2,0,0,1,13.61,5.29l1,1a2.13,2.13,0,0,0,3.18-.11h0a2.12,2.12,0,0,0,.22-2.41C243.27,218.93,238.17,212.31,226.65,212.94Z"/><circle class="cls-11" cx="260.63" cy="238.41" r="2.16" transform="translate(-22.78 449.24) rotate(-79.1)"/><circle class="cls-11" cx="260.63" cy="212.9" r="2.16" transform="translate(2.28 428.55) rotate(-79.1)"/><circle class="cls-11" cx="274.73" cy="289.95" r="2.16" transform="translate(-61.95 504.87) rotate(-79.1)"/><circle class="cls-11" cx="214.03" cy="335.07" r="2.16" transform="translate(-155.48 481.86) rotate(-79.1)"/><circle class="cls-11" cx="247.39" cy="251.47" r="2.16" transform="translate(-46.34 446.82) rotate(-79.1)"/><path class="cls-12" d="M123,232.79l.22.45a16.35,16.35,0,0,0,13.71,9l1,.05a20.56,20.56,0,0,0,10.84-2.39h0A12.69,12.69,0,0,0,155,225.31H143.64l-10.7,3.51Z"/><path class="cls-13" d="M131.32,230.36l-.73-2.46,16.3-4.11.74,2.93,2.48-2.05.42,1.43c1,4.81-1.92,9.39-7,10.9A9.84,9.84,0,0,1,131.32,230.36Z"/><path class="cls-2" d="M138.09,229.53a3.34,3.34,0,0,0,6.4-1.9,3.34,3.34,0,0,0-6.4,1.9Z"/><path class="cls-2" d="M156.12,225.39h0a4.67,4.67,0,0,0-3.78-2.52,45.62,45.62,0,0,0-28.58,7.67s-1.52.9-1.08,1.83,1.62.63,2.14.47c6.56-2.1,17.64-5.36,29.64-4.8A1.8,1.8,0,0,0,156.12,225.39Z"/><path class="cls-12" d="M238.94,233.3l-.22.45a16.35,16.35,0,0,1-13.71,9l-1,.05a20.56,20.56,0,0,1-10.84-2.39h0A12.69,12.69,0,0,1,207,225.83h11.36l10.7,3.51Z"/><path class="cls-13" d="M218.43,237.51c-5.07-1.5-8-6.09-7-10.9l.42-1.43,2.48,2.05.74-2.93,16.3,4.11-.73,2.46A9.84,9.84,0,0,1,218.43,237.51Z"/><circle class="cls-2" cx="220.68" cy="229.1" r="3.34" transform="matrix(0.28, -0.96, 0.96, 0.28, -61.69, 375.59)"/><path class="cls-2" d="M205.85,225.9h0a4.67,4.67,0,0,1,3.78-2.52,45.62,45.62,0,0,1,28.58,7.67s1.52.9,1.08,1.83-1.62.63-2.14.47c-6.56-2.1-17.64-5.36-29.64-4.8A1.8,1.8,0,0,1,205.85,225.9Z"/></svg>