<svg id="Layer_1" data-name="Layer 1" xmlns="http://www.w3.org/2000/svg" xmlns:xlink="http://www.w3.org/1999/xlink" viewBox="0 0 450 450"><defs><style>.cls-1{fill:#fcecd9;}.cls-2{fill:#f2d6c2;}.cls-3{fill:#575266;}.cls-4{fill:#756a6a;}.cls-5{fill:#e5c2aa;}.cls-6{fill:#a5928b;}.cls-7{opacity:0.75;fill:url(#linear-gradient);}.cls-8{fill:url(#linear-gradient-2);}.cls-9{fill:#f48576;}.cls-10,.cls-11,.cls-9{opacity:0.4;}.cls-10{fill:url(#linear-gradient-3);}.cls-11{fill:url(#linear-gradient-4);}</style><linearGradient id="linear-gradient" x1="147.6" y1="179.7" x2="359.15" y2="295.75" gradientUnits="userSpaceOnUse"><stop offset="0.07" stop-color="#5b423e" stop-opacity="0"/><stop offset="0.24" stop-color="#5b423e" stop-opacity="0.1"/><stop offset="0.51" stop-color="#5b423e" stop-opacity="0.37"/><stop offset="0.86" stop-color="#5b423e" stop-opacity="0.8"/><stop offset="1" stop-color="#5b423e"/></linearGradient><linearGradient id="linear-gradient-2" x1="195.92" y1="55.52" x2="352" y2="216.39" xlink:href="#linear-gradient"/><linearGradient id="linear-gradient-3" x1="192.1" y1="225.04" x2="286.24" y2="225.04" gradientUnits="userSpaceOnUse"><stop offset="0.04" stop-color="#ffe18d" stop-opacity="0.59"/><stop offset="0.26" stop-color="#5b423e" stop-opacity="0"/><stop offset="0.67" stop-color="#ffe18d" stop-opacity="0.03"/><stop offset="0.69" stop-color="#ffe18d" stop-opacity="0.08"/><stop offset="0.72" stop-color="#ffe18d" stop-opacity="0.2"/><stop offset="0.77" stop-color="#ffe18d" stop-opacity="0.4"/><stop offset="0.82" stop-color="#ffe18d" stop-opacity="0.68"/><stop offset="0.84" stop-color="#ffe18d" stop-opacity="0.79"/><stop offset="1" stop-color="#ffe18d"/></linearGradient><linearGradient id="linear-gradient-4" x1="175.15" y1="222.54" x2="91.6" y2="222.54" xlink:href="#linear-gradient-3"/></defs><title>walter</title><path class="cls-1" d="M203.47,105.08s-43.4-26.3-61.8,10.9a427.7,427.7,0,0,0-30.23,83c-1.71,6.81,1.75,15.15.78,19.71-4.84,22.79-11.35,39.09-12.43,54.62-2.81,40.27,32.59,60.21,32.59,60.21l55.5,37s117.31-4.21,155.05-71.91c0,0,41.48-80-13.32-200.58a4.39,4.39,0,0,0-4.34-2.55Z"/><path class="cls-2" d="M146.23,112.58l-3.06.59,8.05-8.87,14.4-3.2L188,107l15.46-1.92,124.85-9.81c56.73,122.12,14.61,203.36,14.61,203.36-37.74,67.69-155.05,71.91-155.05,71.91l54.93-30.46c16.89-9.37,31.28-14.63,40.78-33,6.6-12.75,4.35-31.44,4.35-31.44-1.91-19.41-20.41-26-20.41-26s13.29-2.91,17.84-28.64S263,192.55,263,192.55s21.42,3.19,20.9-11.1c-.36-9.93-13-15.77-21.78-18.64a2.94,2.94,0,0,1-.22-5.52h0a19.28,19.28,0,0,0,9.66-8.84h0A19.28,19.28,0,0,0,265,123.34l-1-.66a19.28,19.28,0,0,0-15.73-2.4l-2.78.78-4.73,1.53a200.94,200.94,0,0,1-36.63,8.19h0a32.92,32.92,0,0,1-23.59-6.09l-8.7-6.36A32.92,32.92,0,0,0,146.23,112.58Z"/><path class="cls-2" d="M109.63,208.75c9.49-2,29.24-5.45,57.41-6.89,0,0,15.2,3.94,16,25.67s-29.71,37.54-44.73,38.08-41.41-3.8-42.21-26.08c-.35-9.71,1-16.51,2.55-21.11A14.84,14.84,0,0,1,109.63,208.75Z"/><path class="cls-2" d="M285.86,216.32c2.05,4.8,4,12,4.35,22.42.86,23.94-27.09,30.62-43.22,31.2s-50-14-50.87-37.36S211.81,202,211.81,202h0a5.62,5.62,0,0,1,2-.29,575.76,575.76,0,0,1,60.11,5.75,15.67,15.67,0,0,1,11.91,8.86Z"/><path class="cls-3" d="M187.15,373.09,131,335.64a74.32,74.32,0,0,1-17.95-15.52c-8.06-9.5-17.35-25.37-15.84-47,.67-9.61,3.33-19.37,6.41-30.67,2-7.18,4.17-15.32,6.08-24.29.33-1.54-.07-4.09-.49-6.8-.63-4.06-1.35-8.67-.27-13a427.19,427.19,0,0,1,30.41-83.49c5.13-10.37,12.61-17,22.23-19.84,18.34-5.34,38.35,5.17,42.43,7.48l121-9.51a6.93,6.93,0,0,1,6.84,4c12.6,27.71,21.14,55.59,25.4,82.86a252,252,0,0,1,2,63.94c-3.53,35.15-13.73,55.15-14.16,56l0,.07c-8.82,15.83-22.63,29.53-41,40.72-14.62,8.89-32.17,16.23-52.16,21.82a309,309,0,0,1-64,10.66ZM172.51,98.59A33.84,33.84,0,0,0,163,99.87c-8.19,2.39-14.61,8.19-19.08,17.22a422,422,0,0,0-30,82.47c-.83,3.33-.2,7.4.36,11,.49,3.18,1,6.18.44,8.63-1.94,9.12-4.17,17.33-6.14,24.57-3,11-5.6,20.58-6.24,29.69-1.12,16,3.77,30.51,14.53,43.26a70.13,70.13,0,0,0,16.78,14.57l.16.1L188.59,368a306.88,306.88,0,0,0,62.08-10.47c19.52-5.46,36.63-12.62,50.84-21.27,17.61-10.72,30.8-23.77,39.18-38.8,3.54-6.87,10.92-27,13.63-54.41,3.13-31.64,1-82.28-27-143.92A1.86,1.86,0,0,0,325.46,98l-122.61,9.64-.7-.42a70.61,70.61,0,0,0-12.94-5.72A54.58,54.58,0,0,0,172.51,98.59Z"/><path class="cls-2" d="M193.85,226.65l-2-1.39a9.13,9.13,0,0,0-10.44,0l-2.92-4.14a14.21,14.21,0,0,1,16.25-.05l2,1.39Z"/><path class="cls-2" d="M354.13,229.07c-106-29.6-186.3-24.15-224.75-18.27l-.77-5c38.85-5.94,120-11.45,226.88,18.4Z"/><path class="cls-4" d="M269.08,210.25h0a4.23,4.23,0,0,0,5.2-3.46l.19-1.21a4.43,4.43,0,0,0,0-1.42c-2.11-12.22-13.3-18-23.64-17l-24.63,2.27a7.72,7.72,0,0,1-4.17-.79l-3-1.49a3,3,0,0,0-2.26-.17h0A3,3,0,0,0,215,191l.48,1.1A11.62,11.62,0,0,0,227.09,199h0l24.63-2.27a13.25,13.25,0,0,1,13.73,8.85l.66,1.91A4.23,4.23,0,0,0,269.08,210.25Z"/><path class="cls-5" d="M285.74,208.75q.81,2.54,1.4,5.35a643.26,643.26,0,0,1,67,15l1.36-4.88A646.73,646.73,0,0,0,285.74,208.75Z"/><path class="cls-6" d="M279.3,332.48c-11,2.11-19.39-9.36-19.39-9.36-.33-.5-.5-.79-.5-.79s-7.85-23.36-23.69-38.1c-14.16-13.17-44.64-29-51-32.23a2.66,2.66,0,0,0-2.34,0,190.34,190.34,0,0,0-35.19,21.78A53.91,53.91,0,0,0,128.17,331a45.82,45.82,0,0,0,6.67,14.07c16,22.39,38.21,36.36,72.86,35.12,19.2-.69,35-8.21,45.22-14.78a254.87,254.87,0,0,1,31.2-17.18c17.24-7.91,30-13.84,43.09-28.31a107.39,107.39,0,0,0,24.17-45.41c8.41-32.53,15.24-95.94-22.46-177.92a.16.16,0,0,0-.31.1l23,110.88c1.89,9.12.74,23-.82,34.32a142.78,142.78,0,0,1-16.49,50,103.19,103.19,0,0,1-16,22.06C303.49,329,284.15,331.54,279.3,332.48Zm-42.56.61c-6.4,6.86-17.71,9.43-27,8.33-10.23-1.21-21.07-6.93-26.8-21.54a3,3,0,0,0-5.45-.25c-4.26,8.47-12.89,20.79-26.07,17.53-11.87-2.94-16.44-12.76-16.4-24.51A32.05,32.05,0,0,1,151.74,285a64.89,64.89,0,0,1,29.36-8c24.08-.86,46.88,14.66,53.27,20.61C239.65,302.57,251.22,317.56,236.73,333.08Z"/><path class="cls-7" d="M279.3,332.48c-11,2.11-19.39-9.36-19.39-9.36-.33-.5-.5-.79-.5-.79s-7.85-23.36-23.69-38.1c-14.16-13.17-44.64-29-51-32.23a2.66,2.66,0,0,0-2.34,0,190.34,190.34,0,0,0-35.19,21.78A53.91,53.91,0,0,0,128.17,331a45.82,45.82,0,0,0,6.67,14.07c16,22.39,38.21,36.36,72.86,35.12,19.2-.69,35-8.21,45.22-14.78a254.87,254.87,0,0,1,31.2-17.18c17.24-7.91,30-13.84,43.09-28.31a107.39,107.39,0,0,0,24.17-45.41c8.41-32.53,15.24-95.94-22.46-177.92a.16.16,0,0,0-.31.1l23,110.88c1.89,9.12.74,23-.82,34.32a142.78,142.78,0,0,1-16.49,50,103.19,103.19,0,0,1-16,22.06C303.49,329,284.15,331.54,279.3,332.48Zm-42.56.61c-6.4,6.86-17.71,9.43-27,8.33-10.23-1.21-21.07-6.93-26.8-21.54a3,3,0,0,0-5.45-.25c-4.26,8.47-12.89,20.79-26.07,17.53-11.87-2.94-16.44-12.76-16.4-24.51A32.05,32.05,0,0,1,151.74,285a64.89,64.89,0,0,1,29.36-8c24.08-.86,46.88,14.66,53.27,20.61C239.65,302.57,251.22,317.56,236.73,333.08Z"/><path class="cls-2" d="M191.23,166.4a21.93,21.93,0,0,1-15.86-6l-2.95-2.19a14.85,14.85,0,0,0-4.87-2.09,20.6,20.6,0,0,0-19.39,4.43,1.14,1.14,0,0,1-1.58,0h0a1.15,1.15,0,0,1,0-1.63c6.31-6.23,13.71-9.71,22.22-7.47a19.11,19.11,0,0,1,6.54,2.89l3.3,2.48a17.06,17.06,0,0,0,18.24,3.49l10.95-4.46c13-5.28,30.29-4.87,40,1.34a1.07,1.07,0,0,1,.19,1.65h0a1.07,1.07,0,0,1-1.16.24c-12-4.81-25.16-3.62-37.18,1.28L198.7,164.8A21.85,21.85,0,0,1,191.23,166.4Z"/><path class="cls-2" d="M196.92,151.32c-7.26.26-14.72-.19-21.38-5.21a1.65,1.65,0,0,1-.29-2.34l.26-.33a1.66,1.66,0,0,1,1.95-.49A45.73,45.73,0,0,0,206.59,145l1.2-.31a1.65,1.65,0,0,1,1.94,1h0a1.65,1.65,0,0,1-.93,2.15C205.9,148.95,199.71,151.22,196.92,151.32Z"/><path class="cls-5" d="M127.21,217.12c-3.6,5.8-.74,18.61,16.71,18.61,10.28,0,20.19-10.53,13.54-21.77-1.59-2.69-6.76-4.59-13.76-4.59C133.43,209.37,128.41,215.19,127.21,217.12Z"/><path class="cls-6" d="M328.32,95.26c27.32,58.83,31.71,108.17,28.92,143.51l-4.73-15.5a45.59,45.59,0,0,0-25.19-28.41,11.81,11.81,0,0,1-7-10.24c-.38-7.91-1.13-22.07-2.51-43.87-.89-14-11-25-24.33-30.29l-2-.84a66.48,66.48,0,0,0-45.09-1.2l-22.35,7.4A54.26,54.26,0,0,1,176.32,109h0a31.63,31.63,0,0,0-25.09-4.73l-1.5.35c-.34-9.49,1.89-23.74,1.89-23.74a8.56,8.56,0,0,1,5.12-4.09l1.41-.41c18.66-5.84,79.8-6.52,79.8-6.52,64.19-2.31,88.43,23.19,90.26,25.23Z"/><path class="cls-8" d="M328.32,95.26c27.32,58.83,31.71,108.17,28.92,143.51l-4.73-15.5a45.59,45.59,0,0,0-25.19-28.41,11.81,11.81,0,0,1-7-10.24c-.38-7.91-1.13-22.07-2.51-43.87-.89-14-11-25-24.33-30.29l-2-.84a66.48,66.48,0,0,0-45.09-1.2l-22.35,7.4A54.26,54.26,0,0,1,176.32,109h0a31.63,31.63,0,0,0-25.09-4.73l-1.5.35c-.34-9.49,1.89-23.74,1.89-23.74a8.56,8.56,0,0,1,5.12-4.09l1.41-.41c18.66-5.84,79.8-6.52,79.8-6.52,64.19-2.31,88.43,23.19,90.26,25.23Z"/><path class="cls-3" d="M358.72,252.28,350.1,224a43,43,0,0,0-23.79-26.83,14.26,14.26,0,0,1-8.53-12.43c-.39-8-1.13-22.15-2.51-43.83-.78-12.28-9.28-22.78-22.73-28.1l-.07,0-1.92-.83a64.08,64.08,0,0,0-43.33-1.14l-22.35,7.4a57.1,57.1,0,0,1-50-7.1,29.17,29.17,0,0,0-23.08-4.35l-4.5,1-.11-3.07c-.35-9.62,1.82-23.63,1.91-24.22l.07-.44.22-.39A11,11,0,0,1,156,74.4l1.41-.41c18.74-5.87,78-6.59,80.47-6.62,64.73-2.33,89.56,23.16,92.18,26.07l.37.42.16.33c12.6,27.13,21.33,54.45,26,81.2a255.83,255.83,0,0,1,3.2,63.58ZM294.44,108.12c15.08,6,25,18.41,25.89,32.47,1.38,21.71,2.13,35.86,2.51,43.91a9.23,9.23,0,0,0,5.52,8,48.08,48.08,0,0,1,26.59,30l.48,1.57c.73-41.13-9.08-83.92-29.23-127.43-2.12-2.27-26.28-26.46-88.15-24.24-.67,0-61,.74-79.13,6.4l-1.47.42A6,6,0,0,0,154,81.78a172.19,172.19,0,0,0-1.81,19.73,34.25,34.25,0,0,1,25.52,5.43,52,52,0,0,0,45.53,6.47l22.35-7.4a69.15,69.15,0,0,1,46.8,1.24l.08,0Z"/><path class="cls-5" d="M254.48,217.19c3.6,5.8.74,18.61-16.71,18.61-10.28,0-20.19-10.53-13.54-21.77,1.59-2.69,6.76-4.59,13.76-4.59C248.26,209.44,253.28,215.27,254.48,217.19Z"/><path class="cls-2" d="M193.9,306.74h0A3.78,3.78,0,0,1,190,306c-1.81-1.63-5-3.7-7.22-3.83-2.81-.16-6.14.47-7.84,2.45-.92,1.07-2.2,2.92-3.61,2.84h0a1.53,1.53,0,0,1-1.3-2.17,13.54,13.54,0,0,1,24.6-.25A1.27,1.27,0,0,1,193.9,306.74Z"/><path class="cls-3" d="M256.14,219.77h0a1.2,1.2,0,0,0,.07-1.37h0a18.33,18.33,0,0,0-7.89-6.55,22.64,22.64,0,0,0-2.7-1,29.92,29.92,0,0,0-13.46-1.09,16.31,16.31,0,0,0-6.27,2.63,1.23,1.23,0,0,0-.18,1.82h0a1.24,1.24,0,0,0,1.28.33c7.45-2.31,15.25-.62,22.33,2.8l5.32,2.76A1.2,1.2,0,0,0,256.14,219.77Z"/><path class="cls-3" d="M245.58,213.54a6.37,6.37,0,1,1-12-1.22A21.78,21.78,0,0,1,245.58,213.54Z"/><path class="cls-3" d="M127.38,217.2h0a1.2,1.2,0,0,1,.06-1.37h0a18.33,18.33,0,0,1,8.48-5.77,22.64,22.64,0,0,1,2.78-.75,29.92,29.92,0,0,1,13.5.2,16.31,16.31,0,0,1,6,3.21,1.23,1.23,0,0,1,0,1.83h0a1.24,1.24,0,0,1-1.31.21c-7.19-3-15.12-2.07-22.49.66l-5.55,2.24A1.2,1.2,0,0,1,127.38,217.2Z"/><path class="cls-3" d="M138.49,212a6.37,6.37,0,1,0,12.06-.07A21.78,21.78,0,0,0,138.49,212Z"/><path class="cls-4" d="M114.3,210.25h0a4.23,4.23,0,0,1-5.2-3.46l-.19-1.21a4.43,4.43,0,0,1,0-1.42c2.11-12.22,13.3-18,23.64-17l24.63,2.27a7.72,7.72,0,0,0,4.17-.79l3-1.49a3,3,0,0,1,2.26-.17h0a3,3,0,0,1,1.83,4.06l-.48,1.1A11.62,11.62,0,0,1,156.3,199h0l-24.63-2.27a13.25,13.25,0,0,0-13.73,8.85l-.66,1.91A4.23,4.23,0,0,1,114.3,210.25Z"/><path class="cls-9" d="M281.87,205.52c2.05,4.8,4,12,4.35,22.42.86,23.94-27.09,30.62-43.22,31.2s-50-14-50.87-37.36,15.69-30.58,15.69-30.58h0a5.62,5.62,0,0,1,2-.29A575.76,575.76,0,0,1,270,196.66a15.67,15.67,0,0,1,11.91,8.86Z"/><path class="cls-10" d="M281.87,205.52c2.05,4.8,4,12,4.35,22.42.86,23.94-27.09,30.62-43.22,31.2s-50-14-50.87-37.36,15.69-30.58,15.69-30.58h0a5.62,5.62,0,0,1,2-.29A575.76,575.76,0,0,1,270,196.66a15.67,15.67,0,0,1,11.91,8.86Z"/><path class="cls-9" d="M105.44,197.89c9.36-2,28.83-5.37,56.6-6.8,0,0,15,3.88,15.76,25.3s-29.29,37-44.1,37.55-40.83-3.74-41.62-25.72c-.34-9.57.95-16.28,2.51-20.81A14.64,14.64,0,0,1,105.44,197.89Z"/><path class="cls-11" d="M105.44,197.89c9.36-2,28.83-5.37,56.6-6.8,0,0,15,3.88,15.76,25.3s-29.29,37-44.1,37.55-40.83-3.74-41.62-25.72c-.34-9.57.95-16.28,2.51-20.81A14.64,14.64,0,0,1,105.44,197.89Z"/><path class="cls-3" d="M131.39,256.52c-5.62,0-15.72-.66-24.78-4.68-10.78-4.78-16.67-12.91-17.06-23.52-.3-8.46.59-15.77,2.65-21.73a17.26,17.26,0,0,1,12.72-11.18h0c9.24-1.94,28.93-5.41,57-6.85l.39,0,.38.1c.69.18,16.83,4.62,17.65,27.66.37,10.3-5.76,20.51-17.26,28.76-9.1,6.52-20.87,11.11-29.28,11.41C133.13,256.5,132.32,256.52,131.39,256.52Zm30.34-62.87c-27.48,1.44-46.72,4.82-55.77,6.72h0a12.17,12.17,0,0,0-9,7.88c-1.86,5.37-2.65,12.06-2.37,19.89.31,8.66,5,15.08,14,19.07,9.6,4.26,20.64,4.36,24.95,4.2,7.38-.26,18.28-4.57,26.51-10.47,5.84-4.18,15.57-12.92,15.15-24.46C174.64,198.85,163.84,194.36,161.73,193.65Z"/><path class="cls-3" d="M242,261.7c-9.05,0-21.56-4-31.54-10.1-13.08-8-20.5-18.57-20.9-29.72-.89-24.78,16.47-32.67,17.21-33l.21-.08a8.15,8.15,0,0,1,2.94-.42,580.5,580.5,0,0,1,60.37,5.77,18.15,18.15,0,0,1,13.83,10.29l0,.07c2.69,6.29,4.23,14.14,4.56,23.33.41,11.47-5.32,20.7-16.58,26.69-11.07,5.89-24,7-29.08,7.14Zm-33.3-68.13c-1.41.67-14.82,7.58-14.08,28.13.46,12.68,11.78,21.47,18.49,25.59,9.44,5.79,21.68,9.64,29.76,9.34,4.27-.15,41.73-2.26,40.79-28.58-.31-8.54-1.7-15.77-4.14-21.48a13.1,13.1,0,0,0-10-7.39,575.37,575.37,0,0,0-59.84-5.72A3.08,3.08,0,0,0,208.74,193.57Z"/><path class="cls-3" d="M191.43,215.09l-2-1.39a9.13,9.13,0,0,0-10.44,0l-2.92-4.14a14.21,14.21,0,0,1,16.25-.05l2,1.39Z"/><path class="cls-3" d="M347.5,215.83c-106-29.6-186.3-24.15-224.75-18.27l-.77-5c38.85-5.94,120-11.45,226.88,18.4Z"/><path class="cls-3" d="M287.75,344.32c23.69-12.67,41.24-25.89,53-46.89,3.54-6.87,10.92-27,13.63-54.41,3.13-31.64,1-82.28-27-143.92L331.91,97c12.6,27.71,21.14,55.59,25.4,82.86a252,252,0,0,1,2,63.94c-3.53,35.15-13.73,55.15-14.16,56l0,.07c-12.27,22-33.93,39.7-64.38,52.57-.69.33-10.54,3.81-16.14,5.47Z"/><path class="cls-3" d="M150.73,299.93h0a15.34,15.34,0,0,1,1.45-7.08h0a10.08,10.08,0,0,1,5.7-5.19c4.42-1.6,12-2.88,22.44-3.26a86.51,86.51,0,0,1,26.22,3.26,11.43,11.43,0,0,1,1.64.63,35.79,35.79,0,0,1,15.07,13.79,1.3,1.3,0,0,1-2.17,1.43h0a29.79,29.79,0,0,0-11.94-9.44h0a29.37,29.37,0,0,0-4.84-1.63c-7-1.69-26.09-5.34-44.72-.37a9.91,9.91,0,0,0-5,3.2h0a10.09,10.09,0,0,0-2.13,4.25l-.13.56A.82.82,0,0,1,150.73,299.93Z"/><path class="cls-3" d="M360,203.9c2,31.38-2.22,56-6.14,71.21a110.36,110.36,0,0,1-24.75,46.48c-13.62,15-27,21.14-43.91,28.91a253.59,253.59,0,0,0-30.89,17C244.1,374,227.77,382,207.79,382.7c-1.44.05-2.86.08-4.26.08-30.17,0-53.34-11.89-70.74-36.25a48.39,48.39,0,0,1-7-14.84,55.3,55.3,0,0,1,.78-33,57,57,0,0,1,19.16-27,191.39,191.39,0,0,1,35.66-22.07,5.15,5.15,0,0,1,4.56.07c6.07,3.09,37.1,19.21,51.53,32.64,15.38,14.32,23.29,36.06,24.27,38.88l.26.41c.5.66,7.88,10.06,16.84,8.34l1.21-.22c6.35-1.14,23.22-4.15,36.49-17.63a100,100,0,0,0,15.6-21.51,139.74,139.74,0,0,0,16.2-49.11,171.53,171.53,0,0,0,1.78-21.28l2.43,3,1.61,5.8,1.36,0,2.32-14.19ZM355.49,229l-2.17,13.18a144.76,144.76,0,0,1-16.79,50.88,105,105,0,0,1-16.41,22.6c-14.4,14.63-33.07,18-39.2,19.06l-1.15.21h0c-12.4,2.38-21.52-9.83-21.91-10.35l-.06-.09c-.39-.59-.59-.94-.59-.94l-.12-.21-.08-.24c-.08-.23-7.85-22.94-23-37.06-13.94-13-44.41-28.79-50.38-31.83h-.11a186.33,186.33,0,0,0-34.71,21.48,52,52,0,0,0-17.46,24.57,50.26,50.26,0,0,0-.72,30,43.36,43.36,0,0,0,6.3,13.3c17.38,24.35,39.86,35.17,70.7,34.06,18.83-.68,34.29-8.19,43.94-14.38a258.7,258.7,0,0,1,31.51-17.35c17-7.82,29.35-13.47,42.28-27.72a105.28,105.28,0,0,0,23.6-44.34S354.81,255.45,355.49,229ZM213.93,344.18a38.56,38.56,0,0,1-4.52-.26c-13.38-1.59-23.63-9.8-28.86-23.13a.42.42,0,0,0-.4-.29.44.44,0,0,0-.43.26c-6.39,12.72-14.81,19.46-24.07,19.46a20.24,20.24,0,0,1-4.87-.61c-11.87-2.94-18.38-12.52-18.32-27a34.59,34.59,0,0,1,18.06-29.83,67.62,67.62,0,0,1,30.5-8.28c25.35-.91,48.85,15.47,55.09,21.28,2.29,2.13,9.8,9.92,10.18,20.48.23,6.57-2.36,12.81-7.69,18.52C232.07,341.8,222.05,344.18,213.93,344.18Zm-33.82-28.74h.27a5.45,5.45,0,0,1,4.88,3.5c5.79,14.75,16.65,19,24.75,20s18.79-1,24.88-7.54h0c4.39-4.7,6.52-9.71,6.33-14.89-.31-8.84-7.19-15.68-8.57-17-5.85-5.44-27.84-20.78-51.46-19.93A62.53,62.53,0,0,0,153,287.22a29.52,29.52,0,0,0-15.46,25.43c-.06,15.25,7.84,20.41,14.47,22,11.06,2.74,18.72-7.31,23.2-16.21A5.45,5.45,0,0,1,180.11,315.44Z"/></svg>